<?xml version="1.0" standalone="no"?>
<!DOCTYPE svg PUBLIC "-//W3C//DTD SVG 20010904//EN"
 "http://www.w3.org/TR/2001/REC-SVG-20010904/DTD/svg10.dtd">
<svg version="1.0" xmlns="http://www.w3.org/2000/svg"
 width="1080.000000pt" height="622.687500pt" viewBox="0 0 1080.000000 622.687500"
 preserveAspectRatio="xMidYMid meet">
<metadata>
Created by potrace 1.16, written by Peter Selinger 2001-2019
</metadata>
<g transform="translate(0.000000,622.687500) scale(0.056250,-0.056250)"
fill="#000000" stroke="none">
<path d="M0 9005 c0 -1447 3 -2065 11 -2065 5 0 7 -5 3 -11 -5 -8 -1 -8 13 0
11 6 23 7 27 4 3 -3 6 -1 6 6 0 9 5 9 20 1 11 -6 26 -8 32 -4 7 5 8 3 3 -6 -6
-10 -4 -12 10 -6 16 6 16 4 4 -10 -13 -16 -12 -16 9 -5 18 10 23 9 28 -4 4 -9
18 -15 35 -15 21 0 27 -4 23 -15 -6 -14 6 -19 43 -18 7 1 10 -3 7 -8 -3 -5 4
-9 16 -9 12 0 18 -4 15 -10 -3 -5 0 -7 8 -4 8 3 17 -2 20 -10 4 -10 17 -14 41
-12 20 1 41 -2 48 -7 9 -6 6 -7 -7 -2 -16 5 -17 4 -8 -6 10 -10 16 -9 29 2 12
9 15 10 10 2 -5 -9 0 -13 18 -13 14 0 28 -5 31 -11 4 -6 14 -8 22 -5 8 3 12 2
9 -3 -8 -12 51 -34 87 -33 15 0 27 -4 27 -10 0 -6 13 -8 35 -4 38 7 78 0 71
-13 -3 -4 18 -8 47 -9 38 -1 48 2 37 9 -11 8 -9 9 10 4 14 -4 57 -9 95 -11 39
-2 81 -6 95 -9 59 -14 71 -15 66 -7 -3 5 23 8 58 8 35 -1 62 -4 60 -7 -2 -4 3
-10 12 -13 10 -4 13 -2 9 7 -4 6 0 4 8 -6 14 -16 15 -16 21 -1 5 13 9 15 18 6
16 -16 24 -15 42 4 15 14 16 14 16 -1 0 -15 1 -15 16 -1 12 12 20 13 35 6 11
-6 24 -8 29 -5 6 3 10 2 10 -3 0 -6 13 -9 30 -8 16 1 31 -2 33 -8 2 -6 11 -6
23 -1 24 11 74 13 74 3 0 -4 25 -5 55 -3 30 2 53 0 51 -3 -2 -4 19 -8 47 -9
29 -2 75 -4 104 -5 29 -2 49 -7 45 -12 -3 -5 2 -7 10 -4 10 4 23 -4 37 -23 15
-21 30 -29 51 -29 16 0 34 -6 39 -12 6 -7 21 -26 34 -42 32 -39 61 -31 125 34
l50 50 56 -6 c31 -4 56 -10 56 -14 0 -4 7 -7 15 -7 8 0 12 3 11 6 -2 3 31 6
75 6 43 0 79 -4 79 -9 0 -5 3 -6 7 -3 3 4 12 2 20 -4 9 -9 13 -8 13 0 0 9 5 9
20 1 14 -8 20 -8 20 0 0 6 5 8 11 4 6 -4 39 -8 73 -10 140 -9 220 -13 386 -19
96 -4 203 -13 237 -19 53 -11 117 -12 206 -3 9 1 17 6 17 12 0 5 4 5 8 -2 12
-18 152 -17 152 2 0 6 3 5 8 -2 4 -6 19 -9 34 -6 15 3 26 8 23 12 -2 4 6 7 18
7 24 -1 48 -19 51 -39 1 -6 11 -33 23 -58 17 -37 27 -47 53 -53 54 -10 76 -7
95 14 21 24 35 26 35 5 0 -12 74 -95 86 -95 2 0 4 5 4 11 0 5 14 24 30 42 17
18 34 46 38 62 6 20 15 31 30 33 12 2 22 7 22 12 0 5 16 23 35 41 20 19 38 47
41 66 5 28 51 105 57 94 1 -2 26 4 55 13 29 10 59 19 67 20 8 1 18 5 21 9 4 4
16 7 26 7 10 0 22 8 25 18 4 9 17 28 30 41 23 24 29 21 37 -21 2 -7 8 -24 13
-38 7 -15 7 -29 2 -34 -5 -6 -9 -20 -9 -33 0 -13 -4 -23 -10 -23 -5 0 -7 -7
-4 -15 7 -18 40 -20 50 -3 4 6 3 8 -4 4 -11 -7 -11 19 1 30 4 4 7 16 7 26 0
10 7 21 15 24 8 3 17 26 20 52 12 88 15 102 31 148 9 26 24 56 34 67 l19 20
25 -24 c14 -13 26 -30 26 -38 0 -21 53 -125 69 -135 7 -4 21 -16 31 -26 17
-17 20 -17 57 18 21 20 41 35 46 34 4 -1 7 2 7 7 0 6 12 6 30 0 19 -7 30 -18
30 -30 0 -24 5 -24 39 0 15 11 40 21 56 24 17 2 42 9 56 15 27 11 46 11 64 0
13 -8 58 9 51 20 -2 4 4 9 15 9 11 1 17 -2 14 -7 -3 -4 4 -6 14 -3 24 6 60 43
42 43 -8 0 -10 8 -6 22 6 17 4 20 -10 14 -15 -5 -16 -4 -5 9 7 9 9 15 4 14 -9
-2 -28 4 -69 21 -19 8 -19 9 2 9 12 1 25 6 28 11 3 6 22 10 41 10 19 0 34 5
34 11 0 5 5 7 11 3 6 -3 -5 16 -24 42 -19 27 -41 48 -48 47 -10 -2 -14 8 -15
32 0 18 3 32 8 29 5 -3 6 -10 3 -15 -4 -5 1 -9 9 -9 9 0 18 0 21 0 3 0 5 3 4
8 -1 4 -5 6 -10 4 -5 -1 -9 3 -9 9 0 6 9 8 20 4 12 -4 20 -2 20 5 0 7 9 9 23
5 19 -5 20 -4 5 5 -20 13 -23 35 -6 46 7 4 8 3 4 -4 -5 -8 -2 -10 8 -6 9 3 13
10 10 16 -3 5 3 12 15 15 12 3 21 10 21 15 0 5 -4 7 -8 4 -5 -3 -9 1 -9 8 0 8
8 11 18 9 10 -3 17 -10 16 -15 -1 -6 4 -12 11 -13 7 -2 8 -1 2 2 -5 2 -7 9 -4
14 4 6 11 6 19 -1 9 -8 14 -6 19 5 3 9 10 14 15 10 5 -3 13 -1 16 5 4 6 3 10
-2 8 -19 -4 -82 32 -93 54 -10 20 -9 21 3 6 8 -11 18 -14 27 -8 19 12 33 1 20
-15 -8 -10 -4 -14 18 -17 36 -5 40 20 5 33 -13 5 -22 13 -19 18 3 4 -6 7 -20
5 -22 -2 -23 0 -12 14 8 10 9 13 1 9 -6 -4 -14 -4 -17 1 -5 9 9 13 57 14 23 1
25 3 15 16 -11 13 -11 14 1 7 22 -13 62 -15 55 -3 -5 7 3 9 20 6 18 -4 29 -1
33 8 2 7 12 10 21 7 11 -5 14 -2 9 10 -3 9 -1 19 5 23 7 4 8 3 4 -5 -6 -9 8
-11 55 -7 57 5 95 16 54 16 -14 0 -15 3 -5 15 7 8 18 15 24 15 6 0 4 -5 -4
-10 -12 -8 -10 -10 10 -11 14 -1 39 -3 55 -4 17 -2 37 3 45 10 8 7 26 16 39
20 18 6 22 4 15 -6 -6 -10 -3 -10 11 1 11 9 16 10 11 3 -4 -8 -1 -13 9 -13 10
0 13 5 9 12 -5 8 -2 9 11 4 16 -6 16 -4 4 10 -13 16 -12 16 6 7 20 -11 27 -13
46 -13 5 0 7 -4 4 -10 -3 -5 0 -7 8 -4 20 7 17 30 -6 31 -25 2 -31 9 -21 25 5
7 7 25 5 40 -1 16 2 28 7 28 6 0 8 -10 4 -22 -4 -16 -2 -20 9 -16 8 3 23 0 32
-7 16 -12 16 -13 -3 -18 -11 -3 -18 -1 -14 4 3 5 1 9 -4 9 -12 0 -37 -30 -26
-31 5 0 19 -2 32 -5 14 -2 21 0 17 6 -3 6 1 7 9 4 9 -3 13 -11 9 -17 -3 -6 -1
-7 6 -3 9 6 9 11 1 21 -8 9 -8 15 0 20 15 9 1 27 -17 21 -11 -4 -13 -2 -9 9 7
18 -5 20 -23 3 -11 -11 -13 -10 -8 4 4 12 -1 22 -16 30 -12 6 -22 10 -22 9 0
-2 -13 1 -30 5 l-30 8 30 6 c17 3 33 1 37 -5 5 -6 8 -3 8 8 0 14 -5 16 -27 11
-22 -6 -25 -4 -20 10 5 13 2 15 -18 10 -27 -7 -35 12 -15 32 7 7 6 11 -4 11
-8 0 -13 -3 -11 -7 2 -3 -1 -12 -6 -20 -8 -13 -10 -13 -19 0 -6 10 -10 11 -10
3 0 -7 -5 -13 -11 -13 -5 0 -8 4 -5 9 3 5 -1 12 -10 15 -22 8 -26 8 -19 -4 4
-6 -1 -7 -11 -3 -13 5 -15 3 -9 -7 6 -9 4 -11 -5 -5 -10 6 -8 13 10 27 25 20
35 48 18 48 -6 0 -7 -7 -4 -16 5 -13 1 -15 -18 -10 -14 3 -28 2 -31 -4 -4 -6
1 -7 12 -3 14 5 16 3 6 -7 -6 -7 -19 -10 -28 -6 -15 5 -15 9 -4 23 12 14 12
16 -1 9 -8 -4 -6 0 4 8 19 16 19 16 -3 16 -12 0 -29 7 -37 15 -15 15 -44 10
-44 -7 0 -6 7 -7 16 -4 19 7 47 -12 38 -25 -3 -5 0 -9 6 -9 6 0 8 -5 4 -11 -4
-8 -9 -7 -15 2 -4 7 -22 20 -40 28 -41 20 -50 56 -12 46 22 -5 24 -4 15 7 -8
11 -7 14 6 15 9 1 27 4 40 8 18 6 21 4 16 -9 -4 -11 -13 -15 -26 -10 -14 4
-18 2 -14 -5 4 -6 15 -11 25 -11 9 0 22 -5 27 -10 6 -6 27 -11 47 -12 20 -1
35 -6 34 -12 -1 -6 4 -10 12 -8 12 3 12 0 1 -12 -10 -13 -10 -16 4 -16 11 0
14 -5 10 -12 -4 -7 -3 -8 5 -4 9 6 9 11 0 22 -6 8 -8 14 -4 14 4 0 2 7 -5 15
-7 8 -9 15 -5 15 4 0 2 7 -5 15 -11 13 -8 14 17 11 17 -1 36 -6 44 -10 8 -4 5
0 -6 8 -10 9 -24 15 -30 13 -5 -2 -15 3 -22 12 -11 14 -13 14 -14 -4 -1 -11
-1 -23 0 -27 0 -5 -6 -8 -14 -8 -13 0 -14 4 -5 20 6 11 7 20 2 20 -14 0 -33
-26 -25 -33 3 -4 0 -7 -8 -7 -18 0 -39 19 -39 34 0 6 7 3 15 -7 13 -18 14 -18
24 1 6 12 21 23 33 25 l23 4 -22 2 c-13 0 -23 6 -23 12 0 5 -4 8 -10 4 -5 -3
-7 -12 -4 -19 8 -22 -9 -25 -28 -4 -17 17 -17 18 1 18 11 0 22 4 25 9 6 10 61
-13 71 -29 3 -5 19 -11 35 -15 28 -6 57 -39 52 -58 -1 -5 2 -6 8 -2 7 5 8 11
1 19 -8 9 3 12 44 11 29 0 51 -3 48 -8 -2 -4 -9 -4 -15 -1 -7 4 -8 2 -4 -4 4
-7 24 -12 44 -12 26 0 33 -3 22 -9 -8 -6 -18 -7 -24 -4 -5 4 -6 1 -1 -6 4 -7
15 -11 25 -8 11 3 17 -1 16 -11 0 -8 6 -17 14 -19 11 -3 12 -2 2 5 -20 13 -3
42 25 42 13 0 22 -4 18 -9 -9 -16 15 -24 31 -10 11 9 18 9 26 1 9 -9 8 -12 -2
-13 -8 -1 -4 -4 10 -8 14 -4 31 -3 38 2 9 7 11 6 6 -6 -5 -14 -1 -15 26 -7 25
7 37 6 54 -7 19 -14 19 -15 1 -9 -11 4 -16 4 -12 0 4 -4 2 -13 -5 -21 -6 -7
-8 -16 -5 -20 4 -3 1 -13 -5 -22 -7 -9 -8 -13 -4 -9 5 4 15 3 22 -3 14 -11 14
6 1 29 -9 13 -1 32 13 32 5 0 7 -8 4 -17 -5 -14 -4 -15 4 -4 6 8 15 10 23 5
11 -6 12 -5 3 7 -9 11 -8 17 4 29 14 13 15 12 9 -4 -6 -16 -3 -18 32 -14 25 2
37 -1 34 -8 -2 -6 3 -11 11 -11 8 0 13 4 10 9 -7 10 33 5 43 -7 5 -4 2 -5 -4
-1 -7 4 -13 2 -13 -3 0 -6 10 -11 21 -11 18 0 19 -2 9 -15 -19 -22 -8 -26 24
-10 33 17 46 19 46 5 0 -5 -6 -7 -13 -4 -8 3 -13 -5 -14 -23 0 -16 1 -21 4
-12 2 9 18 20 36 25 45 10 52 10 52 -1 0 -16 15 -35 28 -35 8 0 8 3 2 8 -5 4
-11 16 -13 27 -2 18 -1 18 8 3 6 -10 19 -15 31 -13 17 3 19 2 9 -10 -10 -12
-7 -13 17 -7 15 5 34 7 41 6 6 -1 17 -2 23 -3 8 -1 8 -6 -1 -16 -7 -9 -10 -18
-6 -22 3 -3 6 -1 6 6 0 7 5 9 10 6 6 -3 10 1 10 10 0 9 4 13 10 10 6 -3 10 -1
10 6 0 7 3 9 6 6 4 -4 1 -13 -6 -22 -11 -13 -10 -14 4 -9 10 4 16 1 16 -7 0
-11 2 -11 10 1 10 17 50 23 50 8 0 -5 -9 -6 -20 -3 -11 4 -20 2 -20 -4 0 -6
12 -11 28 -11 22 0 24 -2 12 -11 -12 -9 -11 -10 7 -6 12 3 24 0 27 -7 3 -7 5
-7 5 2 1 6 6 12 12 12 5 0 8 -4 4 -9 -9 -15 8 -20 33 -10 13 5 21 13 17 19 -3
6 1 7 10 4 12 -5 13 -9 4 -20 -9 -11 -7 -14 10 -14 12 0 20 4 17 9 -4 5 3 7
13 4 12 -3 17 -11 14 -19 -3 -8 -9 -11 -14 -8 -5 3 -9 2 -9 -1 0 -3 14 -11 30
-16 17 -6 30 -15 30 -21 0 -5 -4 -7 -8 -4 -10 6 -9 -25 2 -42 4 -6 23 -12 42
-12 19 0 34 -4 34 -10 0 -5 7 -10 16 -10 9 0 28 -6 42 -14 15 -8 47 -22 72
-31 25 -9 57 -23 72 -31 38 -20 52 -17 65 14 7 15 22 43 33 62 18 30 21 47 17
115 -4 100 -26 147 -78 177 -27 15 -35 24 -27 30 9 5 8 8 -5 8 -11 0 -21 9
-24 20 -4 15 -9 18 -18 10 -17 -14 -60 -6 -60 10 0 7 -6 15 -14 18 -8 3 -11 0
-7 -6 3 -6 2 -14 -4 -17 -6 -4 -10 -3 -9 2 1 4 1 10 -1 13 -14 37 -8 45 28 44
33 -1 33 -1 5 3 -18 2 -33 8 -33 14 0 5 -12 9 -26 9 -17 0 -23 4 -18 12 5 8 2
9 -11 4 -15 -5 -16 -4 -6 8 9 11 9 16 0 22 -8 4 -9 3 -5 -4 9 -14 -32 -16 -53
-3 -9 6 -22 6 -33 0 -13 -7 -18 -6 -16 2 2 6 -4 13 -12 15 -8 1 -37 15 -65 29
-27 15 -41 24 -31 20 16 -5 17 -3 6 10 -7 9 -15 14 -17 11 -2 -2 -17 10 -34
26 -18 18 -35 28 -45 24 -8 -3 -13 -2 -10 2 6 10 -29 42 -47 42 -9 0 -8 3 1 9
11 7 11 9 -2 14 -9 4 -16 13 -16 21 0 13 -22 28 -45 30 -18 2 -11 39 8 42 42
6 50 13 36 31 -12 15 -12 16 3 10 10 -3 20 -3 22 2 3 4 21 8 41 9 26 1 34 -2
29 -11 -4 -7 -3 -8 2 -4 5 5 9 14 9 20 1 7 6 11 13 10 6 -2 9 4 6 12 -4 9 -1
22 5 29 10 11 8 16 -10 21 -17 6 -19 9 -8 16 12 7 11 9 -1 10 -8 1 -22 1 -30
0 -9 -1 -11 1 -5 6 12 10 13 39 1 50 -5 5 -6 2 -1 -7 5 -8 5 -12 0 -8 -4 4
-13 3 -20 -2 -8 -7 -12 -5 -12 5 0 8 3 12 6 10 4 -2 15 3 26 11 18 13 9 20
-20 14 -5 -1 -1 8 9 19 11 12 24 21 29 21 6 0 2 -7 -9 -15 -18 -13 -18 -14 6
-9 46 10 51 14 43 26 -13 22 -12 38 2 38 8 0 17 5 21 12 4 6 3 8 -4 4 -6 -3
-13 -2 -16 2 -3 5 6 14 19 20 28 13 33 32 9 32 -8 0 -13 4 -9 10 3 5 13 7 23
4 13 -5 14 -4 3 4 -7 5 -11 14 -7 20 3 6 -4 18 -16 27 -13 8 -22 19 -20 23 1
4 -6 7 -15 7 -10 0 -24 7 -31 15 -10 13 -11 13 -6 -2 4 -12 0 -16 -15 -15 -15
1 -17 4 -9 14 8 10 4 13 -16 13 -15 0 -24 4 -21 10 3 5 -5 12 -19 16 -24 6
-28 18 -12 43 6 10 5 12 -2 7 -7 -4 -12 -4 -12 1 0 4 -12 9 -27 10 -18 1 -22
-2 -12 -7 7 -5 10 -12 6 -16 -4 -5 -17 2 -30 14 l-21 22 34 1 c19 1 40 1 47 0
6 -1 29 3 51 8 28 6 44 5 53 -3 11 -9 11 -8 1 5 -10 13 -20 15 -49 9 -24 -6
-32 -5 -25 2 5 5 31 11 57 13 26 1 51 9 56 16 7 11 9 11 9 1 0 -7 -7 -15 -15
-18 -26 -10 -16 -19 23 -21 29 -1 33 1 17 8 -18 8 -18 9 5 8 41 -2 51 1 46 10
-3 5 2 15 12 22 15 13 16 12 3 -3 -12 -16 -11 -18 10 -19 13 0 32 -2 42 -4 12
-2 17 1 13 10 -3 10 0 12 11 8 11 -4 14 -3 9 5 -10 17 16 24 45 12 21 -9 20
-9 -10 -4 -23 4 -31 3 -27 -5 4 -6 20 -11 36 -11 26 0 28 2 25 38 -2 22 -7 36
-15 34 -20 -5 -1 16 30 32 16 8 32 11 35 6 3 -5 -9 -11 -25 -15 -26 -6 -29 -9
-19 -21 10 -12 14 -12 20 -2 7 11 9 11 9 0 0 -7 5 -10 10 -7 6 4 8 11 5 16 -9
13 9 11 23 -3 9 -10 15 -8 27 5 8 9 10 12 3 7 -19 -16 -25 -12 -42 22 -9 17
-13 29 -10 25 4 -3 15 -2 25 3 12 7 20 6 25 -2 4 -6 3 -8 -2 -5 -6 3 -16 1
-24 -5 -12 -8 -12 -9 3 -4 10 3 17 0 17 -7 1 -8 5 -7 13 3 15 19 52 27 41 9
-4 -7 -3 -10 4 -5 6 3 13 2 17 -3 10 -17 36 0 30 20 -5 14 0 18 27 21 18 2 32
8 31 14 -1 6 8 9 21 7 31 -6 45 16 21 34 -11 7 -15 13 -9 13 5 0 20 -9 33 -19
20 -15 30 -17 48 -8 12 5 21 13 18 16 -2 4 9 6 25 5 25 -2 29 1 28 21 -2 15
-7 21 -16 17 -10 -3 -11 -7 -2 -12 8 -5 7 -9 -4 -13 -9 -4 -15 -1 -13 6 1 7
-5 11 -13 9 -11 -2 -11 1 3 11 25 20 23 50 -3 42 -13 -4 -20 -2 -20 6 0 7 3 9
6 6 4 -3 16 -2 27 4 14 8 18 8 13 0 -4 -6 -3 -11 3 -11 5 0 12 4 15 9 8 12
-20 22 -41 14 -11 -4 -14 -3 -9 5 4 7 1 12 -7 12 -18 0 -33 33 -18 38 6 2 11
9 11 15 0 7 -14 -3 -30 -21 -37 -42 -78 -36 -71 10 0 4 -6 5 -15 1 -12 -4 -13
-8 -3 -13 7 -5 9 -15 4 -26 -8 -17 -9 -17 -13 4 -3 19 -6 21 -18 11 -8 -6 -17
-9 -21 -5 -3 3 -1 6 6 6 7 0 9 5 5 12 -4 6 -3 8 3 5 6 -4 16 -1 22 7 10 12 6
14 -23 13 -22 -1 -31 -4 -23 -9 8 -5 7 -8 -5 -8 -10 0 -18 5 -18 11 0 7 -11 9
-27 6 -26 -5 -26 -4 -8 9 18 13 18 14 -6 14 -19 0 -21 2 -9 10 14 9 7 15 -14
11 -5 -1 -1 11 9 26 14 21 15 25 3 15 -13 -10 -17 -10 -22 4 -3 9 -4 20 -1 24
3 5 0 12 -6 16 -7 4 -9 3 -5 -4 3 -6 -2 -15 -11 -21 -11 -6 -13 -11 -5 -11 7
0 10 -5 7 -10 -4 -6 -3 -10 2 -9 23 4 25 -3 5 -17 -25 -18 -49 -10 -32 11 8
10 3 19 -22 40 -19 16 -34 23 -36 16 -2 -6 -8 -11 -14 -11 -6 0 -4 7 3 17 13
15 11 16 -16 9 -29 -7 -29 -7 -10 8 11 9 14 16 8 16 -7 0 -13 5 -13 12 0 6 8
4 19 -6 11 -10 21 -13 25 -7 4 5 2 12 -4 16 -5 3 -10 3 -10 -1 0 -3 -7 -1 -15
6 -8 7 -35 13 -60 14 -25 1 -48 5 -51 9 -4 4 -19 7 -33 7 -20 0 -22 3 -12 9 9
6 22 6 32 0 28 -14 76 -11 83 6 4 13 2 13 -14 5 -24 -13 -43 -13 -35 0 3 6 -1
7 -9 4 -10 -4 -16 -1 -16 7 0 12 -2 12 -9 1 -11 -18 -20 -17 -35 3 -9 12 -21
15 -45 12 -26 -5 -31 -3 -27 10 5 11 2 13 -9 9 -9 -3 -13 -2 -10 4 3 6 -2 10
-12 11 -16 0 -16 1 2 9 11 5 27 9 35 9 13 0 13 -1 0 -7 -25 -11 10 -41 36 -31
10 4 14 8 8 8 -7 1 -15 8 -18 17 -4 10 -2 13 6 7 18 -10 48 -11 48 -1 0 4 -1
8 -2 8 -46 9 -111 9 -126 1 -14 -7 -19 -7 -19 4 0 8 4 12 8 9 4 -2 10 0 13 5
8 12 -13 8 -41 -7 -12 -7 -28 -12 -35 -11 -7 0 -4 5 7 10 17 8 15 9 -11 6 -23
-2 -35 2 -45 17 -37 58 -7 113 56 103 21 -3 33 -2 30 4 -4 5 3 9 14 9 11 0 23
-4 26 -10 9 -14 28 -12 22 3 -3 7 5 13 20 13 24 2 24 1 -7 -26 -24 -21 -27
-28 -13 -27 10 1 17 -4 15 -10 -1 -7 2 -13 8 -13 14 0 13 13 -2 28 -14 14 -14
14 27 16 19 1 29 7 27 15 -1 7 2 10 8 6 5 -3 13 1 16 9 3 9 11 13 16 10 6 -4
5 -10 -3 -15 -11 -7 -10 -9 4 -9 9 0 17 7 17 15 0 8 5 15 11 15 6 0 9 -7 6
-15 -4 -8 -2 -17 3 -20 6 -4 10 -1 10 6 0 8 4 8 13 2 6 -6 20 -10 29 -10 13 0
15 4 7 19 -10 19 -3 25 31 29 28 3 40 -1 40 -12 0 -8 -6 -7 -17 2 -15 13 -15
12 -3 -8 14 -21 14 -21 28 -2 7 10 18 19 24 19 6 0 5 -7 -3 -17 -13 -16 -12
-17 3 -5 9 8 22 11 28 7 5 -3 10 -2 10 4 0 5 -6 12 -12 15 -7 3 -4 4 7 3 11
-1 23 -6 27 -12 5 -6 8 -6 8 1 0 18 29 25 50 12 15 -10 22 -10 32 0 11 11 9
12 -7 7 -15 -5 -17 -4 -6 3 8 6 20 8 28 5 7 -3 13 0 13 6 0 6 -6 11 -12 11 -7
0 -2 7 10 16 12 8 26 13 31 10 10 -7 9 -31 -2 -42 -3 -4 -5 3 -2 14 3 15 0 19
-12 15 -12 -5 -12 -7 -1 -14 7 -5 9 -9 4 -9 -5 0 -3 -6 3 -13 6 -8 8 -16 5
-20 -3 -3 3 -3 15 0 12 3 21 9 21 14 0 5 -8 6 -17 2 -10 -3 -15 -3 -11 1 6 7
30 14 56 15 7 1 10 6 7 11 -3 5 -2 10 4 10 5 0 12 -4 16 -10 3 -5 13 -6 22 -3
10 4 14 2 10 -4 -6 -10 11 -22 40 -29 8 -1 9 5 3 22 -6 15 -6 24 0 24 6 0 10
-5 10 -12 0 -7 5 -6 13 4 6 8 21 21 32 27 19 12 19 12 -1 6 -14 -4 -24 0 -27
10 -4 9 -13 12 -24 8 -16 -6 -17 -5 -3 13 13 17 13 18 0 7 -10 -8 -21 -9 -30
-3 -13 8 -12 10 3 10 9 0 17 7 17 15 0 12 -3 12 -20 -2 -20 -18 -29 -49 -10
-38 6 4 17 1 25 -5 8 -6 18 -9 24 -6 5 3 11 -1 15 -9 6 -18 -3 -19 -40 -5 -15
6 -29 8 -32 5 -3 -2 6 -9 19 -14 21 -8 20 -9 -13 -8 -21 1 -34 5 -31 11 3 5 1
6 -5 2 -6 -3 -14 -1 -18 6 -4 7 -4 10 1 6 4 -4 15 -2 23 4 12 10 9 14 -19 25
l-34 13 33 -5 c17 -2 32 0 32 5 0 6 -10 10 -21 10 -12 0 -27 7 -34 17 -7 9
-17 13 -25 8 -9 -6 -9 -9 0 -15 8 -5 6 -9 -6 -14 -10 -4 -15 -4 -11 0 4 4 2
13 -4 21 -9 10 -8 13 5 13 11 0 14 5 10 12 -4 7 -3 8 4 4 7 -4 12 -2 12 4 0 7
12 9 29 7 20 -3 31 0 35 9 4 11 1 12 -12 6 -9 -4 -36 -8 -60 -7 -31 1 -41 -2
-38 -11 3 -8 -1 -11 -10 -7 -7 3 -14 0 -14 -6 0 -6 5 -11 11 -11 6 0 9 -7 5
-15 -3 -8 0 -15 6 -15 7 0 6 -5 -2 -15 -11 -13 -15 -13 -21 -3 -5 7 -4 17 1
22 6 6 2 16 -9 25 -10 9 -21 25 -23 36 -2 11 -10 18 -19 16 -8 -2 -31 -5 -52
-7 l-38 -2 28 26 c15 15 31 26 34 25 3 -1 6 5 6 14 0 12 -7 8 -24 -12 -23 -26
-93 -52 -93 -34 0 5 8 9 18 9 10 0 27 7 38 16 10 8 13 12 5 8 -17 -9 -74 -14
-66 -5 7 6 12 7 41 10 9 0 12 6 8 12 -5 8 1 10 19 7 19 -4 24 -1 20 9 -3 9
-12 11 -22 8 -42 -17 -71 -23 -76 -14 -7 10 -1 12 30 10 11 0 14 2 8 5 -40 18
15 26 62 9 17 -6 18 -5 5 7 -8 7 -16 20 -18 28 -2 13 -1 13 10 0 18 -22 64
-20 64 3 0 19 -16 24 -16 5 0 -7 -5 -5 -11 4 -7 13 -19 17 -47 14 -20 -3 -29
-2 -19 0 9 3 17 10 17 15 0 6 9 8 20 4 15 -5 18 -2 15 14 -2 12 0 21 5 21 5 0
10 -10 12 -22 2 -12 10 -23 18 -25 13 -4 13 -3 1 5 -11 8 -10 11 8 14 21 3 21
4 6 23 -9 11 -14 14 -10 8 3 -7 2 -13 -4 -13 -5 0 -11 10 -13 22 -2 12 -10 24
-18 26 -13 5 -13 3 0 -13 14 -17 13 -18 -2 -12 -9 3 -19 1 -22 -6 -2 -7 -4 -1
-3 12 1 13 -4 26 -10 28 -7 3 -13 0 -13 -7 0 -6 4 -8 10 -5 13 8 13 -5 0 -25
-8 -13 -10 -12 -10 3 0 9 -6 17 -12 17 -7 1 -3 9 9 19 17 14 19 21 10 31 -9
10 -9 12 4 7 9 -3 16 0 17 6 10 69 10 91 2 77 -6 -9 -10 -10 -10 -3 0 7 -7 10
-17 7 -17 -5 -17 -5 0 6 22 14 13 30 -18 30 -13 0 -26 4 -29 9 -9 13 47 0 66
-17 16 -13 17 -13 13 7 -3 15 0 21 8 18 7 -3 11 -10 9 -16 -1 -7 2 -10 8 -6
23 14 -11 35 -49 30 -20 -2 -30 -2 -23 1 10 5 10 10 -4 25 -9 10 -20 16 -25
14 -4 -3 -11 0 -15 6 -4 7 -3 9 4 5 6 -3 13 -2 17 3 3 6 -4 15 -16 21 -13 7
-19 8 -15 2 3 -6 1 -14 -5 -18 -8 -5 -9 -3 -4 6 6 10 4 12 -10 6 -16 -6 -16
-4 -4 11 12 15 12 16 -3 10 -10 -3 -20 -1 -24 5 -4 7 -3 8 4 4 7 -4 12 -3 12
2 0 4 -16 14 -35 22 -19 8 -35 17 -35 22 0 4 -3 7 -7 7 -25 -4 -57 2 -46 9 8
5 9 12 2 22 -7 12 -11 12 -17 2 -6 -9 -14 -6 -29 12 -15 18 -28 23 -44 19 -14
-4 -20 -2 -15 5 3 6 2 13 -3 17 -6 3 -8 -3 -6 -15 6 -31 -13 -34 -20 -2 -6 28
-16 32 -92 36 -11 1 -19 5 -16 10 3 4 -9 5 -26 1 -17 -4 -31 -3 -31 3 0 5 -12
9 -27 8 -22 -1 -29 4 -31 21 -3 22 -3 22 -24 3 -16 -15 -25 -17 -35 -9 -7 6
-13 17 -13 23 0 6 5 3 11 -6 8 -15 13 -15 23 -5 14 12 11 31 -4 22 -7 -5 -24
32 -21 48 1 5 -3 6 -9 2 -5 -3 -10 -2 -10 4 0 6 -8 7 -17 4 -16 -6 -16 -5 -4
10 12 15 12 17 -1 12 -17 -7 -63 39 -53 54 4 7 -5 11 -22 12 -15 1 -21 3 -11
6 9 2 16 13 15 24 -1 12 -6 18 -16 14 -11 -4 -11 -3 -2 9 11 13 9 14 -12 11
-16 -3 -30 2 -43 16 -22 24 -22 24 8 50 22 20 21 20 -9 0 -32 -22 -58 -12 -34
12 9 9 11 7 5 -8 -6 -17 -5 -18 7 -5 8 8 20 20 27 26 10 8 10 11 -3 11 -8 0
-15 -5 -15 -10 0 -5 -8 -3 -17 4 -11 10 -14 10 -9 2 4 -7 3 -13 -3 -13 -5 0
-13 4 -16 10 -4 6 -1138 10 -3311 10 l-3304 0 0 -2065z m5868 -585 c-26 -22
-21 -25 17 -10 14 5 23 14 20 20 -3 5 -1 10 4 10 6 0 11 -5 11 -10 0 -6 11 -8
25 -6 14 3 23 1 20 -4 -3 -5 4 -11 15 -15 17 -5 18 -9 8 -28 -16 -29 -18 -47
-7 -47 6 0 9 8 7 18 -2 9 2 16 9 15 7 -2 10 4 7 12 -8 21 12 19 35 -4 11 -11
22 -17 25 -13 3 3 6 0 6 -7 0 -7 4 -10 9 -6 5 3 12 1 16 -5 9 -15 28 -12 19 3
-4 6 6 -1 23 -17 30 -29 63 -42 63 -25 0 12 82 -21 96 -39 8 -11 13 -12 18 -4
4 7 21 12 37 12 20 0 28 -4 23 -11 -5 -8 1 -10 20 -7 21 4 24 3 15 -8 -5 -7
-19 -11 -30 -9 -11 2 -17 0 -14 -6 4 -5 10 -7 15 -4 5 3 13 -2 18 -11 6 -11
17 -15 33 -11 13 3 34 8 47 11 12 3 20 1 17 -4 -3 -5 -1 -11 4 -14 5 -3 12 1
15 10 6 15 8 15 27 -2 11 -10 18 -23 15 -29 -2 -7 2 -12 9 -12 7 0 11 6 8 14
-3 7 -1 13 3 13 14 -1 45 -27 43 -36 -3 -21 2 -26 15 -15 12 10 14 9 11 -6 -1
-10 -8 -17 -15 -15 -6 1 -9 -2 -5 -8 4 -6 -9 -9 -34 -8 -30 1 -41 5 -41 17 0
14 2 14 10 1 7 -12 9 -11 8 5 -2 17 -8 20 -40 17 -22 -3 -35 -8 -32 -14 4 -6
-1 -6 -13 1 -11 5 -35 13 -54 17 -19 3 -38 7 -44 8 -5 1 -20 8 -33 14 -12 7
-27 10 -32 7 -6 -3 -10 -2 -10 4 0 7 -8 7 -25 1 -16 -6 -25 -6 -25 0 0 6 -9
10 -20 10 -11 0 -19 5 -17 10 1 6 -13 17 -30 25 -20 9 -33 10 -33 4 0 -6 -7
-3 -16 6 -14 13 -19 14 -25 3 -7 -10 -9 -10 -9 3 0 8 -20 25 -46 37 -25 12
-43 26 -40 31 3 4 -5 7 -17 6 -12 0 -34 6 -50 14 l-27 16 21 16 c17 12 19 18
9 24 -8 5 -11 4 -7 -2 4 -6 0 -14 -9 -17 -23 -9 -36 -7 -29 4 3 6 1 10 -5 10
-6 0 -9 4 -6 9 3 4 -6 7 -20 5 -34 -3 -51 3 -51 20 0 8 7 12 15 8 9 -3 13 -1
9 4 -3 6 3 11 14 11 18 2 18 0 -3 -17z m-193 -379 c-3 -2 3 -10 13 -17 12 -9
21 -9 30 -2 7 6 16 8 19 4 4 -4 1 -11 -7 -16 -13 -8 -13 -10 1 -10 8 0 21 6
28 13 11 10 12 9 6 -2 -6 -11 -4 -13 8 -8 16 6 32 -18 21 -34 -3 -5 -2 -18 1
-30 5 -15 12 -18 27 -13 14 4 18 2 14 -5 -4 -6 -3 -11 3 -11 5 0 12 4 16 9 3
5 18 8 33 7 18 -2 29 2 34 13 6 14 7 14 7 -1 1 -19 -25 -48 -42 -48 -8 0 -8 3
1 9 11 7 10 10 -3 15 -21 8 -38 -2 -29 -16 5 -7 2 -8 -6 -3 -10 6 -12 4 -7 -9
6 -14 4 -15 -16 -5 -29 15 -37 24 -14 16 9 -4 17 -2 17 3 0 12 -20 13 -39 1
-12 -8 -10 -12 10 -21 24 -11 38 -45 15 -37 -6 3 -10 10 -8 16 1 6 -7 11 -18
11 -11 0 -20 5 -20 11 0 5 -5 7 -10 4 -6 -4 -8 -10 -5 -15 8 -13 -27 -22 -39
-10 -8 8 -6 9 8 4 13 -5 17 -4 12 4 -4 7 -1 12 6 13 7 0 4 4 -7 9 -29 12 -37
12 -29 -2 6 -9 3 -9 -9 0 -17 14 -41 7 -31 -9 3 -5 10 -7 15 -4 5 4 9 1 9 -4
0 -15 -11 -13 -33 4 -18 13 -17 14 10 28 23 12 33 13 58 2 31 -13 65 -4 65 16
0 6 -6 7 -12 2 -7 -4 -19 -8 -26 -9 -10 -2 -10 1 -1 12 6 7 15 11 20 8 5 -3 9
0 9 5 0 12 -23 15 -33 4 -16 -15 -56 -7 -73 14 -9 12 -21 20 -27 16 -6 -3 -7
-1 -3 6 4 6 13 8 19 4 14 -8 75 -8 84 1 4 3 -2 6 -13 7 -40 2 -64 6 -71 12 -3
4 -1 7 6 7 7 0 3 8 -9 18 -21 17 -21 18 -1 18 11 0 18 -2 16 -5z m-484 -528
c1 -10 1 -29 1 -43 -2 -48 9 -90 23 -90 9 0 15 -22 20 -77 8 -91 13 -114 14
-60 1 34 15 53 20 25 12 -81 12 -161 0 -169 -12 -8 -12 -10 -1 -18 12 -7 11
-11 -1 -22 -13 -12 -12 -15 2 -27 9 -7 10 -11 4 -7 -8 4 -13 0 -13 -10 0 -9
-4 -13 -10 -10 -9 6 -9 39 1 49 7 7 -2 86 -10 86 -7 0 -31 -64 -35 -94 -1 -10
-9 -22 -17 -26 -29 -16 -40 5 -40 73 0 50 -4 67 -14 67 -20 0 -30 -21 -14 -31
8 -5 10 -9 4 -9 -14 0 -30 13 -32 25 -1 6 -4 17 -7 25 -3 8 -2 22 4 30 7 12
13 11 34 -9 14 -14 28 -22 32 -19 6 7 14 154 14 276 0 47 5 82 10 82 6 0 11
-8 11 -17z"/>
<path d="M17573 11056 c0 -8 5 -12 10 -9 6 3 7 1 4 -4 -9 -14 -59 -14 -76 1
-12 8 -13 8 -7 -1 4 -8 2 -13 -4 -13 -7 0 -10 -6 -7 -14 4 -9 -2 -12 -18 -10
-15 1 -22 -2 -19 -10 3 -7 -3 -19 -13 -27 -16 -13 -17 -12 -5 3 12 15 11 17
-15 14 -15 -1 -27 -7 -26 -13 1 -6 -5 -17 -15 -25 -15 -12 -16 -11 -3 5 10 13
11 17 1 17 -7 0 -19 -8 -27 -17 -7 -10 -13 -13 -12 -8 4 30 -2 28 -51 -17 -10
-9 -21 -14 -23 -11 -3 3 -14 0 -24 -6 -17 -10 -17 -10 2 -11 12 -1 15 -4 7 -7
-7 -3 -23 3 -34 13 -12 11 -18 13 -14 7 5 -9 -1 -13 -18 -14 -14 -1 -30 -3
-36 -4 -5 -1 -14 -3 -20 -4 -5 0 -10 -9 -11 -18 0 -15 -2 -15 -7 -3 -8 18 -33
25 -30 8 2 -6 -6 -13 -17 -15 -17 -4 -18 -2 -5 7 13 10 12 11 -3 6 -10 -3 -28
-6 -40 -7 -21 0 -21 -1 -2 -10 16 -7 14 -8 -15 -8 -19 1 -39 0 -45 -1 -5 -1
-14 -2 -18 -1 -10 2 -38 -25 -32 -31 2 -2 -8 -5 -23 -6 -21 -1 -24 0 -12 8 10
6 11 10 3 10 -7 0 -18 -9 -25 -20 -7 -11 -16 -20 -21 -20 -4 0 -5 5 -2 10 3 6
1 10 -4 10 -6 0 -11 -7 -11 -16 0 -8 -4 -13 -9 -10 -5 3 -11 -4 -14 -15 -5
-18 -11 -21 -39 -15 -18 3 -40 1 -48 -5 -12 -8 -11 -9 6 -4 13 3 26 0 33 -9
11 -13 9 -15 -9 -11 -12 2 -28 -2 -36 -9 -7 -8 -23 -12 -34 -9 -14 4 -20 0
-20 -11 0 -10 -9 -16 -25 -16 -14 0 -25 5 -25 11 0 5 -5 7 -10 4 -6 -4 -7 -13
-1 -23 7 -14 5 -18 -9 -18 -10 0 -16 4 -14 8 3 4 -4 8 -15 8 -12 0 -21 -5 -21
-10 0 -6 -9 -20 -20 -32 -11 -12 -20 -18 -20 -13 0 5 -6 0 -14 -10 -12 -17
-12 -21 2 -31 12 -9 12 -13 2 -19 -9 -5 -11 -4 -6 3 8 13 -7 14 -44 2 -14 -4
-19 -8 -12 -9 6 -1 12 -8 12 -17 0 -8 4 -13 9 -9 5 3 12 1 15 -4 7 -10 -20 -9
-30 2 -15 15 -26 6 -13 -10 12 -15 12 -16 -3 -10 -10 3 -18 2 -18 -4 0 -6 -4
-7 -10 -4 -6 4 -7 -1 -3 -12 6 -16 5 -17 -12 -3 -11 9 -16 10 -11 3 7 -12 -11
-18 -37 -14 -5 1 -6 -3 -2 -8 3 -6 13 -7 23 -4 15 6 16 5 2 -12 -14 -17 -13
-18 3 -12 11 4 16 3 12 -3 -3 -6 -18 -8 -33 -4 -25 5 -26 4 -9 -10 11 -8 26
-12 35 -9 14 4 15 3 3 -5 -10 -7 -21 -7 -33 -1 -10 6 -23 7 -28 4 -6 -3 -10
-1 -10 5 0 7 -5 6 -14 -2 -8 -7 -11 -15 -7 -18 4 -3 6 -12 6 -20 -1 -8 6 -24
14 -34 14 -16 14 -18 1 -11 -25 15 -62 14 -56 -2 3 -7 1 -13 -5 -13 -6 0 -7
-5 -4 -10 4 -6 12 -7 18 -4 9 5 9 4 0 -6 -6 -7 -9 -18 -6 -25 2 -7 -5 -16 -16
-20 -12 -3 -19 -10 -16 -15 3 -4 -4 -6 -15 -3 -12 3 -20 0 -20 -7 0 -16 -23
-37 -38 -34 -7 1 -8 0 -2 -3 16 -8 12 -26 -5 -20 -20 8 -28 -8 -10 -23 8 -7
13 -15 10 -19 -2 -4 6 -7 18 -6 12 1 22 8 22 16 0 15 20 27 45 28 13 1 13 0 0
-9 -32 -21 57 3 118 32 44 21 75 29 105 28 58 -4 69 -2 62 10 -3 6 4 10 16 10
19 0 20 2 8 17 -13 15 -12 15 9 5 65 -34 58 -33 115 -17 17 4 27 14 27 26 0
13 19 27 66 49 76 34 108 40 49 9 -73 -38 -85 -49 -85 -74 0 -14 -8 -29 -20
-35 -17 -9 -19 -14 -9 -33 7 -12 17 -25 23 -29 13 -9 66 0 84 14 6 6 12 7 12
3 0 -5 8 -1 18 7 9 8 24 18 33 21 10 3 19 23 24 49 5 26 10 36 12 24 4 -13 11
-5 28 30 23 48 23 49 4 56 -11 5 -30 3 -41 -3 -11 -6 -22 -9 -24 -6 -3 2 9 10
25 17 17 7 33 21 36 31 4 10 17 22 31 25 15 4 24 13 24 25 0 10 14 28 30 41
17 12 30 28 30 35 0 7 5 13 11 13 5 0 7 5 3 12 -4 6 -3 8 4 4 6 -3 13 -2 17 4
3 5 15 10 26 10 10 0 29 11 41 25 26 30 48 32 48 5 0 -25 4 -25 57 1 24 11 49
22 55 23 35 6 58 19 52 28 -10 16 18 29 34 16 10 -9 16 -8 23 3 5 8 9 10 9 4
0 -5 5 -3 10 5 8 13 10 13 10 -1 0 -14 7 -15 43 -8 65 13 99 11 91 -3 -4 -7 1
-5 12 4 18 16 21 16 36 2 12 -13 20 -14 34 -5 18 10 17 11 -3 8 -12 -1 -22 2
-22 8 0 5 -8 12 -18 16 -16 7 -16 8 -1 8 9 1 20 -3 23 -9 3 -5 11 -10 17 -10
6 0 3 9 -6 19 -17 19 -17 19 13 15 17 -3 31 -1 31 4 0 6 -6 9 -12 8 -7 0 -14
4 -15 9 -1 6 6 9 16 7 13 -2 21 5 25 21 3 14 16 28 28 32 l23 8 -23 4 c-22 4
-21 7 19 36 23 17 37 33 30 35 -7 2 -18 -4 -25 -13 -8 -11 -21 -15 -37 -12
-23 4 -23 4 3 6 20 1 26 6 23 19 -4 23 34 24 60 2 17 -14 17 -14 4 8 -8 12
-17 22 -21 22 -5 0 -8 5 -8 10 0 6 6 9 13 8 6 -2 12 4 12 12 0 8 3 20 7 25 8
12 -16 47 -26 38 -3 -4 -5 4 -4 17 2 12 -3 24 -10 26 -7 1 -8 0 -2 -3 18 -9
11 -21 -10 -16 -10 3 -19 8 -18 12 2 21 -5 29 -26 27 -13 0 -22 -5 -19 -11 3
-5 0 -5 -7 2 -8 7 -20 9 -35 3 -13 -5 -26 -5 -32 1 -6 6 -10 4 -10 -5z"/>
<path d="M16251 10123 c-6 -7 -23 -13 -37 -13 -14 0 -32 -6 -39 -14 -8 -8 -37
-17 -65 -21 -27 -4 -50 -11 -50 -15 0 -10 -20 -8 -39 4 -10 6 -12 4 -7 -10 7
-22 -36 -48 -52 -32 -7 7 -17 3 -30 -10 -11 -11 -18 -23 -15 -25 2 -3 -9 -8
-26 -12 -17 -4 -29 -11 -25 -16 3 -5 10 -7 15 -4 5 4 9 1 9 -4 0 -10 -16 -15
-47 -14 -7 0 -11 -4 -10 -10 1 -6 -4 -12 -10 -13 -7 -1 -17 -2 -23 -3 -5 0
-10 -7 -10 -15 0 -7 -8 -20 -17 -27 -17 -13 -17 -13 -3 6 14 19 14 19 -2 6
-10 -7 -18 -19 -18 -27 0 -7 -8 -11 -20 -9 -22 4 -27 -10 -7 -19 6 -3 2 -3
-10 -1 -12 3 -24 1 -27 -4 -8 -12 24 -30 42 -24 6 3 12 0 12 -6 0 -7 10 -15
22 -20 14 -5 0 -8 -43 -8 -100 0 -145 -13 -135 -38 4 -12 -31 -33 -43 -26 -2
2 -7 -2 -10 -8 -4 -6 -24 -12 -44 -13 -20 -2 -37 -7 -37 -11 0 -5 -3 -6 -7 -4
-10 6 -34 -19 -26 -27 4 -3 1 -6 -5 -6 -7 0 -11 -5 -9 -11 3 -14 -72 -41 -96
-35 -9 2 -15 0 -11 -5 5 -8 -10 -13 -29 -10 -5 1 -6 -3 -2 -9 3 -5 1 -10 -4
-10 -6 0 -11 -4 -11 -10 0 -17 -43 -61 -80 -81 -19 -11 -51 -29 -70 -41 -19
-11 -48 -22 -65 -23 -40 -2 -75 -14 -75 -26 0 -20 -2 -24 -16 -32 -8 -5 -12
-12 -9 -17 3 -5 1 -11 -5 -15 -6 -4 -7 -11 -4 -17 4 -6 3 -8 -3 -5 -6 4 -27
-2 -47 -12 -20 -11 -32 -21 -27 -23 8 -3 -79 -94 -97 -100 -4 -2 -6 -7 -4 -12
2 -5 -4 -6 -12 -3 -8 3 -20 -2 -28 -11 -11 -13 -11 -14 1 -7 10 5 12 4 7 -4
-4 -6 -11 -9 -16 -6 -5 3 -13 -3 -19 -12 -8 -13 -10 -14 -11 -3 0 11 -2 12
-12 2 -7 -7 -13 -18 -13 -24 0 -6 -12 -12 -27 -12 -15 -1 -33 -8 -40 -15 -11
-11 -10 -13 2 -7 8 4 6 1 -4 -8 -10 -8 -24 -13 -30 -9 -6 3 -8 3 -4 -1 8 -10
-21 -43 -42 -48 -8 -2 -20 -15 -27 -31 -7 -15 -20 -30 -29 -34 -27 -10 -55
-41 -41 -46 7 -2 -2 -10 -18 -18 -17 -8 -34 -24 -40 -37 -5 -12 -18 -25 -29
-28 -15 -5 -16 -8 -5 -15 11 -6 11 -9 1 -9 -7 0 -17 -12 -22 -26 -6 -15 -15
-22 -21 -18 -8 5 -10 -1 -7 -20 3 -14 1 -29 -4 -32 -4 -3 -6 -10 -3 -15 4 -5
-1 -9 -11 -9 -13 0 -14 -3 -4 -15 7 -8 8 -15 3 -15 -4 0 -7 -18 -5 -40 3 -26
0 -40 -8 -40 -6 0 -9 -4 -6 -9 3 -5 0 -14 -8 -20 -11 -9 -15 -9 -19 1 -3 8 -6
6 -6 -6 -1 -11 -6 -16 -15 -13 -8 3 -16 3 -18 -1 -2 -4 -16 -18 -33 -31 -16
-13 -22 -21 -12 -18 15 6 16 3 7 -12 -5 -11 -15 -22 -22 -25 -9 -3 -7 -9 6
-20 11 -9 14 -16 7 -16 -7 0 -10 -4 -7 -8 2 -4 1 -14 -4 -22 -12 -19 7 -41 27
-33 12 5 14 3 8 -7 -5 -8 -2 -18 8 -25 15 -11 15 -13 -2 -29 -18 -17 -18 -19
-3 -35 12 -13 22 -15 35 -9 10 5 22 7 25 3 8 -8 -19 -25 -30 -19 -5 3 -11 -2
-14 -10 -9 -22 -23 -10 -17 14 3 12 0 20 -7 20 -7 0 -10 -7 -6 -15 3 -8 0 -15
-6 -15 -6 0 0 -9 13 -21 14 -12 33 -19 46 -16 13 2 23 0 23 -5 0 -5 5 -6 10
-3 6 4 17 1 25 -5 12 -10 15 -10 15 0 0 8 9 11 25 8 14 -3 25 -2 25 3 0 4 -11
9 -25 11 -26 3 -26 3 -4 16 11 8 18 9 14 3 -3 -6 -1 -11 4 -11 10 0 15 14 12
33 -1 4 8 3 20 -4 17 -9 20 -8 14 1 -6 10 -1 11 21 6 28 -6 28 -6 9 9 -19 15
-19 16 5 13 15 -2 24 2 23 9 -1 7 11 11 32 10 22 -1 42 6 53 17 16 18 16 18
-5 7 -13 -7 -23 -9 -23 -7 0 10 55 33 68 29 7 -3 24 7 37 22 14 14 30 23 35
20 6 -3 10 -1 10 6 0 7 10 9 25 7 13 -3 22 -2 20 2 -8 12 67 80 88 80 10 0 16
4 13 8 -9 15 45 58 117 95 37 20 67 32 67 29 0 -4 4 -1 9 6 4 7 14 14 22 15 8
2 19 5 24 8 76 45 188 100 198 96 6 -2 30 6 52 19 22 12 60 27 85 34 25 7 65
22 90 35 25 12 50 20 56 18 6 -2 17 3 24 12 7 8 20 15 30 15 9 0 29 9 43 20
14 11 33 20 42 20 21 0 67 35 58 44 -3 3 -2 6 4 6 6 0 14 7 17 16 3 8 2 12 -4
9 -6 -3 -10 -1 -10 5 0 7 -7 9 -16 6 -8 -3 -12 -2 -9 3 3 6 -3 15 -12 21 -17
11 -17 11 0 6 9 -3 17 -1 17 4 0 6 -6 10 -12 10 -10 0 -10 2 -1 8 9 6 7 12 -7
22 -16 11 -17 17 -7 29 10 12 9 13 -3 7 -13 -7 -13 -6 0 6 8 7 16 20 18 28 2
8 13 22 24 31 14 11 17 18 10 23 -6 4 -10 25 -9 46 2 32 7 41 27 49 14 5 35
18 47 30 12 12 27 21 32 21 5 0 12 9 16 19 3 11 13 22 21 25 8 3 12 10 9 16
-3 5 -2 10 3 10 5 0 14 18 21 40 12 40 32 56 81 63 9 2 25 11 34 20 10 9 29
17 44 17 35 1 79 25 63 34 -6 4 -11 13 -11 19 0 8 3 8 9 -2 5 -8 11 -9 15 -3
3 5 -1 13 -10 16 -8 3 -12 10 -9 16 3 5 1 10 -6 10 -8 0 -7 5 4 13 10 7 18 29
19 54 2 24 7 43 11 43 4 0 13 13 18 30 6 16 15 27 20 24 5 -3 9 4 9 15 0 16
-8 20 -37 23 -21 2 -37 7 -36 12 3 12 25 17 76 19 27 1 37 6 37 18 0 10 5 19
12 21 13 5 22 48 9 48 -5 0 -15 -9 -22 -20 -10 -14 -21 -18 -37 -14 -19 5 -20
8 -8 18 8 6 16 20 18 30 2 14 17 23 50 32 26 6 65 26 87 43 21 17 46 31 54 31
9 0 19 5 22 10 3 6 17 10 31 10 21 0 24 3 19 23 -5 17 -4 19 4 7 8 -11 11 -12
11 -2 0 7 5 10 10 7 6 -3 10 3 10 15 0 13 -10 24 -27 32 -16 6 -42 17 -60 25
-38 16 -85 14 -102 -4z"/>
<path d="M18112 10009 c-29 -11 -44 -27 -60 -62 -17 -39 -16 -68 3 -61 8 4 15
1 15 -6 0 -6 4 -9 8 -6 4 2 14 1 22 -4 9 -5 24 -4 40 4 14 8 36 19 50 25 16 8
26 21 28 37 1 14 -2 23 -6 20 -5 -3 -9 1 -9 8 0 8 7 12 15 9 8 -3 2 6 -12 21
-28 27 -54 31 -94 15z"/>
<path d="M19174 9852 c-9 -16 -31 -37 -50 -47 -18 -10 -31 -22 -28 -26 3 -5 1
-9 -4 -9 -6 0 -15 -14 -21 -31 -6 -17 -15 -28 -20 -25 -5 4 -12 -3 -16 -14 -4
-11 -11 -18 -16 -15 -5 4 -9 1 -9 -5 0 -6 -5 -8 -11 -4 -7 4 -10 1 -7 -7 2 -7
-14 -31 -36 -52 -33 -31 -38 -40 -26 -47 13 -8 12 -10 -3 -10 -21 0 -56 -33
-77 -73 -12 -25 -12 -29 0 -37 12 -8 12 -10 1 -10 -11 0 -11 -3 -1 -15 11 -13
10 -14 -5 -8 -14 5 -17 3 -12 -9 7 -19 -11 -28 -51 -28 -16 0 -22 3 -15 8 8 5
9 13 3 22 -8 13 -10 12 -10 -2 0 -9 -8 -22 -17 -27 -10 -6 -14 -11 -9 -11 5 0
2 -8 -5 -17 -10 -11 -10 -14 -1 -9 7 4 12 1 12 -9 0 -8 -7 -18 -16 -22 -8 -3
-13 -12 -9 -20 3 -10 1 -13 -9 -10 -10 4 -13 1 -10 -8 3 -8 13 -11 21 -8 12 5
14 3 8 -7 -5 -9 -4 -11 4 -6 6 4 9 11 6 16 -3 4 1 11 7 13 10 4 10 6 1 6 -7 1
-13 6 -13 12 0 5 5 7 10 4 6 -4 10 5 10 19 0 16 6 26 15 26 8 0 15 -5 15 -11
0 -5 -6 -7 -12 -3 -8 4 -10 3 -5 -2 5 -5 24 -9 43 -9 31 0 38 6 35 27 0 4 13
5 31 1 22 -4 29 -3 24 5 -4 7 0 12 11 13 10 0 13 3 6 6 -22 8 -14 23 12 23 26
0 34 -15 13 -23 -8 -3 -5 -6 5 -6 10 -1 15 -5 12 -11 -3 -5 -2 -10 4 -10 5 0
13 5 16 10 9 15 48 13 39 -2 -5 -10 -3 -10 7 0 12 11 12 14 -1 22 -13 8 -12
10 3 10 12 0 16 4 11 13 -6 9 -4 9 7 1 23 -19 63 1 56 28 -4 15 -3 18 5 10 7
-7 17 -4 32 12 11 13 31 28 43 34 21 12 21 18 23 202 0 104 -1 190 -4 190 -3
0 -12 -13 -22 -28z"/>
<path d="M17085 8753 c-11 -3 -38 -11 -60 -19 -22 -9 -41 -12 -43 -6 -1 5 -59
-16 -127 -47 -87 -39 -127 -63 -135 -79 -5 -13 -7 -22 -3 -20 47 22 70 31 146
52 48 14 94 32 103 40 8 9 28 16 43 16 60 0 91 12 97 37 7 28 6 31 -21 26z"/>
<path d="M16571 8595 c-11 -14 -23 -39 -26 -56 -4 -16 -19 -39 -35 -51 -35
-26 -65 -80 -57 -102 4 -10 11 -15 16 -12 26 16 -9 -89 -89 -264 -26 -58 -55
-123 -64 -145 l-17 -40 38 40 c21 22 51 49 66 59 40 28 67 91 56 130 -17 58
-2 101 60 165 47 48 58 67 59 95 1 35 21 65 74 113 24 22 25 27 13 50 -26 50
-63 57 -94 18z"/>
<path d="M19135 8520 c-16 -4 -36 -9 -43 -11 -8 -2 -27 -16 -43 -30 -21 -20
-35 -25 -56 -21 l-28 5 24 -20 c18 -15 20 -20 8 -20 -9 0 -14 4 -11 9 3 4 -2
8 -10 8 -9 0 -16 -7 -16 -15 0 -16 -37 -34 -82 -40 -15 -2 -37 -13 -49 -24
-13 -12 -35 -21 -51 -21 -15 0 -28 -4 -28 -9 0 -5 -7 -12 -16 -15 -10 -4 -13
-2 -8 7 5 8 2 7 -9 -2 -17 -13 -23 -6 -18 22 2 11 -17 9 -24 -3 -3 -5 -1 -10
5 -10 6 0 8 -5 5 -11 -4 -6 -13 -8 -20 -5 -8 3 -16 0 -19 -7 -3 -9 -5 -8 -5 1
-1 7 -5 11 -11 7 -5 -3 -7 -12 -3 -20 3 -10 -1 -15 -15 -15 -11 0 -23 -7 -26
-16 -4 -9 -9 -14 -13 -11 -3 4 -11 -1 -18 -10 -12 -16 -40 -9 -29 8 3 5 10 7
15 4 5 -4 9 -1 9 4 0 6 -4 11 -9 11 -14 0 -29 -24 -26 -43 2 -9 -5 -23 -15
-30 -9 -6 -17 -16 -16 -21 0 -5 -7 -10 -17 -12 -14 -2 -16 1 -7 11 9 11 7 14
-8 12 -14 -1 -18 -6 -14 -22 5 -19 5 -19 -15 -2 -20 18 -21 18 -19 0 1 -14 -5
-17 -24 -15 -20 2 -22 1 -10 -7 12 -9 10 -11 -11 -11 -15 0 -32 7 -39 15 -11
14 -15 13 -28 -6 -12 -17 -16 -18 -24 -8 -6 10 -8 7 -6 -11 2 -14 8 -24 14
-23 5 1 11 -8 11 -19 2 -19 1 -19 -11 -3 -7 10 -17 15 -23 12 -6 -4 -9 6 -8
23 1 17 1 30 0 30 -2 0 -14 -6 -27 -13 -20 -10 -22 -15 -13 -24 7 -7 15 -11
17 -10 2 1 -2 -3 -9 -9 -20 -17 -15 -27 10 -21 l22 6 -24 -20 c-14 -12 -18
-19 -10 -20 8 0 5 -4 -6 -9 -28 -12 -35 -12 -35 1 0 5 4 8 9 5 5 -3 11 3 14
15 4 16 2 19 -16 15 -12 -3 -16 -3 -9 0 7 3 16 14 22 23 8 15 6 17 -15 13 -14
-2 -31 1 -39 7 -10 8 -16 8 -25 -3 -8 -10 -9 -16 -1 -21 6 -3 8 -10 5 -15 -3
-5 -1 -11 5 -15 5 -3 10 -13 10 -21 0 -14 -2 -14 -15 0 -8 8 -15 23 -15 34 0
11 -7 25 -15 32 -13 11 -14 10 -9 -5 6 -14 4 -16 -7 -11 -8 4 -5 0 6 -10 18
-15 18 -16 2 -10 -10 3 -23 6 -28 6 -6 0 -8 4 -4 9 3 5 0 13 -6 17 -8 4 -9 3
-5 -4 8 -13 -5 -16 -20 -4 -5 4 -1 -1 9 -10 23 -22 9 -24 -20 -3 -16 11 -24
12 -29 4 -4 -7 -3 -9 4 -5 6 3 14 1 18 -5 3 -6 0 -15 -7 -20 -8 -5 -10 -9 -5
-9 5 0 3 -7 -4 -15 -7 -9 -19 -14 -27 -11 -11 4 -11 1 -3 -15 6 -11 14 -17 18
-15 5 3 14 1 22 -5 11 -6 12 -9 2 -9 -7 0 -11 -4 -7 -9 3 -5 1 -12 -5 -16 -5
-3 -10 1 -10 10 0 9 -5 13 -10 10 -6 -4 -8 -10 -5 -15 3 -5 1 -11 -4 -14 -5
-3 -11 4 -14 15 -4 15 -11 20 -23 15 -14 -5 -15 -4 -5 8 15 18 -12 48 -37 40
-16 -5 -16 -5 0 9 16 13 16 15 -10 26 -15 7 -24 10 -20 6 4 -4 -3 -16 -16 -26
-26 -20 -41 -25 -31 -10 3 5 1 13 -5 16 -6 4 -9 1 -8 -7 2 -8 -7 -13 -22 -13
-15 0 -25 -6 -25 -15 -1 -8 -6 -14 -11 -13 -6 1 -11 -5 -11 -13 0 -12 3 -11
18 2 10 9 25 14 33 11 9 -4 18 -2 21 3 9 15 43 7 37 -9 -3 -9 -1 -12 6 -7 16
9 15 33 0 38 -8 3 -3 10 12 18 23 12 24 12 12 -3 -11 -13 -10 -17 5 -25 10 -5
23 -7 30 -5 6 2 14 -1 18 -7 4 -7 -4 -9 -27 -5 l-33 5 25 -16 c24 -14 24 -15
3 -11 -13 3 -23 1 -23 -5 0 -5 -4 -7 -8 -4 -5 3 -8 -4 -8 -16 1 -12 -6 -23
-14 -25 -13 -4 -13 -3 0 6 12 9 11 11 -7 11 -13 0 -23 5 -23 10 0 6 -7 10 -16
10 -14 0 -14 -3 -4 -15 7 -9 10 -18 6 -22 -3 -3 -6 0 -6 7 0 11 -3 11 -11 3
-13 -13 -4 -47 10 -39 5 3 12 -1 15 -10 9 -24 7 -31 -4 -14 -8 11 -12 12 -18
3 -5 -8 -13 -9 -22 -3 -11 7 -11 10 -2 10 9 0 10 5 2 19 -13 25 -13 44 0 36
13 -8 13 5 0 25 -8 13 -10 12 -10 -2 0 -10 -5 -18 -11 -18 -6 0 -16 -6 -23
-13 -11 -10 -10 -15 2 -27 14 -13 15 -12 9 3 -3 9 -2 19 3 22 6 4 10 -1 10 -9
0 -27 -4 -31 -30 -31 -17 0 -24 -5 -21 -15 13 -48 9 -68 -15 -73 -20 -3 -23
-1 -19 13 8 24 -9 34 -25 15 -11 -13 -10 -14 4 -9 12 4 15 2 10 -9 -3 -8 0
-18 5 -22 6 -3 9 -11 5 -16 -3 -5 12 2 33 16 21 15 39 22 41 16 2 -6 8 -11 14
-11 7 0 7 4 0 13 -6 7 -8 18 -4 23 11 18 49 26 58 13 4 -7 3 -9 -3 -6 -6 4
-15 -6 -22 -21 -10 -24 -10 -25 2 -9 18 21 41 23 33 1 -3 -9 -2 -12 5 -9 6 4
8 13 5 21 -6 16 10 19 19 4 3 -5 12 -10 18 -10 8 0 7 3 -2 9 -8 5 -10 14 -6
22 6 9 3 11 -8 6 -10 -3 -17 -2 -17 3 0 6 7 10 16 10 9 0 12 5 8 12 -5 7 -3 8
5 3 7 -4 10 -16 8 -27 -3 -11 0 -21 8 -24 8 -3 13 -11 11 -17 -1 -7 2 -2 8 10
10 23 46 39 46 20 0 -7 4 -6 9 3 6 8 7 18 5 22 -3 4 2 8 10 8 19 0 19 -1 6
-37 -9 -26 -9 -27 5 -8 8 11 19 25 25 32 5 7 7 19 4 27 -4 11 0 16 11 16 11 0
15 -5 11 -15 -8 -21 11 -19 24 3 10 15 11 15 6 0 -2 -9 2 -19 10 -22 8 -3 13
-2 10 3 -3 4 1 17 10 27 14 18 15 18 8 -6 -3 -14 -3 -22 1 -18 4 4 15 -2 25
-14 14 -17 17 -18 17 -5 0 10 -4 17 -9 17 -14 0 -9 17 6 23 10 4 13 1 10 -7
-3 -7 3 -19 12 -27 15 -12 16 -12 9 0 -6 11 -1 13 24 9 22 -3 31 -1 31 9 0 9
-7 12 -18 9 -12 -4 -25 2 -38 16 l-19 23 21 -17 c29 -25 41 -22 18 5 -19 22
-19 22 2 5 25 -22 38 -23 31 -4 -3 8 0 17 8 19 8 4 12 -1 10 -11 -4 -24 6 -37
16 -21 7 11 9 10 9 -3 0 -10 4 -18 10 -18 5 0 7 7 4 15 -7 17 11 21 21 5 5 -8
12 -7 23 2 13 11 14 11 10 -2 -2 -8 1 -20 8 -27 17 -17 25 -16 18 1 -3 9 3 17
15 21 13 4 18 11 14 18 -3 7 3 4 14 -6 15 -13 22 -15 25 -6 3 10 6 10 12 1 4
-7 0 -15 -9 -19 -10 -3 -21 0 -25 7 -5 9 -9 9 -14 1 -4 -6 0 -13 8 -16 9 -3
22 -7 29 -9 14 -4 39 19 30 28 -4 3 3 6 15 6 12 0 22 -6 22 -12 0 -10 2 -10 8
-1 4 6 20 14 35 17 20 3 27 1 27 -11 0 -13 3 -13 15 -3 8 7 22 10 30 6 9 -3
25 4 36 15 18 18 25 20 48 9 38 -17 37 -18 40 33 1 15 4 18 10 9 4 -7 14 -12
21 -10 7 2 15 -3 17 -9 3 -7 0 -13 -7 -13 -6 0 -8 -5 -5 -10 4 -6 10 -8 15 -5
4 3 6 -5 4 -17 -2 -13 -2 -17 2 -10 3 6 11 9 16 5 7 -4 9 2 6 15 -7 26 -6 26
32 7 18 -9 31 -11 35 -5 3 6 3 10 -2 10 -4 0 -1 5 7 10 13 8 13 10 -2 10 -9 0
-18 -5 -20 -11 -2 -5 -11 -7 -20 -4 -19 8 -13 35 8 35 8 0 14 5 14 10 0 6 -5
10 -12 10 -6 0 -8 3 -5 6 4 4 13 2 20 -5 11 -9 17 -8 27 5 8 8 22 13 32 11 11
-3 18 0 18 9 0 8 7 17 16 21 9 3 13 12 10 22 -5 14 -5 14 6 1 24 -29 64 -49
79 -39 11 7 9 9 -8 9 -13 0 -23 5 -23 11 0 5 -5 7 -12 3 -6 -4 -8 -3 -5 4 4 5
17 7 30 4 21 -5 21 -5 4 12 -15 15 -16 36 -1 36 3 0 2 -4 -1 -10 -3 -5 0 -10
9 -10 8 0 17 6 19 13 4 9 6 9 6 0 1 -7 8 -10 17 -6 13 5 13 8 2 15 -9 7 -7 8
10 5 17 -4 22 -1 22 14 0 15 5 17 32 12 20 -4 29 -3 25 4 -9 15 29 23 42 10 8
-8 11 -8 11 1 0 12 -13 16 -39 13 -7 -2 -10 2 -6 8 3 6 15 11 26 11 18 0 19 8
19 178 0 167 -6 205 -29 201 -4 -1 -19 -4 -36 -9z"/>
<path d="M17454 8512 c-5 -4 -16 -20 -22 -37 -13 -30 -50 -55 -85 -55 -11 0
-16 5 -12 13 4 6 1 5 -7 -3 -7 -8 -25 -14 -40 -12 -15 2 -37 -2 -49 -8 -15 -8
-19 -9 -15 -1 11 17 -3 13 -40 -10 -19 -11 -39 -17 -46 -13 -13 8 -56 14 -104
14 -63 0 -122 -38 -195 -126 -14 -17 -36 -37 -49 -44 l-24 -13 17 26 c30 46
18 52 -22 13 l-39 -39 -4 29 -4 29 -13 -30 c-45 -109 -76 -165 -90 -165 -14 0
-14 -2 -1 -10 11 -7 11 -10 2 -10 -7 0 -10 -5 -7 -10 4 -6 3 -19 -1 -28 -4 -9
-8 -21 -9 -27 0 -5 -7 -9 -14 -7 -7 1 -9 -2 -6 -8 4 -7 -2 -14 -13 -17 -12 -3
-25 -18 -31 -34 -5 -16 -14 -29 -19 -29 -13 0 -52 -62 -45 -73 2 -4 11 -3 18
3 17 14 53 21 80 14 18 -4 21 -12 19 -47 0 -23 -2 -45 -3 -49 0 -5 -16 -8 -35
-8 -19 0 -38 -5 -41 -10 -4 -6 -13 -7 -23 -1 -21 10 -44 3 -36 -11 4 -6 1 -9
-7 -6 -7 2 -23 -4 -34 -15 -11 -10 -30 -23 -42 -28 -16 -6 -23 -17 -23 -34 0
-14 -4 -25 -10 -25 -5 0 -10 7 -10 15 0 8 -4 15 -8 15 -4 0 -8 12 -7 26 0 21
-6 28 -25 31 -40 7 -44 8 -67 21 -12 7 -23 22 -25 34 -3 20 -7 16 -26 -21 -27
-54 -28 -92 -4 -114 15 -13 47 -18 158 -21 77 -2 146 -1 152 3 6 4 9 17 5 29
-5 20 -10 22 -36 16 -20 -4 -27 -3 -23 5 9 14 53 14 62 0 3 -6 17 -8 30 -5 18
5 24 2 24 -10 0 -12 5 -15 23 -9 26 8 41 9 83 7 37 -2 97 -68 74 -82 -7 -4 -8
-10 -4 -13 16 -9 93 -6 99 4 4 5 11 7 16 4 5 -4 9 -2 9 3 0 5 6 9 13 9 125 6
262 75 289 144 3 9 22 23 42 33 19 9 41 25 48 35 7 10 36 26 63 36 28 10 67
29 87 42 21 13 42 23 47 23 5 0 13 5 17 12 4 7 3 8 -4 4 -17 -10 -14 15 3 38
8 11 15 34 15 51 0 18 12 47 29 71 33 45 63 127 55 149 -4 8 -2 15 4 15 16 0
55 72 54 98 -1 13 2 21 6 18 5 -3 9 1 9 9 0 13 -3 12 -19 -1 -17 -16 -18 -16
-14 13 1 17 7 36 11 43 5 8 -13 -3 -40 -23 -26 -20 -50 -35 -54 -33 -4 3 -8
21 -9 41 -2 29 3 41 23 56 31 25 32 53 3 73 -25 18 -38 19 -54 8z m-161 -132
c3 -11 1 -20 -4 -20 -5 0 -9 -4 -9 -9 0 -4 12 -7 26 -5 15 1 33 0 42 -3 12 -5
11 -8 -7 -15 -12 -4 -19 -12 -16 -18 3 -6 -1 -13 -9 -16 -9 -3 -16 -11 -16
-16 0 -6 -13 -27 -28 -47 -15 -20 -37 -54 -47 -76 -11 -22 -31 -51 -45 -64
-14 -13 -18 -20 -10 -16 8 3 5 -2 -7 -13 -13 -11 -23 -25 -23 -30 0 -6 -5 -12
-12 -14 -7 -3 -13 -24 -13 -53 -1 -48 -2 -48 -54 -76 -29 -16 -74 -44 -100
-64 -47 -34 -94 -45 -106 -25 -4 6 -19 1 -38 -12 -41 -29 -54 -32 -79 -14 -20
14 -20 14 5 31 17 11 30 33 39 68 10 43 28 69 96 145 130 145 258 255 309 268
13 4 34 28 53 60 32 58 45 66 53 34z"/>
<path d="M15216 8313 c-4 -5 -12 -9 -17 -9 -5 -1 -13 -2 -19 -3 -12 -1 -13
-31 -1 -31 5 0 7 -10 4 -21 -6 -20 -7 -20 -18 7 -7 16 -10 33 -7 38 3 6 -9 0
-26 -13 -18 -12 -30 -27 -26 -32 3 -6 12 -2 20 8 11 13 14 14 12 3 -2 -9 3
-14 12 -12 8 2 12 0 8 -4 -12 -11 -57 -14 -63 -3 -4 5 -15 4 -28 -3 -12 -7
-26 -12 -30 -13 -5 0 -14 -7 -20 -16 -11 -14 -48 -32 -70 -34 -4 0 -12 -7 -17
-15 -8 -13 -10 -12 -10 3 0 20 -19 22 -55 5 -21 -9 -28 -9 -35 1 -6 10 -10 9
-18 -5 -10 -18 -11 -18 -17 -1 -11 26 1 46 23 40 11 -2 23 0 26 6 6 10 -20 16
-46 12 -5 0 -8 4 -8 9 0 6 -5 10 -11 10 -6 0 -8 -9 -4 -20 7 -22 -2 -25 -25
-9 -13 9 -12 10 3 5 11 -3 16 -2 12 4 -9 15 -41 12 -55 -5 -16 -19 -13 -22 30
-30 33 -6 55 -23 44 -34 -3 -3 -9 1 -13 8 -7 11 -10 9 -15 -6 -3 -10 -15 -19
-25 -20 -14 -1 -18 3 -14 13 3 8 12 13 19 10 8 -3 14 1 14 8 0 16 -84 19 -112
5 -10 -6 -19 -5 -23 1 -11 18 -25 11 -25 -12 0 -18 -2 -20 -9 -9 -8 12 -13 12
-24 3 -8 -7 -23 -10 -33 -6 -14 4 -16 3 -5 -4 11 -8 11 -10 0 -14 -10 -3 -10
-6 -1 -12 7 -4 12 -2 12 3 0 6 4 11 8 11 16 0 8 -73 -8 -77 -13 -4 -13 -3 0 7
12 9 12 11 1 8 -8 -3 -16 -9 -18 -15 -5 -13 39 -26 47 -14 11 18 48 22 54 6 5
-13 1 -15 -17 -10 -19 5 -20 5 -4 -5 9 -6 15 -16 11 -21 -4 -6 -11 -6 -20 2
-8 6 -14 8 -15 3 0 -5 -2 -16 -4 -25 -1 -9 2 -23 7 -30 8 -11 9 -10 4 4 -3 10
0 17 8 17 8 0 16 5 18 11 3 9 10 9 28 0 21 -10 22 -10 10 1 -20 17 -19 40 2
44 11 1 15 -3 11 -13 -5 -12 -2 -13 13 -6 21 11 44 7 44 -8 0 -5 -7 -9 -16 -9
-9 0 -12 5 -8 12 5 7 3 8 -6 3 -10 -6 -9 -11 6 -22 10 -8 18 -19 17 -24 -2 -5
4 -9 13 -9 14 0 14 3 4 15 -12 14 -7 20 15 15 6 -1 7 2 3 6 -4 4 -2 14 5 23
10 14 10 14 -4 3 -13 -10 -18 -10 -26 0 -16 20 -12 49 6 46 9 -1 22 1 29 5 19
12 34 -2 27 -26 -5 -17 -4 -19 4 -7 6 8 11 28 11 44 0 24 3 27 21 23 15 -4 23
1 31 19 6 13 16 24 21 24 5 0 4 -6 -2 -14 -7 -9 -8 -17 -2 -20 5 -3 12 0 14 6
4 10 6 10 6 1 1 -7 8 -10 18 -6 11 4 14 3 9 -5 -4 -7 -2 -20 4 -29 7 -12 10
-13 7 -3 -5 19 16 40 40 40 14 0 15 -2 4 -9 -7 -5 -10 -14 -7 -20 4 -6 1 -11
-6 -11 -9 0 -9 -3 2 -10 8 -5 22 -9 30 -9 10 0 9 3 -5 10 -17 8 -16 9 8 6 15
-3 27 0 27 4 0 5 -9 9 -20 9 -21 0 -25 8 -12 26 10 15 40 25 47 14 3 -5 -3
-11 -12 -13 -14 -4 -13 -5 4 -6 12 0 28 -7 36 -15 12 -13 14 -10 14 17 1 26
-1 28 -7 12 -8 -19 -9 -19 -9 2 -1 12 5 24 12 26 9 4 9 6 0 6 -9 1 -8 8 2 28
14 28 48 43 38 17 -4 -10 3 -14 20 -14 25 0 47 -33 33 -48 -4 -3 -9 4 -13 16
-6 24 -18 28 -29 10 -4 -7 -3 -8 4 -4 7 4 12 3 12 -3 0 -5 -4 -13 -10 -16 -17
-11 -11 -31 9 -31 11 0 25 10 31 21 6 11 24 29 40 40 16 11 27 21 25 24 -3 2
-14 -4 -25 -14 -22 -20 -27 -9 -7 15 10 13 30 18 40 10 9 -7 56 -4 53 5 -2 5
-9 9 -15 8 -6 -2 -11 1 -11 6 0 6 -9 9 -20 8 -11 -1 -20 -5 -20 -9 0 -4 -7 -5
-15 -2 -11 5 -13 10 -5 19 5 6 7 15 3 18 -3 4 -1 7 5 7 7 0 12 -4 12 -10 0 -5
7 -7 16 -3 8 3 13 12 10 20 -3 8 -1 11 4 8 6 -3 10 -1 10 5 0 6 5 8 10 5 6 -3
10 -13 10 -21 0 -8 -5 -12 -10 -9 -13 8 -8 -18 5 -27 18 -13 28 -8 15 7 -10
12 -10 15 4 15 9 0 16 5 16 11 0 5 -4 8 -9 4 -5 -3 -12 4 -16 15 -5 15 -12 19
-26 15 -11 -4 -19 -2 -19 4 0 13 -13 14 -24 4z"/>
<path d="M8200 7898 c-16 -29 -25 -36 -31 -27 -4 8 -3 19 3 26 7 9 7 13 -2 13
-15 0 -49 -40 -50 -58 0 -7 8 -12 18 -10 11 2 19 -1 20 -7 0 -5 -5 -9 -13 -7
-19 4 -26 -25 -9 -38 8 -7 14 -19 14 -26 0 -8 15 -23 33 -34 17 -11 28 -20 23
-20 -5 0 -3 -6 4 -14 16 -21 36 -10 69 38 21 31 28 51 26 82 -2 49 -31 104
-61 115 -18 6 -25 1 -44 -33z"/>
<path d="M11938 7368 c-7 -13 -11 -27 -10 -31 1 -5 -2 -6 -7 -3 -5 4 -12 2
-16 -4 -3 -5 -31 -10 -62 -10 -31 0 -54 -3 -50 -6 3 -3 1 -17 -4 -31 -6 -16
-6 -30 0 -37 14 -16 88 -20 97 -5 5 8 3 9 -7 4 -12 -8 -12 -6 0 8 15 19 33 14
25 -7 -3 -8 -1 -17 5 -21 6 -3 14 1 17 10 5 13 9 14 15 4 10 -18 21 -6 23 24
1 19 4 23 14 15 6 -6 12 -18 12 -27 1 -13 3 -13 15 3 8 11 15 16 15 11 0 -5 5
-4 12 3 8 8 8 15 0 25 -10 11 -7 20 10 43 18 23 19 27 5 21 -10 -4 -32 2 -52
13 -44 25 -42 25 -57 -2z"/>
<path d="M16800 7330 c0 -5 -19 -10 -42 -10 -29 0 -38 -3 -29 -9 8 -5 21 -7
30 -4 13 4 13 3 2 -5 -8 -6 -20 -8 -28 -5 -7 3 -13 2 -13 -1 0 -4 10 -11 23
-15 20 -8 18 -9 -10 -9 -18 1 -30 4 -28 8 3 4 -3 14 -12 21 -15 12 -16 12 -8
-1 15 -23 14 -40 0 -40 -9 0 -12 -12 -11 -36 2 -47 -9 -53 -12 -6 -2 20 -7 39
-12 40 -6 2 -8 8 -4 13 3 5 -2 9 -10 9 -8 0 -18 5 -21 10 -4 6 -3 10 2 9 4 -1
17 -1 28 0 15 1 17 3 6 10 -14 9 -51 3 -51 -9 0 -4 -11 -12 -25 -18 -32 -15
-38 -15 -30 -2 3 6 2 10 -3 10 -18 0 -31 -54 -17 -67 7 -7 16 -9 19 -6 3 4 6
3 6 0 0 -13 -34 -46 -42 -41 -4 3 -8 1 -8 -4 0 -5 -14 -23 -30 -41 -17 -17
-27 -31 -23 -31 5 0 1 -5 -7 -10 -12 -8 -10 -10 8 -10 13 0 20 -4 17 -10 -3
-5 -1 -10 4 -10 14 0 14 13 0 27 -9 9 -7 10 10 6 13 -3 21 -1 21 6 0 7 -4 9
-10 6 -5 -3 -10 -1 -10 5 0 6 11 8 25 6 17 -3 25 0 25 10 0 19 16 18 24 -1 7
-18 27 -20 22 -2 -1 6 -1 9 1 5 3 -5 11 -8 19 -8 9 0 12 5 9 10 -4 6 -1 9 7 8
7 -2 12 3 10 10 -1 8 2 11 8 7 8 -5 7 -11 -1 -21 -14 -17 -6 -29 13 -18 7 5
23 9 35 10 15 0 20 -3 15 -15 -5 -14 -3 -14 11 -2 9 7 17 9 17 3 0 -14 -34
-25 -38 -13 -5 16 -19 13 -19 -4 0 -14 10 -19 30 -16 5 1 6 -3 2 -9 -4 -7 6
-10 29 -8 19 1 34 7 33 12 -1 6 3 10 9 9 10 -2 14 10 15 50 0 15 3 16 14 7 15
-13 39 -4 30 11 -4 5 2 9 12 10 11 0 13 3 5 6 -6 2 -9 9 -6 15 4 6 1 9 -7 6
-8 -3 -14 -10 -14 -16 0 -7 -4 -11 -10 -9 -5 1 -8 7 -6 12 2 6 4 15 5 20 5 28
36 49 36 24 0 -5 -4 -8 -9 -4 -5 3 -12 1 -15 -4 -11 -17 38 -17 57 1 15 13 16
20 8 36 -6 11 -7 22 -4 26 17 17 10 36 -13 36 -17 0 -23 4 -18 13 4 6 4 9 -1
5 -4 -4 -16 -3 -26 3 -13 6 -19 6 -19 -1z"/>
<path d="M16328 7263 c9 -3 7 -10 -9 -24 -24 -21 -34 -24 -24 -9 3 6 0 10 -7
10 -15 0 -41 -57 -28 -62 4 -2 1 -10 -8 -18 -14 -13 -15 -13 -10 1 3 9 2 22
-3 30 -5 8 -9 10 -10 4 -7 -79 -1 -96 31 -90 21 4 80 45 80 56 0 4 9 9 20 12
11 3 18 1 14 -4 -3 -5 0 -9 5 -9 6 0 11 5 11 11 0 7 9 0 21 -15 20 -25 47 -38
33 -15 -3 6 -3 14 2 18 11 7 44 57 44 66 0 3 -8 5 -19 5 -10 0 -24 7 -31 15
-11 13 -70 17 -70 4 0 -4 -9 -9 -21 -12 -15 -4 -18 -2 -10 7 12 14 5 27 -13
25 -6 0 -5 -3 2 -6z"/>
<path d="M8407 7037 c-4 -10 -20 -23 -36 -28 -21 -7 -28 -15 -24 -28 3 -12 -4
-25 -18 -35 -20 -13 -21 -16 -6 -16 10 0 16 -3 13 -8 -8 -14 20 -41 50 -46 16
-3 30 -10 32 -16 2 -5 8 -10 13 -10 6 0 8 4 5 9 -4 5 11 12 32 16 66 11 74 51
14 70 -15 4 -31 24 -46 58 -17 40 -24 47 -29 34z"/>
<path d="M19161 4482 c-19 -21 -59 -58 -89 -84 -30 -25 -63 -60 -73 -77 -10
-17 -35 -39 -56 -50 -21 -10 -46 -27 -55 -38 -44 -46 -77 -91 -93 -128 -20
-42 -130 -156 -202 -208 -49 -35 -54 -53 -18 -67 29 -11 25 -29 -23 -101 -54
-80 -62 -84 -171 -86 -102 -2 -154 -7 -169 -17 -5 -3 -12 -20 -16 -38 -4 -24
-19 -43 -51 -68 -25 -19 -53 -42 -62 -49 -17 -16 -109 -61 -125 -61 -9 0 -124
-115 -145 -147 -94 -138 -168 -239 -186 -254 -34 -28 -129 -76 -164 -82 -18
-4 -53 -16 -78 -27 -41 -18 -50 -29 -46 -53 0 -4 -2 -6 -6 -6 -26 4 -63 -2
-59 -10 4 -5 -15 -8 -44 -7 -28 2 -53 0 -56 -5 -2 -5 -35 -24 -72 -44 -37 -19
-94 -60 -127 -90 -85 -79 -132 -100 -227 -98 -43 1 -80 -3 -83 -8 -4 -5 -13
-9 -22 -9 -11 0 -14 6 -9 25 5 18 2 25 -9 25 -8 0 -21 10 -29 23 -16 26 -22
142 -6 152 5 3 10 17 10 31 0 13 5 24 10 24 6 0 10 6 10 13 0 16 47 109 81
162 52 79 93 98 128 61 19 -20 32 -24 82 -24 41 0 59 4 59 13 0 8 9 10 26 7
19 -3 25 -1 20 7 -4 6 -2 11 4 11 6 0 8 4 5 10 -3 5 5 12 19 16 13 3 27 12 30
21 3 8 10 12 15 8 10 -5 33 28 37 52 2 15 -47 53 -68 53 -7 0 -33 16 -58 36
-41 33 -48 35 -95 29 -89 -11 -104 -16 -126 -43 -16 -21 -30 -27 -64 -28 -40
-1 -49 -7 -109 -69 -36 -37 -66 -72 -66 -77 0 -14 -140 -298 -146 -298 -3 0
-17 9 -31 20 -31 24 -63 26 -63 4 0 -10 -6 -13 -18 -10 -19 6 -77 -47 -68 -62
7 -11 -25 -45 -63 -68 -16 -10 -35 -28 -42 -41 -7 -13 -16 -23 -21 -23 -4 0
-8 -5 -8 -11 0 -6 -11 -25 -24 -42 -13 -18 -27 -47 -31 -64 -3 -18 -11 -35
-16 -38 -5 -4 -9 -17 -9 -30 0 -13 -7 -30 -15 -39 -8 -8 -15 -19 -15 -24 0 -6
-16 -42 -36 -81 -25 -49 -43 -73 -58 -77 -27 -7 -96 -95 -96 -124 0 -11 -4
-20 -10 -20 -5 0 -20 -21 -33 -47 -39 -80 -33 -153 13 -168 11 -3 20 -10 20
-15 0 -15 -85 -43 -175 -56 -91 -14 -191 -40 -211 -56 -12 -9 -124 -1 -166 12
-15 5 -66 35 -115 67 -111 73 -154 94 -169 82 -7 -5 -30 -7 -53 -3 -37 6 -43
4 -71 -26 -17 -19 -34 -46 -37 -62 -3 -15 -9 -28 -14 -28 -5 0 -17 -8 -27 -18
-50 -47 -114 -82 -149 -82 -11 0 -35 -8 -53 -17 -26 -13 -71 -17 -204 -20 -94
-3 -180 -5 -191 -6 -21 -2 -75 -48 -75 -64 0 -5 -41 -15 -91 -22 -60 -9 -92
-18 -96 -27 -3 -8 -18 -21 -33 -29 -15 -8 -41 -28 -57 -44 -16 -16 -47 -38
-68 -50 -21 -11 -41 -24 -44 -28 -11 -15 -87 -63 -99 -63 -7 0 -12 -4 -12 -10
0 -5 -9 -10 -20 -10 -11 0 -23 -6 -26 -14 -3 -8 -36 -29 -74 -47 -63 -31 -70
-37 -75 -70 -3 -19 -5 -42 -3 -49 2 -8 -5 -16 -16 -18 -20 -4 -110 27 -102 36
9 8 -126 132 -148 137 -12 2 -39 7 -61 10 -43 7 -168 65 -200 92 -12 10 -26
32 -33 49 -25 59 -122 134 -175 134 -14 0 -40 6 -59 14 -24 10 -56 13 -115 9
-61 -4 -94 -2 -132 11 -28 9 -76 18 -107 21 -33 3 -80 16 -112 32 -74 36 -77
37 -148 36 -43 -1 -71 -8 -95 -22 -56 -34 -79 -28 -124 31 -52 68 -69 85 -137
137 -32 24 -58 47 -58 52 0 5 -14 18 -32 28 -33 21 -98 20 -162 0 -16 -5 -58
-14 -93 -19 -36 -6 -70 -15 -76 -20 -56 -47 -55 -45 -95 -140 -11 -25 -23 -56
-27 -70 -4 -14 -25 -50 -47 -81 -21 -30 -40 -64 -42 -75 -8 -34 -36 -83 -64
-106 -15 -13 -38 -36 -50 -53 -13 -16 -31 -30 -40 -31 -10 -1 -27 -2 -39 -3
-15 -1 -29 -16 -48 -54 -14 -28 -36 -65 -48 -80 -14 -19 -21 -42 -21 -70 0
-23 -4 -45 -10 -49 -5 -3 -11 -21 -13 -40 -10 -98 -29 -161 -57 -186 -12 -10
-46 -26 -76 -34 -154 -44 -230 -72 -255 -94 -16 -13 -36 -24 -47 -24 -10 0
-18 -5 -18 -10 0 -6 -12 -15 -26 -20 -14 -6 -22 -14 -19 -20 3 -5 -3 -10 -15
-10 -12 0 -18 -5 -15 -10 3 -6 1 -10 -4 -10 -6 0 -11 -8 -11 -19 0 -25 -45
-71 -70 -71 -11 0 -20 -7 -20 -15 0 -8 -5 -15 -11 -15 -5 0 -7 -4 -4 -10 3 -5
-3 -10 -14 -10 -11 0 -29 -12 -40 -26 -12 -15 -21 -23 -21 -19 0 5 -8 -1 -18
-12 -10 -12 -29 -20 -46 -20 -15 0 -32 -7 -37 -14 -7 -11 -9 -11 -9 -1 0 12
43 34 59 29 9 -2 11 3 11 22 0 9 -57 27 -73 23 -4 -1 -17 2 -27 8 -15 8 -20 8
-20 -1 0 -8 -4 -8 -12 -2 -7 6 -20 11 -28 11 -8 1 -31 4 -50 8 -19 3 -43 6
-52 6 -10 -1 -18 5 -18 12 0 14 -45 29 -95 31 -17 0 -36 4 -43 9 -17 10 -50
17 -108 20 -28 2 -56 6 -62 10 -5 3 -17 3 -25 0 -9 -3 -31 1 -49 10 -49 22
-72 24 -85 6 -11 -13 -12 -13 -13 3 0 10 -4 15 -10 12 -5 -3 -10 0 -10 7 -1 8
-7 5 -16 -7 -14 -19 -16 -19 -25 -3 -6 10 -15 18 -20 18 -6 0 -7 -4 -4 -10 3
-6 -5 -10 -18 -10 -18 0 -29 9 -41 35 -17 35 -40 46 -49 23 -3 -7 -6 -3 -6 10
-1 13 -5 20 -11 17 -6 -3 -13 0 -16 9 -3 8 -12 12 -20 9 -8 -3 -14 0 -14 6 0
6 -7 8 -15 5 -11 -5 -12 -10 -4 -26 9 -16 8 -19 -2 -16 -8 3 -16 13 -19 24 -3
10 -14 20 -25 22 -15 2 -17 0 -6 -6 9 -7 10 -12 2 -16 -6 -4 -11 -4 -11 1 0 4
-5 0 -11 -10 -5 -9 -15 -17 -22 -17 -7 0 -6 4 3 10 8 5 11 12 8 15 -4 4 -13 3
-20 -1 -7 -5 -25 -7 -40 -5 -17 1 -28 -2 -28 -9 0 -9 -5 -9 -17 1 -15 12 -16
12 -10 -3 4 -12 1 -18 -9 -18 -9 0 -12 5 -8 12 5 10 4 10 -6 1 -7 -6 -19 -9
-28 -6 -12 5 -14 1 -9 -16 l6 -23 -26 23 c-15 13 -23 19 -20 13 3 -6 1 -11 -6
-11 -7 0 -21 -4 -32 -8 -16 -5 -17 -5 -5 4 8 6 11 11 5 12 -71 9 -74 9 -81
-13 l-7 -22 -18 23 c-11 13 -19 19 -19 14 0 -5 -14 -14 -32 -21 -27 -10 -35
-9 -50 4 -9 9 -15 21 -11 27 3 6 1 7 -6 3 -6 -4 -9 -12 -6 -17 7 -10 -24 -1
-42 14 -7 5 -19 7 -26 4 -8 -3 -13 3 -14 14 -2 17 1 17 20 8 12 -7 25 -17 29
-23 5 -7 8 -6 8 4 0 9 -15 21 -33 28 -26 10 -29 14 -17 22 12 8 11 10 -7 10
-14 0 -23 6 -23 15 0 8 -3 14 -7 13 -5 -1 -18 3 -30 10 -18 10 -24 9 -32 -5
-6 -10 -11 -13 -11 -6 0 7 -7 10 -17 7 -15 -5 -15 -4 -3 4 8 6 18 8 23 5 5 -3
3 4 -5 16 -10 16 -10 25 -1 39 6 9 15 16 21 15 5 -1 8 11 7 27 -1 16 2 27 7
24 5 -3 16 0 25 8 14 11 16 11 8 -2 -8 -13 -7 -13 11 0 10 8 21 17 24 20 3 3
23 18 45 35 22 16 43 33 46 38 3 5 10 9 15 10 5 1 8 5 6 10 -1 4 1 6 5 5 10
-3 59 28 91 56 12 11 22 29 22 41 0 11 5 26 12 33 7 7 8 12 4 12 -5 0 -3 6 3
14 7 8 13 72 16 157 6 174 10 203 42 299 29 88 27 132 -11 259 -14 46 -27 85
-28 86 -2 1 -14 9 -28 18 -30 21 -44 22 -36 2 3 -8 2 -14 -2 -14 -28 4 -34 -1
-21 -18 8 -9 9 -14 3 -10 -7 4 -15 0 -18 -9 -3 -8 -14 -14 -23 -12 -10 2 -24
-3 -31 -12 -12 -13 -13 -13 -7 0 6 13 5 13 -7 0 -7 -9 -23 -15 -34 -14 -17 1
-20 -3 -17 -20 4 -17 3 -18 -6 -6 -9 13 -11 13 -11 0 0 -11 -3 -11 -12 -2 -14
14 -38 16 -38 2 0 -5 7 -7 15 -4 8 4 15 2 15 -4 0 -6 -5 -12 -11 -14 -5 -2 -7
-11 -3 -21 3 -10 12 -16 18 -14 6 2 23 -4 38 -15 22 -15 27 -16 22 -4 -3 9
-12 16 -20 16 -8 0 -14 5 -14 10 0 17 18 11 34 -12 20 -28 20 -38 1 -38 -8 0
-15 -9 -15 -20 0 -20 -14 -27 -24 -11 -3 5 -15 11 -27 14 -15 4 -19 2 -15 -8
3 -8 1 -17 -5 -20 -5 -4 -6 -11 -3 -17 4 -7 2 -8 -4 -4 -6 4 -9 13 -6 20 9 22
-10 26 -37 8 -23 -16 -41 -51 -19 -37 15 9 12 -18 -4 -40 -7 -10 -11 -27 -8
-37 2 -10 -1 -18 -8 -18 -10 0 -10 -3 -1 -14 10 -12 8 -19 -7 -34 -11 -11 -18
-23 -15 -26 4 -3 1 -6 -5 -6 -6 0 -9 -6 -6 -14 3 -8 -5 -21 -17 -29 -20 -15
-21 -18 -8 -48 15 -37 16 -61 5 -104 -14 -55 -16 -68 -7 -79 14 -18 29 -95 24
-117 -5 -18 -2 -19 23 -14 25 5 26 4 7 -4 -23 -10 -40 -52 -28 -70 9 -16 -17
-48 -37 -46 -9 2 -18 -5 -21 -16 -3 -10 -13 -19 -24 -19 -13 0 -15 2 -5 9 11
6 9 9 -6 13 -26 7 -46 -6 -38 -23 4 -8 2 -7 -6 2 -12 14 -72 23 -63 9 2 -3
-17 -12 -42 -19 -27 -8 -40 -17 -33 -21 9 -6 9 -9 -1 -13 -10 -4 -10 -6 -1 -6
6 -1 12 -5 12 -11 0 -5 -8 -6 -17 -3 -16 6 -16 5 -4 -10 12 -15 12 -17 -3 -11
-9 4 -16 3 -15 -2 5 -31 -2 -46 -21 -41 -11 3 -17 1 -14 -4 3 -6 -12 -7 -38
-5 -24 3 -35 3 -25 0 24 -8 22 -23 -3 -17 -11 3 -28 2 -37 -2 -10 -5 -25 -7
-32 -6 -12 2 -12 0 -3 -12 19 -23 1 -28 -26 -7 -14 11 -28 18 -31 15 -3 -4 1
-10 9 -15 11 -7 5 -9 -20 -7 -24 1 -42 11 -59 30 -18 22 -26 25 -32 15 -7 -10
-9 -10 -9 1 0 8 -3 11 -6 8 -4 -3 -14 -2 -24 3 -14 7 -17 5 -16 -11 0 -11 8
-25 16 -30 12 -9 12 -10 -4 -5 -11 4 -24 0 -33 -11 -13 -17 -14 -16 -10 5 4
16 0 22 -11 23 -12 0 -10 3 6 9 26 11 29 18 4 16 -23 -1 -33 -17 -21 -32 7 -9
3 -19 -12 -33 -13 -12 -17 -21 -10 -21 7 0 9 -5 6 -10 -3 -6 -1 -10 6 -10 7 0
9 -3 5 -7 -4 -5 -14 1 -22 11 -12 17 -12 22 0 35 13 14 12 19 0 41 l-15 25 4
-27 c2 -16 -1 -29 -8 -32 -8 -3 -11 2 -8 15 3 10 1 19 -4 19 -14 0 -9 -35 6
-54 8 -9 10 -16 5 -16 -5 0 -2 -5 6 -10 13 -9 12 -12 -4 -25 -23 -18 -36 -19
-36 -4 0 5 4 8 9 4 5 -3 13 0 17 7 4 7 4 10 -1 6 -4 -4 -15 -2 -23 5 -13 9
-14 9 -8 0 4 -8 2 -13 -6 -14 -12 0 -36 -4 -70 -11 -7 -2 -16 -10 -20 -18 -5
-12 -7 -12 -7 3 -1 18 -16 23 -25 8 -3 -5 -17 -11 -31 -13 -13 -3 -22 -1 -19
3 3 5 -3 9 -13 9 -10 0 -30 7 -45 14 -25 13 -29 13 -38 -2 -9 -16 -11 -16 -21
1 -8 14 -14 16 -25 6 -12 -10 -13 -9 -8 5 5 13 13 16 32 11 l26 -6 -24 19
c-20 16 -26 17 -38 6 -20 -20 -23 -17 -12 12 7 17 7 23 -1 19 -6 -4 -9 -1 -7
6 4 21 -48 93 -56 77 -4 -10 -7 -10 -12 -1 -3 7 -12 9 -20 6 -8 -3 -14 0 -14
5 0 6 10 14 21 17 17 6 18 9 8 16 -7 4 -18 4 -24 -1 -10 -8 -37 13 -29 24 2 3
1 4 -3 1 -3 -3 -12 0 -18 5 -9 8 -11 3 -8 -17 3 -27 3 -27 -8 -5 -14 26 -38
30 -34 5 1 -10 0 -12 -2 -5 -3 6 -9 12 -14 12 -5 0 -9 5 -9 11 0 5 5 7 10 4 6
-3 10 -2 10 3 0 6 -7 13 -16 16 -8 3 -12 2 -9 -4 6 -10 -61 -2 -87 11 -11 6
-19 5 -24 -3 -5 -7 -3 -8 6 -3 8 5 11 4 6 -3 -4 -6 -12 -9 -19 -7 -30 11 -67
13 -73 4 -4 -6 -11 -6 -20 2 -11 9 -14 8 -14 -6 0 -14 -3 -13 -21 6 -11 13
-18 19 -15 12 11 -21 -13 -24 -26 -3 -14 21 -44 29 -33 8 4 -7 -1 -4 -9 6 -9
11 -16 14 -16 8 0 -9 -8 -7 -25 4 -15 10 -25 12 -25 5 0 -19 -18 -12 -46 16
-27 27 -27 27 -21 4 l6 -23 -20 21 c-21 22 -39 30 -21 9 8 -10 3 -14 -20 -15
-27 -2 -28 -1 -16 14 11 15 10 16 -9 11 -22 -6 -22 -5 -8 28 13 31 12 34 -3
34 -14 0 -15 2 -3 9 12 8 12 12 2 25 -7 8 -19 12 -27 9 -8 -3 -14 1 -14 11 0
15 -3 15 -27 -1 -15 -10 -24 -13 -21 -7 4 6 -2 18 -13 27 -10 9 -19 14 -19 11
0 -4 -11 1 -24 10 -15 10 -27 12 -31 6 -9 -15 -21 -12 -53 15 -16 13 -32 22
-36 18 -3 -3 -6 -1 -6 6 0 8 7 10 19 6 25 -8 33 17 15 44 -20 28 -50 27 -57
-1 l-6 -22 -26 24 c-14 13 -28 21 -31 17 -9 -9 6 -28 17 -22 5 4 9 2 9 -3 0
-10 -41 -24 -48 -18 -2 3 -4 11 -6 19 -3 25 -26 45 -44 40 -10 -2 -46 0 -81 6
-38 6 -70 7 -80 1 -10 -5 -23 -5 -31 0 -9 5 -19 5 -27 -2 -12 -10 -15 -7 -12
19 1 12 -65 30 -77 21 -7 -5 -14 -2 -18 9 -6 15 -8 15 -16 3 -10 -17 -17 -13
-22 15 -2 16 3 20 27 20 28 0 30 2 28 35 -1 19 1 29 6 22 5 -9 12 -8 29 4 12
8 20 20 16 25 -3 5 0 16 6 24 10 12 10 15 -1 15 -11 0 -11 2 -2 8 10 6 10 12
-2 28 -8 10 -15 29 -15 42 0 33 -20 48 -55 45 -26 -2 -34 3 -50 34 -11 20 -32
44 -46 52 l-27 17 29 43 c16 23 24 39 18 35 -6 -4 -10 -3 -7 2 2 5 11 24 18
42 13 30 26 36 67 35 7 -1 13 2 13 6 0 4 16 13 36 20 20 7 44 21 54 31 17 17
17 18 1 23 -12 3 -18 15 -19 35 0 17 -5 40 -11 51 -6 11 -11 29 -11 40 0 14
-6 21 -20 21 -11 0 -20 4 -20 10 0 5 -3 9 -7 9 -23 -4 -33 3 -33 21 0 17 -7
20 -45 20 -32 0 -67 -11 -127 -42 -87 -44 -113 -47 -172 -23 -31 13 -86 79
-86 103 0 7 -4 12 -8 12 -4 0 -19 18 -32 40 -14 22 -29 40 -33 40 -4 0 -30 22
-57 50 -40 39 -50 56 -50 82 0 47 -51 103 -85 94 -20 -5 -27 -1 -40 25 -11 21
-21 29 -32 24 -9 -3 -19 -2 -22 3 -9 14 -90 22 -98 10 -3 -7 -1 -8 5 -4 7 4
12 2 12 -3 0 -6 -9 -11 -21 -11 -15 0 -19 5 -15 15 3 8 1 16 -4 16 -6 1 -16 2
-22 3 -7 1 -27 -12 -45 -28 -18 -16 -38 -31 -45 -32 -7 -1 -33 -7 -58 -12 -47
-11 -75 -9 -127 6 -17 6 -33 9 -35 6 -2 -2 -17 8 -33 22 -16 13 -35 22 -42 19
-8 -2 -11 -1 -8 4 3 6 -12 10 -34 9 -30 0 -40 -5 -44 -19 -3 -13 -14 -19 -32
-19 -18 0 -29 -6 -32 -20 -6 -22 -28 -27 -36 -7 -4 7 -8 3 -12 -10 -8 -24 -29
-31 -40 -13 -12 19 -26 11 -16 -8 7 -13 6 -19 -2 -20 -67 -9 -87 -10 -87 -2 0
6 -11 10 -24 10 -14 0 -30 10 -40 25 -16 25 -17 25 -54 9 -45 -20 -121 -46
-142 -48 -9 -1 -21 -5 -28 -10 -8 -4 -12 -1 -13 11 0 11 -3 13 -6 5 -2 -6 -9
-9 -15 -6 -6 4 -14 0 -19 -7 -7 -11 -9 -11 -9 2 0 17 -24 29 -70 35 -13 2 -31
12 -40 23 -11 15 -34 23 -81 30 -65 9 -112 37 -115 69 -1 7 -2 21 -2 32 -2 20
-21 23 -34 5 -4 -6 -8 -2 -8 8 0 9 -8 17 -17 17 -15 0 -16 2 -3 10 13 9 13 11
0 20 -11 7 -18 3 -27 -13 -12 -21 -12 -21 -13 -2 -1 11 -4 15 -7 8 -5 -15 -42
2 -57 27 -8 12 -11 11 -18 -5 -7 -17 -8 -16 -5 5 3 14 6 31 8 39 2 7 -4 15
-14 16 -14 3 -17 -1 -13 -13 5 -15 5 -15 -7 0 -8 10 -23 16 -34 14 -11 -2 -26
0 -34 5 -8 5 -9 9 -4 9 10 0 -15 20 -25 20 -3 0 -7 -12 -8 -27 -3 -35 -11 -42
-19 -15 l-6 23 -11 -23 c-7 -13 -11 -42 -10 -66 2 -24 -3 -56 -10 -72 -12 -29
-13 -29 -41 -14 -26 14 -33 13 -70 -1 -60 -25 -68 -30 -67 -40 1 -18 20 -16
25 2 4 14 5 13 6 -4 1 -23 21 -33 21 -11 0 9 3 9 12 0 15 -15 19 -42 7 -42 -5
0 -9 5 -9 12 0 6 -7 3 -15 -8 -8 -10 -15 -15 -15 -10 0 5 -7 2 -17 -5 -15 -13
-16 -11 -9 14 4 19 3 26 -4 22 -5 -3 -10 -17 -10 -31 0 -13 -6 -24 -12 -24 -8
-1 -6 -6 5 -14 17 -13 17 -14 0 -20 -10 -4 -14 -4 -10 0 4 4 -3 12 -14 18 -26
13 -26 31 0 30 12 0 17 5 14 13 -3 7 -9 10 -14 7 -5 -3 -9 6 -9 19 0 26 -23
39 -67 40 -27 1 -26 -1 -11 31 7 17 15 23 22 17 11 -9 40 -14 62 -12 6 0 21 9
33 20 18 15 19 20 7 30 -8 6 -12 20 -9 30 3 11 -2 21 -11 24 -9 4 -16 15 -16
25 0 10 -5 23 -10 28 -15 15 -21 52 -9 59 5 4 9 11 9 16 0 6 -4 8 -9 5 -5 -4
-12 0 -15 6 -3 7 -3 3 0 -10 4 -17 1 -22 -15 -22 -11 0 -26 -6 -33 -13 -17
-18 -38 -10 -38 13 0 10 -5 22 -11 26 -8 4 -7 9 2 15 9 5 18 1 26 -14 11 -21
12 -20 10 10 -1 24 -7 33 -20 33 -10 0 -16 4 -13 8 3 5 21 8 41 7 34 -1 45 8
25 20 -15 10 -12 25 6 25 9 0 18 -9 21 -20 4 -16 8 -18 19 -9 11 9 14 8 14 -2
0 -8 5 -6 14 6 12 17 14 17 22 2 6 -10 14 -13 23 -8 11 7 11 13 0 32 -7 15
-14 19 -17 11 -5 -16 -22 -15 -22 2 0 21 -38 27 -50 8 -5 -10 -10 -12 -10 -4
0 24 -41 5 -49 -23 -2 -5 -7 -9 -12 -8 -5 2 -9 0 -9 -5 0 -11 -59 -7 -71 5 -8
8 -8 17 -1 30 12 21 11 41 -1 60 -5 9 -3 11 6 7 8 -3 18 0 23 7 4 7 3 10 -3 6
-6 -4 -16 -1 -24 6 -8 7 -12 11 -10 10 2 -2 10 2 18 8 9 9 13 8 13 0 0 -19 17
-12 23 9 4 15 14 20 36 20 26 0 31 4 31 25 0 14 4 25 9 25 5 0 17 7 25 16 14
13 14 18 1 37 -7 12 -13 34 -11 49 2 17 -1 25 -7 21 -6 -4 -8 0 -4 10 4 11 1
17 -8 17 -20 0 -37 34 -23 48 13 13 2 32 -18 32 -8 0 -14 5 -14 10 0 6 -11 16
-25 22 -14 6 -25 17 -25 23 0 7 -12 21 -27 31 -27 17 -32 20 -51 23 -5 0 -17
9 -28 19 -11 10 -32 22 -46 25 -19 5 -25 12 -22 22 4 8 1 15 -5 15 -6 0 -14 0
-18 1 -5 0 -14 11 -21 25 -14 27 -47 32 -59 9 -7 -12 -14 -12 -45 -1 -21 7
-41 15 -44 19 -4 4 -15 7 -24 7 -9 0 -27 9 -40 20 -13 11 -29 20 -36 20 -20 0
-27 19 -12 37 9 12 9 15 1 9 -8 -4 -13 -2 -13 4 0 6 -4 9 -8 6 -5 -3 -19 4
-30 14 -26 24 -71 43 -88 36 -7 -3 -15 2 -18 11 -4 9 -9 13 -12 10 -3 -3 -16
5 -29 19 -12 13 -27 24 -34 24 -6 0 -11 4 -11 9 0 9 -67 57 -111 79 -14 7 -32
29 -39 48 -10 24 -25 40 -48 50 -57 23 -71 19 -78 -25 -4 -27 -10 -38 -20 -34
-8 3 -15 -4 -19 -19 -3 -12 -17 -28 -29 -34 -22 -10 -25 -9 -30 17 -3 16 -11
29 -17 29 -7 0 -9 -12 -5 -34 8 -40 0 -48 -40 -37 -21 5 -28 13 -27 27 5 32
-11 48 -34 35 -17 -8 -22 -6 -32 15 -14 31 -14 37 -1 29 6 -3 10 1 10 9 0 9
-5 16 -10 16 -6 0 -15 12 -20 26 -6 14 -14 23 -19 19 -5 -3 -11 9 -13 26 -2
18 -10 35 -18 39 -8 4 -31 14 -50 23 -19 9 -71 19 -114 22 -43 3 -82 7 -85 10
-4 2 -13 0 -21 -5 -7 -5 -24 -3 -37 3 -18 8 -26 8 -31 -1 -9 -14 -45 -9 -50 6
-2 7 -12 12 -23 12 -10 0 -19 5 -19 10 0 6 -9 10 -20 10 -11 0 -20 -5 -20 -11
0 -5 4 -8 9 -4 5 3 12 1 16 -5 8 -13 -6 -13 -41 0 -19 7 -30 7 -40 -1 -10 -8
-14 -8 -14 0 0 6 -11 11 -24 11 -13 0 -29 7 -36 15 -7 8 -16 13 -20 10 -4 -3
-21 2 -36 10 -16 8 -44 15 -62 15 -24 0 -31 4 -26 13 4 6 -1 4 -12 -5 -16 -14
-23 -15 -32 -6 -9 9 -12 9 -12 0 0 -7 -9 -12 -21 -12 -11 0 -18 -4 -15 -9 3
-4 -7 -8 -22 -7 -17 1 -26 -4 -25 -11 2 -7 -3 -12 -10 -10 -9 1 -13 -381 -15
-1879 l-2 -1881 70 -6 c38 -3 98 -1 134 4 88 14 176 -1 606 -103 118 -28 240
-60 270 -70 51 -17 130 -36 300 -71 36 -7 108 -12 160 -11 52 1 174 1 270 1
96 -1 277 -1 402 -2 147 0 224 -3 221 -10 -3 -5 0 -4 8 2 9 9 44 12 109 11
l95 -2 -95 -6 c-63 -5 -31 -6 95 -4 105 1 207 6 229 10 31 5 37 4 31 -7 -6
-11 -5 -12 6 -2 8 8 42 13 89 13 52 0 70 -3 60 -10 -11 -7 -1 -10 35 -11 28 0
59 -2 70 -4 22 -4 53 -4 540 1 262 4 377 9 500 25 222 28 1148 48 1300 28 55
-7 123 -14 150 -14 28 -1 73 -3 100 -5 l50 -3 -55 -7 c-30 -4 139 -7 375 -7
237 0 417 2 400 6 -28 6 -25 8 33 24 34 9 62 22 62 27 0 6 8 10 18 10 14 0 15
-2 2 -10 -10 -7 -4 -8 20 -3 72 16 1015 3 1042 -13 3 -2 8 0 10 6 2 6 41 12
88 15 56 3 76 2 60 -4 -24 -9 -24 -9 8 -10 22 -1 31 3 26 10 -5 8 -2 9 9 3 9
-5 47 -7 84 -3 43 4 73 2 82 -5 12 -10 78 -10 157 -1 33 3 30 -13 -3 -18 -16
-2 7 -5 51 -6 91 -1 208 17 199 32 -3 6 -1 7 5 3 21 -13 0 -35 -36 -39 -21 -2
-14 -3 15 -2 29 1 50 -1 48 -5 -2 -4 24 -7 58 -7 l62 0 -55 7 c-35 4 -3 6 84
4 77 -1 146 0 153 3 8 3 11 14 8 27 -2 11 -2 16 1 9 3 -6 22 -10 47 -8 23 2
32 1 19 -2 -12 -2 -20 -9 -16 -14 3 -5 10 -6 16 -3 7 4 8 2 4 -4 -4 -7 -16
-12 -27 -12 -10 0 -19 -4 -19 -9 0 -5 11 -8 25 -7 14 0 25 5 25 9 0 5 17 5 38
2 42 -8 71 -9 397 -6 343 3 317 4 353 -25 17 -15 30 -29 28 -33 -2 -3 6 -6 17
-7 32 -1 78 -11 110 -23 16 -6 44 -11 64 -11 62 0 166 -37 210 -75 23 -19 51
-35 62 -35 12 0 21 -4 21 -8 0 -5 8 -10 18 -12 9 -2 710 -5 1557 -6 1441 -3
1544 -2 1600 14 33 10 71 17 85 16 61 -3 70 -4 70 -13 0 -4 -30 -8 -66 -7 -36
1 -68 -2 -70 -6 -8 -12 2768 -8 2783 3 7 6 13 6 17 1 3 -6 20 -7 41 -2 22 5
33 4 29 -2 -6 -9 314 -6 369 4 15 3 30 2 32 -2 6 -10 305 -13 305 -3 0 5 21 7
48 5 40 -4 273 -6 375 -3 17 0 101 -2 185 -4 86 -3 152 -1 152 4 0 5 13 11 29
13 17 2 28 1 26 -3 -5 -8 0 -8 193 -15 78 -3 142 -2 142 3 0 10 109 10 130 0
14 -7 208 -3 323 6 26 3 50 0 54 -5 3 -6 9 -4 14 3 6 10 9 11 9 2 0 -10 32
-13 125 -13 89 0 125 3 125 12 0 6 2 9 6 6 3 -3 21 -2 40 2 19 4 37 4 40 -1 3
-5 16 -7 30 -5 13 3 24 1 24 -3 0 -5 38 -9 85 -10 l85 -2 0 809 0 810 -56 7
c-31 4 -83 8 -115 10 -32 2 -62 6 -67 9 -4 3 -28 -2 -52 -10 -30 -11 -46 -12
-48 -5 -2 6 -10 11 -18 11 -8 0 -14 7 -14 17 0 9 -3 13 -7 10 -3 -4 -12 -2
-18 3 -7 6 -37 12 -67 13 -37 2 -64 10 -85 25 -17 12 -36 22 -43 22 -6 0 -19
9 -28 20 -11 13 -32 21 -61 23 -38 3 -48 -1 -80 -31 -26 -26 -46 -36 -73 -38
-48 -3 -58 -10 -58 -43 0 -53 -49 -87 -129 -90 -37 -2 -60 -9 -74 -22 -21 -19
-38 -23 -91 -20 -16 1 -33 -4 -38 -11 -5 -9 -8 -10 -8 -1 0 29 -103 1 -210
-58 -42 -24 -85 -39 -96 -35 -7 3 -16 -4 -19 -15 -4 -10 -13 -19 -21 -19 -8 0
-14 -7 -14 -16 0 -10 -6 -13 -19 -9 -19 6 -37 -18 -26 -35 3 -4 -2 -10 -10
-14 -8 -3 -15 -12 -15 -20 0 -16 -43 -29 -69 -21 -10 3 -24 -1 -31 -10 -12
-14 -15 -14 -31 1 -11 10 -19 13 -19 7 0 -5 -16 -17 -35 -26 -23 -11 -35 -24
-35 -37 0 -12 -8 -29 -18 -40 -22 -24 -105 -21 -192 6 -47 15 -60 23 -60 39 0
35 -14 47 -42 36 -20 -8 -28 -7 -32 5 -5 14 -39 15 -52 1 -4 -4 -13 -2 -21 5
-10 8 -20 8 -36 0 -36 -17 -61 -25 -71 -23 -4 1 -15 -4 -22 -10 -11 -9 -18 -9
-26 -1 -8 8 -18 7 -37 -3 -39 -21 -125 -59 -136 -59 -5 -1 -21 -7 -34 -15 -17
-10 -21 -10 -16 -1 5 7 -10 3 -31 -9 -21 -11 -65 -29 -97 -39 -32 -10 -58 -21
-58 -25 1 -4 1 -11 1 -15 0 -5 -16 -14 -35 -22 -19 -8 -35 -17 -35 -20 0 -4
-42 -6 -92 -5 -63 1 -104 -3 -128 -13 -19 -9 -53 -19 -75 -23 -73 -13 -88 -18
-106 -35 -11 -10 -19 -13 -19 -9 0 4 -8 1 -18 -8 -9 -8 -40 -17 -69 -20 -28
-2 -63 -11 -77 -20 -14 -10 -30 -17 -36 -17 -5 0 -10 -8 -10 -18 0 -22 -57
-49 -72 -34 -6 6 -17 8 -24 5 -18 -7 -18 5 1 23 8 9 15 25 15 36 0 19 -5 20
-46 15 -26 -2 -50 -10 -54 -16 -4 -7 -17 -10 -32 -6 -20 5 -30 0 -48 -23 -21
-26 -28 -29 -49 -21 -13 6 -37 7 -53 4 -17 -4 -28 -2 -28 4 0 6 -6 11 -13 11
-22 0 -45 33 -42 60 2 19 -10 41 -51 85 -56 60 -66 85 -37 85 9 0 14 3 10 6
-3 3 -1 19 5 35 11 32 41 54 63 45 7 -2 16 2 19 11 6 14 8 14 22 -3 11 -14 17
-15 20 -6 3 6 10 10 15 6 5 -3 9 -1 9 4 0 9 -18 20 -45 28 -5 2 -20 6 -32 10
-16 4 -23 2 -23 -6 0 -22 -39 20 -52 56 -6 18 -15 31 -20 28 -4 -3 -8 0 -8 6
0 6 -4 9 -9 5 -10 -5 -51 41 -51 57 0 6 9 21 20 35 11 14 20 38 20 54 0 28 38
79 59 79 6 0 11 4 11 9 0 21 65 48 103 44 33 -5 39 -2 44 16 3 12 13 21 24 21
11 0 23 10 29 24 7 20 19 26 56 32 64 9 98 -9 101 -55 4 -41 1 -38 38 -43 25
-2 29 0 27 16 -3 16 1 18 31 13 19 -3 39 -1 45 5 6 6 15 7 22 3 11 -7 32 -50
34 -69 2 -18 26 -17 26 1 1 16 2 16 13 2 7 -9 22 -21 35 -28 15 -8 22 -20 20
-34 -6 -44 79 -39 150 10 19 13 44 23 55 23 11 0 18 3 14 6 -9 9 18 34 37 34
21 0 56 48 56 76 0 13 5 24 10 24 6 0 16 11 22 25 6 14 16 25 23 25 6 0 20 8
31 18 11 10 32 22 46 25 19 5 25 12 22 22 -4 10 0 15 11 15 9 0 13 5 10 10 -3
6 1 13 10 16 8 4 15 11 14 18 -3 25 2 37 14 35 20 -2 57 13 57 23 0 6 7 7 16
4 11 -4 18 1 21 14 3 11 12 20 20 20 7 0 25 12 40 26 14 14 34 26 45 27 11 1
24 9 29 19 5 9 16 15 23 12 8 -3 33 11 55 31 35 32 43 36 57 24 14 -11 19 -9
34 11 15 20 20 22 34 11 11 -10 16 -10 16 -2 0 7 6 11 13 10 6 -1 21 -1 32 0
15 1 17 3 6 10 -8 6 6 11 42 15 31 4 61 14 67 22 7 7 16 12 20 9 5 -3 11 4 15
15 9 27 23 25 37 -5 10 -23 12 -23 24 -7 7 9 14 25 14 35 0 21 9 21 34 2 19
-14 19 -15 0 -36 -14 -16 -16 -23 -6 -26 10 -4 10 -8 1 -19 -7 -8 -9 -18 -5
-21 4 -4 11 -1 15 6 11 17 51 -2 51 -24 0 -9 10 -15 25 -15 19 0 28 -7 35 -27
6 -16 16 -39 22 -51 12 -24 12 -24 22 -3 8 19 38 31 35 14 -5 -31 3 -93 12
-93 6 0 22 -9 36 -20 14 -11 32 -20 40 -20 8 0 37 -11 63 -24 59 -30 79 -26
144 28 26 23 58 42 70 43 11 1 44 7 71 12 28 5 72 10 98 10 27 1 56 5 66 11
10 5 41 10 70 12 41 2 51 6 51 21 0 9 5 17 10 17 6 0 25 16 43 37 18 20 47 52
66 71 19 20 30 37 24 39 -19 7 -1 55 33 89 19 18 34 38 34 44 0 5 4 10 8 10 5
0 9 6 10 13 3 38 22 90 38 101 11 9 15 21 12 39 -3 17 0 28 9 31 9 4 13 20 13
43 -2 92 25 138 107 180 l58 30 20 -24 c26 -30 67 -30 89 0 12 16 18 18 22 9
5 -10 10 -9 20 5 14 17 16 17 26 1 11 -14 13 -14 30 8 16 20 22 22 38 12 25
-16 35 -5 20 22 -9 17 -9 24 0 30 15 9 16 103 1 108 -6 2 -11 8 -11 13 0 6 -8
19 -19 30 -11 12 -21 43 -25 79 -6 53 -10 60 -42 79 -36 21 -58 63 -51 93 3
10 1 18 -4 18 -28 0 3 108 44 156 31 37 88 74 101 67 6 -3 8 -3 4 2 -8 9 48
55 67 55 17 0 65 24 65 33 0 4 11 7 25 7 14 0 28 6 31 14 3 8 19 19 35 25 19
7 36 24 50 53 24 49 61 73 90 57 22 -11 64 6 54 21 -8 12 -17 48 -19 77 -2 12
-8 28 -14 36 -8 9 -9 24 -3 44 7 23 5 37 -6 53 -17 24 -11 52 11 44 9 -3 17 3
21 15 3 12 12 21 20 21 7 0 15 6 18 13 4 10 7 10 18 0 7 -7 16 -13 20 -13 4 0
8 122 9 270 0 149 -1 270 -2 269 -2 -1 -18 -17 -37 -37z m-18133 -598 c-3 -3
5 -17 18 -31 13 -14 27 -23 31 -20 3 4 12 2 18 -3 8 -7 21 -7 37 -1 15 5 30 6
39 0 23 -14 29 -11 29 16 0 41 13 31 67 -50 14 -22 40 -51 57 -66 17 -15 48
-41 68 -59 21 -18 36 -36 33 -41 -3 -4 3 -14 15 -21 11 -7 20 -23 20 -36 0
-13 4 -20 10 -17 7 4 7 -3 0 -20 -6 -15 -7 -31 -4 -37 4 -6 2 -8 -3 -5 -6 4
-14 0 -17 -9 -3 -8 -14 -14 -23 -12 -11 2 -17 -2 -15 -11 2 -8 -3 -11 -13 -8
-9 4 -15 1 -15 -9 0 -8 -8 -27 -17 -41 -10 -15 -13 -24 -6 -20 8 5 11 1 10
-12 0 -11 -6 -19 -12 -18 -5 1 -10 -11 -11 -27 -1 -16 -9 -35 -19 -42 -9 -7
-14 -18 -10 -24 3 -6 1 -9 -6 -8 -6 2 -14 -3 -16 -10 -3 -7 1 -10 9 -7 9 4 15
0 15 -8 0 -9 -8 -13 -21 -9 -19 4 -19 3 -5 -9 23 -19 31 -69 11 -69 -12 0 -12
-3 -1 -17 11 -15 11 -16 -1 -5 -8 6 -18 12 -23 12 -6 0 -6 -5 0 -12 5 -7 8
-24 7 -38 -2 -19 2 -26 17 -27 10 -1 19 2 19 8 0 5 5 9 11 9 8 0 7 -5 -2 -16
-11 -14 -10 -18 6 -31 20 -15 20 -15 -1 -11 -18 5 -21 2 -16 -16 3 -11 7 -15
9 -9 4 10 7 10 17 0 11 -10 11 -16 -1 -34 -9 -13 -11 -27 -7 -35 5 -7 9 -16 9
-20 0 -12 15 -21 15 -9 0 7 5 9 10 6 6 -3 10 -1 10 5 0 7 7 9 16 6 14 -5 15
-4 4 9 -7 9 -21 13 -31 10 -13 -5 -17 -1 -16 15 1 13 8 20 22 19 11 0 14 -3 7
-6 -10 -4 -9 -8 5 -18 14 -10 21 -11 32 -2 12 9 13 9 7 0 -4 -7 -3 -13 3 -13
5 0 11 5 13 12 2 6 10 8 17 4 9 -6 8 -11 -6 -21 -10 -7 -21 -11 -25 -9 -4 3
-5 -2 -1 -11 4 -12 8 -13 13 -5 4 7 10 8 13 4 3 -5 -1 -15 -9 -22 -8 -7 -14
-10 -14 -5 0 4 -6 -2 -14 -13 -12 -16 -17 -17 -28 -6 -11 11 -10 12 7 6 17 -7
18 -6 7 8 -7 9 -28 16 -50 16 -20 0 -38 5 -40 11 -2 6 -11 11 -20 11 -14 0
-15 -2 -2 -10 8 -5 12 -11 10 -13 -3 -2 -18 5 -35 15 -16 11 -22 18 -13 15 12
-4 15 -2 11 8 -3 8 -9 13 -13 10 -5 -3 -12 -1 -15 5 -5 8 -12 7 -23 -2 -13
-11 -14 -11 -7 1 6 11 4 13 -8 8 -9 -3 -18 0 -21 9 -3 8 -20 20 -36 26 -20 6
-29 15 -26 24 3 8 2 13 -2 11 -18 -6 -9 53 14 91 18 28 19 136 2 126 -4 -3 -8
0 -8 6 0 6 -4 8 -10 5 -5 -3 -10 -1 -10 5 0 6 -4 9 -9 5 -6 -3 -8 4 -6 15 3
17 1 19 -15 10 -22 -12 -35 2 -26 27 5 13 4 14 -9 3 -20 -16 -20 4 0 24 25 24
16 43 -17 37 -5 0 -8 3 -8 9 0 5 6 10 14 10 8 0 21 3 30 6 12 5 14 0 10 -22
-3 -16 -2 -25 2 -22 13 14 12 68 -2 68 -8 0 -14 -4 -14 -8 0 -5 -6 -9 -14 -9
-8 0 -12 6 -8 15 3 10 1 13 -6 8 -7 -4 -12 -2 -12 4 0 7 -7 5 -16 -4 -8 -9
-19 -14 -24 -11 -5 3 -12 1 -15 -5 -4 -7 -12 -7 -18 -2 -10 7 -32 9 -39 2 -2
-1 -14 -3 -28 -4 -23 -3 -92 39 -112 68 -3 5 -17 11 -29 13 -26 4 -51 23 -30
23 7 0 9 5 6 10 -3 6 -2 10 4 10 5 0 6 11 2 28 -5 15 -14 26 -20 24 -7 -1 -10
2 -6 8 3 6 10 8 15 5 15 -9 23 16 10 28 -10 9 -11 9 -6 0 4 -8 1 -13 -8 -13
-9 0 -16 5 -16 10 0 6 -7 10 -15 10 -8 0 -15 4 -15 10 0 11 59 2 77 -13 9 -6
15 -4 19 7 4 11 13 15 26 10 12 -4 24 -1 28 7 7 10 12 10 25 -1 15 -13 20 -11
36 9 11 13 19 20 19 15 0 -4 7 1 16 12 8 10 13 14 10 8 -3 -7 5 -15 20 -18 29
-8 57 17 50 45 -2 9 0 23 5 30 4 8 1 18 -9 27 -9 7 -12 11 -5 8 11 -6 24 20
28 54 3 30 17 60 27 60 6 0 9 -3 6 -6z m-603 -1126 c17 -20 20 -21 23 -5 4 20
1 20 39 6 27 -9 30 -14 24 -37 -4 -15 -17 -31 -29 -37 -12 -5 -22 -17 -22 -27
0 -9 -10 -25 -23 -35 -20 -16 -39 -45 -41 -65 -1 -3 -11 -15 -23 -25 -16 -14
-19 -23 -11 -36 7 -13 6 -23 -4 -35 -11 -15 -11 -15 3 -5 18 15 29 8 29 -19 0
-10 7 -18 16 -18 8 0 13 -4 9 -9 -3 -5 -1 -12 4 -16 5 -3 8 -14 6 -25 -2 -11
-1 -19 3 -19 22 4 33 -3 29 -15 -8 -20 13 -35 51 -38 30 -2 31 -3 14 -22 -9
-12 -24 -26 -32 -32 -12 -10 -12 -14 -1 -28 12 -14 11 -20 -5 -39 -10 -12 -12
-16 -4 -9 19 16 30 15 30 -4 0 -9 9 -18 20 -21 19 -5 20 -6 3 -19 -19 -14 -18
-15 27 -18 8 -1 14 -9 12 -18 -1 -9 3 -20 9 -24 8 -5 9 -3 4 6 -5 9 -4 11 3 6
13 -8 17 -37 5 -35 -20 3 -26 -2 -13 -11 13 -9 13 -10 0 -10 -9 0 -21 5 -27
11 -7 7 -53 15 -104 20 -105 10 -128 21 -168 85 -34 55 -35 84 -2 96 21 7 22
6 11 -7 -12 -14 -11 -15 14 -3 16 7 23 14 17 16 -6 2 -9 8 -6 12 5 8 -27 31
-45 34 -3 1 -4 7 -4 14 1 6 -3 12 -8 12 -6 0 -6 6 1 14 9 11 9 16 0 22 -8 4
-9 3 -5 -4 4 -7 2 -12 -3 -12 -15 0 -14 13 1 28 16 16 19 92 4 86 -24 -9 -16
48 9 72 25 23 34 41 15 29 -5 -3 -11 2 -12 12 -2 33 -3 38 -11 51 -5 6 -6 16
-3 21 6 10 -14 29 -47 46 -30 15 -64 75 -47 85 15 9 50 1 50 -11 0 -5 7 -9 16
-9 17 0 71 -27 92 -47 19 -18 61 -16 68 2 4 8 15 15 26 15 17 0 18 2 8 15 -11
13 -15 13 -21 3 -7 -10 -9 -9 -9 4 0 9 -3 23 -6 32 -9 24 18 20 41 -6z m15859
-309 c-1 -38 -18 -99 -26 -99 -6 0 -8 -7 -5 -15 4 -8 -4 -22 -18 -34 -14 -10
-25 -23 -25 -28 0 -5 -10 -19 -23 -31 -28 -26 -76 -26 -95 0 -7 10 -19 18 -26
18 -17 0 -26 45 -19 83 7 37 37 55 94 58 38 2 51 8 75 35 29 34 70 41 68 13z
m-11234 -1319 c0 -5 9 -10 20 -10 11 0 23 -7 26 -15 4 -8 10 -12 16 -9 5 3 18
-3 29 -15 11 -12 24 -21 30 -21 5 0 17 -16 25 -35 8 -20 21 -38 29 -41 7 -3
12 -11 9 -18 -3 -8 9 -25 25 -39 28 -23 27 -48 -1 -31 -7 5 -8 3 -3 -5 4 -7
16 -11 26 -8 12 3 17 1 12 -6 -4 -6 0 -8 10 -4 17 6 45 -28 33 -41 -3 -3 -6
-1 -6 5 0 15 -29 25 -52 17 -15 -4 -17 -9 -7 -20 6 -8 8 -14 4 -14 -4 0 -13 7
-20 17 -13 17 -40 9 -29 -9 4 -6 1 -9 -7 -6 -8 3 -13 14 -13 26 1 12 -2 19 -7
17 -4 -3 -6 -14 -4 -25 2 -11 0 -20 -6 -20 -5 0 -9 5 -9 11 0 8 -5 8 -15 -1
-10 -8 -15 -9 -15 -2 0 6 -11 0 -25 -13 -28 -28 -82 -34 -91 -10 -4 8 -10 12
-15 9 -5 -3 -16 2 -25 11 -9 9 -21 14 -28 12 -6 -2 -17 3 -24 12 -8 9 -11 11
-8 5 3 -7 -5 -11 -22 -11 -15 0 -53 -8 -85 -17 -55 -16 -71 -16 -139 0 -18 4
-37 1 -53 -10 -28 -19 -35 -20 -35 -6 0 13 -16 33 -49 63 -13 12 -29 27 -35
33 -6 6 -30 23 -53 37 -24 15 -54 47 -69 74 -16 27 -32 51 -37 54 -12 9 22 21
35 12 6 -3 8 -1 5 4 -10 16 46 21 97 8 33 -8 48 -9 56 -1 7 6 10 7 8 1 -4 -12
37 -55 52 -55 6 0 10 -6 10 -12 0 -9 4 -8 10 2 5 8 10 11 10 6 0 -5 6 -3 13 3
8 6 16 8 19 6 5 -5 34 4 85 28 12 5 30 6 40 2 26 -11 62 -12 56 -1 -3 5 0 7 8
4 8 -3 20 1 27 9 7 7 24 13 37 13 13 0 25 4 27 10 2 5 13 11 25 13 12 2 26 6
29 10 11 11 44 8 44 -3z m12126 -46 c19 -2 34 1 34 6 0 20 16 9 32 -22 22 -43
25 -56 13 -56 -5 0 -9 4 -8 8 1 4 -3 10 -10 13 -9 3 -12 -5 -9 -27 4 -41 -29
-101 -56 -101 -20 -1 -78 -53 -68 -62 5 -6 -25 -43 -36 -43 -3 0 -14 7 -22 16
-15 14 -16 13 -14 -7 3 -20 -2 -23 -37 -25 -22 -1 -46 3 -53 9 -10 8 -16 7
-23 -4 -7 -11 -9 -9 -9 9 0 12 4 22 9 22 5 0 14 13 19 30 8 22 15 28 28 23 12
-4 15 -3 10 5 -4 7 -2 12 5 12 7 0 10 -13 7 -35 -4 -37 -2 -40 22 -25 13 8 13
11 1 19 -11 7 -9 10 8 16 19 6 20 9 7 38 -14 36 -11 58 7 51 9 -3 12 8 10 41
-2 35 2 49 20 66 26 25 58 39 71 31 5 -3 24 -6 42 -8z m-3610 -41 c3 9 10 15
15 12 4 -3 48 -8 96 -10 98 -5 130 -10 147 -23 6 -5 29 -14 52 -20 41 -12 88
-44 78 -54 -2 -3 4 -8 15 -11 14 -3 30 6 53 29 19 18 51 40 71 49 34 14 41 14
71 0 40 -19 55 -46 58 -104 2 -34 10 -51 37 -77 23 -23 32 -41 28 -54 -4 -15
0 -20 14 -20 11 0 24 -11 31 -25 7 -16 19 -25 34 -25 13 0 27 -7 32 -15 4 -9
18 -17 29 -19 29 -6 97 75 88 104 -3 11 -12 20 -19 20 -8 0 -19 7 -26 15 -9
11 -16 13 -24 5 -12 -12 -46 -14 -46 -2 0 16 18 34 28 28 17 -10 42 5 42 26 0
11 8 22 20 25 11 3 20 10 20 17 0 6 7 3 14 -7 14 -18 14 -18 19 0 4 14 5 12 6
-6 1 -19 4 -21 15 -12 11 10 20 10 37 0 13 -6 24 -8 26 -3 2 5 21 8 43 6 25
-3 40 0 40 7 0 6 9 11 20 11 11 0 20 -6 20 -12 0 -15 -20 -48 -20 -34 0 5 -7
3 -15 -4 -12 -10 -13 -16 -4 -26 6 -8 15 -12 19 -9 4 2 10 -16 13 -41 2 -26
11 -50 18 -55 8 -5 10 -9 6 -9 -5 0 -5 -6 0 -12 12 -20 12 -38 1 -38 -14 0 10
-28 34 -41 10 -5 18 -6 17 -2 -5 28 2 33 24 18 13 -8 26 -13 28 -11 3 3 5 -4
5 -14 0 -11 -6 -20 -13 -20 -7 0 -13 -7 -13 -16 0 -9 -9 -18 -20 -21 -19 -5
-20 -12 -16 -74 5 -68 5 -69 -24 -84 -16 -8 -49 -15 -74 -15 -25 0 -48 -4 -51
-10 -3 -5 -34 -10 -68 -10 -58 0 -138 -20 -163 -41 -6 -5 -57 -14 -113 -19
-56 -5 -107 -12 -112 -16 -17 -10 -144 -5 -147 6 -2 5 -7 8 -12 5 -4 -2 -35
26 -69 64 -56 62 -64 67 -98 66 -21 -1 -48 5 -60 13 -12 7 -24 13 -27 13 -16
-3 -23 1 -49 24 -30 28 -35 56 -13 78 9 9 11 19 6 28 -6 8 -5 16 2 20 8 5 6
12 -5 23 -18 19 -61 13 -89 -12 -10 -8 -24 -12 -33 -9 -25 10 -42 -2 -39 -29
1 -14 -3 -24 -10 -24 -7 0 -13 -6 -13 -14 0 -9 7 -12 16 -8 9 3 5 -4 -8 -15
-19 -15 -21 -22 -11 -28 9 -5 11 -4 6 3 -4 7 -3 12 3 12 5 0 12 -4 16 -10 3
-5 -13 -14 -35 -20 -29 -8 -40 -16 -40 -30 0 -13 -6 -18 -24 -16 -18 2 -23 -2
-22 -17 1 -11 -5 -22 -12 -25 -7 -2 -12 0 -11 5 4 20 -2 23 -17 9 -8 -9 -13
-20 -10 -25 3 -5 -4 -11 -17 -15 -13 -4 -18 -9 -11 -13 18 -13 11 -57 -10 -70
-18 -11 -19 -12 -3 -13 9 0 17 -6 18 -12 0 -10 2 -10 5 -1 3 7 12 9 20 6 24
-9 5 -23 -32 -23 -19 0 -34 -5 -34 -11 0 -5 -4 -7 -10 -4 -5 3 -10 1 -10 -4 0
-6 6 -11 13 -12 6 0 -3 -7 -21 -15 -21 -9 -30 -19 -26 -27 5 -6 -1 -5 -11 3
-17 14 -18 14 -6 -7 7 -15 8 -23 1 -23 -5 0 -10 5 -10 10 0 6 -5 10 -11 10 -5
0 -8 -4 -5 -9 3 -5 -10 -9 -30 -9 -20 0 -41 -5 -47 -11 -7 -7 -15 -7 -26 2
-10 8 -13 8 -8 0 5 -7 -4 -11 -28 -10 -19 1 -35 5 -35 11 0 6 -5 5 -11 -1 -13
-13 -39 -6 -39 9 0 5 4 7 9 4 5 -3 11 1 15 9 3 8 12 15 21 15 8 0 15 4 15 9 0
5 -23 7 -51 6 -37 -2 -52 1 -56 12 -4 10 -8 11 -13 3 -11 -17 -90 -21 -90 -4
0 8 -5 14 -11 14 -5 0 -7 -4 -4 -10 5 -9 -15 -15 -37 -11 -5 0 -8 -7 -8 -17
-1 -15 -2 -15 -10 -1 -10 18 -55 18 -73 0 -6 -6 -18 -6 -34 0 -13 5 -22 5 -19
1 8 -13 -48 -8 -63 6 -8 8 -23 11 -35 8 -20 -5 -20 -5 -2 9 18 13 18 15 2 21
-10 4 -15 13 -12 21 3 7 -1 16 -8 19 -8 3 -13 13 -11 22 2 9 4 17 5 17 3 0 13
74 14 108 1 20 3 37 6 37 4 0 12 16 19 36 9 24 18 34 27 30 8 -3 21 5 30 19 9
14 20 23 24 20 10 -6 30 18 35 43 6 31 24 62 38 63 20 2 42 -3 47 -10 18 -27
203 -31 251 -5 18 9 30 10 34 4 3 -6 20 -10 36 -10 18 0 28 4 24 10 -3 6 -2
10 4 10 5 0 13 -4 16 -10 7 -12 55 -14 55 -2 0 4 10 8 23 8 31 3 55 9 63 17 4
4 2 7 -4 7 -20 0 -13 32 8 37 29 8 24 30 -11 48 -50 26 -66 86 -50 184 1 2 8
-2 16 -9 12 -10 18 -9 31 5 10 10 25 14 39 11 12 -3 25 -2 29 1 4 4 17 8 29 8
16 0 23 8 29 39 9 43 31 65 65 66 12 0 25 5 28 11 4 6 16 -1 30 -18 21 -23 25
-25 31 -10z m-11318 -45 c7 -6 10 -18 7 -26 -4 -11 0 -13 17 -7 13 3 49 12 80
19 54 13 58 12 77 -8 49 -53 94 -87 101 -76 5 8 9 7 13 -4 4 -9 17 -16 29 -16
25 0 68 -25 68 -40 0 -5 -7 -7 -15 -4 -8 4 -15 1 -15 -4 0 -6 -16 -14 -35 -18
-34 -6 -62 -35 -51 -52 3 -5 -4 -21 -15 -38 -10 -16 -19 -41 -19 -57 l0 -27
-58 30 -58 30 -51 -22 c-29 -12 -56 -31 -61 -43 -9 -19 -16 -21 -68 -17 -33 2
-61 7 -64 11 -9 12 -50 31 -65 31 -8 0 -15 7 -15 15 0 9 -11 21 -25 27 -18 8
-22 14 -13 19 9 6 9 11 -1 23 -11 13 -11 16 0 16 12 0 12 2 0 9 -7 5 -11 14
-7 19 4 6 3 19 -2 29 -20 39 -43 124 -36 134 3 6 13 8 21 5 9 -4 22 -1 29 5
11 9 14 8 14 -2 1 -10 5 -8 15 5 10 14 23 17 55 14 32 -3 39 -1 35 10 -4 10 0
13 15 9 11 -3 22 -2 24 1 7 12 60 11 74 0z m5554 -181 c-9 -11 0 -13 46 -15
104 -2 127 -4 115 -9 -7 -2 -9 -11 -6 -19 3 -7 9 -12 13 -9 5 3 21 -7 36 -22
l27 -28 -24 35 c-14 22 -17 30 -7 22 10 -8 23 -10 29 -6 7 4 9 3 6 -3 -3 -5 0
-19 8 -30 12 -17 23 -20 56 -17 29 3 39 0 36 -9 -2 -7 -18 -11 -35 -10 -27 1
-31 -1 -23 -15 5 -9 25 -30 45 -46 40 -31 43 -41 22 -62 -16 -16 -30 -19 -21
-5 7 13 -26 30 -44 23 -9 -3 -11 0 -6 8 5 9 3 10 -11 2 -11 -5 -32 -7 -47 -5
-16 2 -26 0 -23 -5 10 -16 -44 -21 -59 -6 -16 16 -41 18 -50 4 -3 -5 -15 -10
-26 -10 -13 0 -18 -4 -13 -12 4 -6 3 -8 -4 -4 -6 3 -9 15 -7 26 3 14 0 18 -8
13 -17 -11 -56 -10 -54 2 1 5 -5 8 -13 6 -8 -2 -28 -6 -45 -8 -25 -3 -27 -2
-12 7 21 14 23 34 1 26 -8 -3 -13 -2 -9 3 3 5 1 11 -5 13 -6 2 10 24 35 51 25
26 42 47 38 47 -4 0 -2 4 6 9 8 5 15 18 16 28 1 20 13 43 22 43 3 0 1 -6 -5
-13z"/>
<path d="M1137 3533 c-14 -4 -16 -11 -11 -39 5 -29 4 -33 -10 -28 -20 8 -20 0
0 -32 9 -13 14 -27 11 -31 -4 -3 -11 6 -16 20 -12 30 -27 41 -36 27 -4 -6 1
-20 10 -30 9 -10 14 -23 11 -29 -4 -5 4 -11 16 -13 17 -2 23 -9 22 -26 -1 -17
2 -20 11 -12 9 7 15 8 19 1 6 -10 -27 -34 -35 -26 -2 2 -4 -12 -4 -31 0 -19 2
-34 5 -34 13 0 50 32 49 43 0 9 -2 8 -6 -1 -2 -6 -10 -9 -15 -6 -7 5 -8 2 -3
-6 5 -9 4 -11 -3 -6 -19 12 -14 23 13 30 17 4 23 11 19 24 -5 13 -4 14 4 3 6
-8 18 -11 32 -6 12 4 19 9 16 13 -3 3 1 16 9 29 9 13 17 40 19 61 3 20 5 42 6
47 6 26 -1 37 -20 32 -11 -3 -18 -2 -15 3 8 14 -64 30 -98 23z"/>
<path d="M6120 2201 c0 -2 7 -13 16 -23 14 -14 14 -20 4 -33 -7 -8 -20 -14
-29 -13 -12 2 -16 -5 -16 -31 0 -26 -5 -36 -22 -42 -13 -5 -23 -11 -23 -13 0
-3 6 -3 14 0 9 4 20 -5 29 -23 13 -25 13 -31 0 -48 -13 -16 -15 -17 -10 -2 4
10 1 17 -6 17 -19 0 -15 -50 6 -61 13 -8 17 -6 18 8 1 10 1 22 0 26 -2 11 41
-2 54 -16 7 -7 6 -8 -1 -4 -6 3 -18 -3 -27 -14 -16 -18 -16 -19 1 -19 15 0 15
-2 2 -11 -12 -8 -11 -9 5 -6 11 2 19 9 17 16 -1 7 2 9 9 6 8 -5 8 -10 0 -18
-8 -8 -6 -16 6 -29 11 -13 12 -18 3 -18 -10 0 -10 -4 1 -17 7 -10 10 -15 5
-11 -4 4 -19 3 -32 -2 -17 -7 -26 -5 -31 5 -4 7 -15 15 -23 17 -8 2 -30 21
-48 43 -19 22 -42 44 -51 49 -9 5 -19 14 -23 20 -4 6 -10 7 -14 3 -4 -4 -12
-3 -18 2 -7 6 -21 4 -36 -4 -22 -12 -23 -14 -7 -20 9 -4 17 -16 17 -27 0 -10
-4 -16 -10 -13 -5 3 -10 -1 -10 -10 0 -9 4 -14 9 -11 5 3 12 -10 15 -29 5 -26
12 -35 26 -35 16 0 50 -44 50 -65 0 -11 -28 -4 -40 10 -17 21 -27 19 -34 -8
-3 -13 -16 -29 -28 -34 -22 -10 -22 -11 -4 -19 11 -4 41 -3 68 3 40 8 50 7 63
-7 8 -9 15 -24 15 -33 0 -9 5 -17 10 -17 6 0 10 5 10 11 0 5 5 7 10 4 6 -4 9
-22 8 -40 -4 -42 12 -47 32 -9 15 26 18 118 6 150 -11 28 29 40 144 43 63 2
118 5 123 8 4 2 7 -1 7 -7 0 -8 9 -10 25 -6 22 6 25 3 25 -19 0 -14 -4 -25
-10 -25 -5 0 -10 5 -10 11 0 5 -5 7 -11 3 -7 -4 -1 -17 19 -35 27 -25 37 -28
108 -30 104 -3 109 -4 130 -50 11 -21 25 -39 32 -39 6 0 12 -9 12 -20 0 -17 3
-18 26 -8 33 16 41 3 43 -71 1 -31 3 -67 5 -81 2 -14 4 -31 5 -39 0 -7 7 -11
16 -7 8 3 15 1 15 -4 0 -6 7 -10 15 -10 8 0 15 -6 15 -12 0 -21 -14 -35 -31
-33 -9 2 -16 -4 -16 -11 0 -8 2 -12 5 -9 3 2 18 -3 33 -12 20 -12 27 -23 23
-35 -3 -11 4 -23 20 -34 15 -9 31 -33 38 -55 6 -21 15 -40 20 -40 13 -2 21 -5
43 -14 11 -5 34 -9 53 -8 18 0 35 -4 38 -8 3 -5 17 -9 31 -9 33 0 93 -39 93
-61 0 -9 8 -23 17 -30 10 -8 14 -9 10 -2 -4 6 -2 15 5 19 7 4 10 4 6 -1 -10
-11 11 -47 22 -40 6 3 7 -1 4 -9 -4 -11 0 -16 10 -16 9 0 19 -7 22 -15 4 -8
10 -15 15 -15 6 0 5 9 -1 21 -7 11 -9 23 -6 27 3 3 6 1 6 -4 0 -5 4 -15 9 -23
8 -13 12 -13 28 -1 17 14 17 14 1 -6 -19 -22 -24 -39 -10 -30 5 3 18 -3 28
-13 11 -9 25 -16 32 -13 6 2 12 -1 12 -7 0 -11 -14 -15 -34 -12 -5 1 -4 -5 4
-13 7 -9 17 -16 22 -16 15 0 35 24 30 38 -2 6 4 12 13 12 9 0 13 4 10 10 -4 6
1 7 10 3 12 -4 16 -14 13 -33 -3 -20 0 -26 9 -23 7 3 10 9 7 14 -3 5 2 9 12 9
25 0 58 41 42 52 -13 8 5 12 41 11 9 -1 10 2 3 9 -7 7 -7 19 -2 34 5 13 7 24
4 24 -4 0 0 8 7 17 8 9 9 14 2 10 -12 -7 -30 29 -20 40 3 3 -5 16 -19 30 -13
13 -21 29 -18 35 5 7 1 9 -9 5 -10 -3 -17 -2 -17 2 0 5 5 11 12 13 7 3 5 7 -6
11 -9 4 -15 3 -12 -2 3 -5 -1 -14 -9 -21 -13 -10 -15 -9 -15 10 0 16 -4 20
-16 16 -24 -9 -35 3 -23 26 9 18 8 19 -10 13 -12 -4 -21 -2 -21 4 0 6 -6 8
-13 5 -7 -2 -21 3 -32 12 -11 8 -15 13 -9 10 7 -3 15 1 18 10 4 9 9 14 13 11
3 -4 12 -2 20 5 11 9 13 8 11 -2 -2 -10 7 -14 35 -13 20 1 35 -2 32 -7 -7 -11
13 -7 60 14 56 26 94 28 90 7 -2 -11 4 -17 17 -18 20 -2 20 -1 2 12 -17 12
-16 13 9 8 16 -3 27 -1 27 6 0 6 -3 10 -7 10 -19 -3 -25 2 -14 14 8 10 7 14
-3 14 -8 0 -13 -8 -11 -19 2 -10 0 -16 -6 -13 -5 4 -9 12 -9 19 0 20 -24 66
-35 66 -14 1 -106 96 -99 102 3 3 -3 8 -12 12 -12 5 -15 2 -10 -11 6 -15 4
-15 -14 2 -11 10 -23 15 -26 12 -4 -3 -13 0 -20 8 -8 8 -22 11 -31 8 -11 -4
-14 -3 -9 5 6 11 -5 17 -26 13 -5 0 -8 6 -8 14 0 8 -6 16 -12 16 -7 1 -17 2
-23 4 -5 1 -16 3 -24 3 -8 1 -11 8 -7 18 3 8 2 12 -4 9 -13 -8 -49 26 -43 41
3 8 0 14 -6 14 -6 0 -11 5 -11 10 0 6 6 10 14 10 8 0 17 4 20 9 8 12 -4 41
-16 41 -5 0 -6 -4 -3 -10 3 -5 1 -10 -4 -10 -6 0 -10 -3 -9 -7 0 -5 -3 -17 -7
-27 -6 -13 -4 -21 3 -24 7 -2 10 -8 6 -13 -3 -5 -10 -7 -15 -4 -13 9 -11 55 3
55 6 0 3 9 -7 20 -14 15 -15 19 -4 15 10 -4 15 1 16 15 1 11 -3 20 -8 20 -6 0
-7 -4 -4 -10 9 -14 -18 -12 -34 3 -11 10 -13 9 -8 -5 4 -12 1 -18 -9 -18 -8 0
-12 5 -9 10 3 6 2 10 -4 10 -6 0 -8 7 -5 15 4 10 14 14 28 10 20 -6 21 -6 1 6
-11 7 -23 17 -27 23 -5 7 -8 7 -8 1 0 -6 -9 -16 -21 -23 -12 -8 -18 -9 -15 -4
10 16 -5 42 -23 41 -10 0 -11 -2 -3 -6 6 -2 12 -9 12 -14 0 -6 -5 -7 -11 -4
-6 4 -9 0 -7 -10 2 -10 -4 -20 -12 -22 -12 -4 -12 -3 -1 5 10 7 10 11 1 17 -7
4 -16 1 -21 -6 -6 -9 -7 -4 -3 16 4 17 8 32 10 33 7 10 -19 61 -29 55 -19 -11
-121 -11 -142 0 -11 6 -23 12 -27 13 -5 1 -9 3 -10 4 -2 1 -14 3 -28 4 -14 2
-33 6 -42 10 -9 4 -22 5 -28 1 -6 -4 -10 -3 -9 2 3 20 -2 25 -16 13 -9 -7 -15
-8 -15 -2 0 6 -22 16 -48 22 -34 9 -48 18 -49 31 -1 10 2 21 8 24 5 4 9 12 9
18 0 8 -3 7 -9 -2 -12 -18 -61 -6 -61 15 0 12 -2 12 -14 2 -10 -9 -11 -15 -2
-20 7 -5 5 -8 -6 -8 -10 0 -19 8 -19 18 -1 9 -4 4 -8 -12 -3 -16 -13 -31 -21
-33 -12 -4 -12 -3 -1 5 9 7 10 12 2 16 -6 4 -8 13 -4 19 4 7 -2 5 -12 -3 -14
-11 -17 -11 -11 -1 7 10 3 12 -15 6 -13 -3 -19 -3 -13 2 8 5 8 16 3 32 -8 19
-12 21 -24 11 -13 -11 -14 -10 -9 4 4 9 3 16 -2 14 -5 -2 -11 2 -12 7 -8 23
-24 32 -47 27 -14 -2 -23 -8 -20 -12 3 -4 -15 -2 -39 5 -28 9 -47 10 -50 4 -2
-5 -3 -4 -2 3 3 14 -35 48 -54 48 -7 0 -6 8 4 22 20 28 20 42 2 35 -9 -4 -13
-1 -10 6 3 8 -4 13 -16 13 -11 0 -20 -2 -20 -5z"/>
<path d="M6160 1504 c0 -9 6 -14 13 -11 8 3 14 -3 14 -14 2 -16 -2 -17 -17 -9
-25 13 -33 -1 -20 -35 7 -18 15 -25 25 -21 12 4 15 -4 15 -44 0 -54 -16 -75
-26 -35 -3 13 -10 22 -15 19 -14 -8 1 -75 22 -102 10 -13 16 -29 13 -37 -4
-10 2 -13 23 -10 15 1 27 8 26 14 -2 6 2 11 7 11 12 0 13 67 1 74 -10 6 9 56
21 56 4 0 2 13 -3 30 -6 16 -14 28 -19 25 -4 -2 -5 6 -3 19 3 13 -2 30 -11 39
-9 8 -16 23 -16 31 0 10 -9 16 -25 16 -16 0 -25 -6 -25 -16z"/>
</g>
</svg>
