<?xml version="1.0" standalone="no"?>
<!DOCTYPE svg PUBLIC "-//W3C//DTD SVG 20010904//EN"
 "http://www.w3.org/TR/2001/REC-SVG-20010904/DTD/svg10.dtd">
<svg version="1.0" xmlns="http://www.w3.org/2000/svg"
 width="1920.000000pt" height="1115.000000pt" viewBox="0 0 1920.000000 1115.000000"
 preserveAspectRatio="xMidYMid meet">
<metadata>
Created by potrace 1.16, written by Peter Selinger 2001-2019
</metadata>
<g transform="translate(0.000000,1115.000000) scale(0.100000,-0.100000)"
fill="#000000" stroke="none">
<path d="M0 8271 c0 -2732 1 -2879 17 -2886 10 -5 43 -9 73 -11 30 -2 84 -6
120 -9 36 -4 113 -8 172 -10 58 -1 110 -5 115 -7 4 -2 38 -4 75 -4 38 1 68 -3
68 -8 0 -4 11 -6 25 -4 13 3 27 0 30 -6 3 -8 7 -7 11 1 4 10 11 9 28 -2 12 -8
26 -12 29 -8 4 3 7 1 7 -6 0 -7 5 -9 10 -6 6 4 8 10 5 15 -3 4 6 3 19 -3 13
-7 22 -16 18 -22 -3 -5 1 -5 9 2 9 7 20 8 29 3 8 -5 18 -6 22 -4 4 3 8 2 8 -3
0 -4 14 -9 31 -9 17 -1 35 -7 39 -14 4 -7 32 -13 61 -15 30 -1 66 -7 80 -13
15 -6 29 -8 33 -5 3 3 13 2 23 -2 10 -4 34 -9 53 -11 19 -2 51 -6 70 -9 19 -3
58 -6 85 -7 28 -2 56 -7 64 -12 8 -5 16 -4 22 5 7 11 9 11 9 1 0 -7 4 -10 10
-7 5 3 10 3 10 -2 0 -4 15 -9 33 -10 113 -9 206 -24 213 -35 3 -5 18 -8 32 -7
15 1 35 -1 44 -5 9 -4 22 -5 28 -1 5 3 10 1 10 -4 0 -6 13 -11 29 -11 17 0 33
-5 36 -11 4 -5 17 -9 30 -7 12 1 29 -3 38 -11 9 -7 22 -11 29 -9 7 3 34 -6 59
-19 26 -13 52 -23 59 -23 6 0 18 -7 27 -15 8 -8 19 -13 24 -9 5 3 12 -1 15
-10 3 -8 12 -12 20 -9 8 3 23 -2 32 -11 30 -29 92 -66 112 -66 10 0 20 -5 22
-11 2 -5 26 -11 53 -13 28 -1 58 -6 68 -9 9 -4 25 -10 35 -14 20 -8 34 -10 90
-14 23 -2 42 -6 42 -9 0 -4 24 -8 53 -9 29 -1 64 -4 78 -7 13 -3 44 -8 69 -10
24 -3 48 -10 52 -17 5 -8 8 -8 8 -1 0 7 23 11 63 11 34 1 85 1 112 2 75 2 83
1 96 -15 6 -8 17 -14 24 -14 7 0 18 -6 24 -14 9 -10 8 -15 -3 -19 -17 -7 -43
-57 -86 -162 -156 -385 -224 -535 -244 -535 -4 0 -5 12 -1 27 16 57 12 68 -20
69 -29 0 -107 -32 -113 -47 -5 -11 -32 1 -32 13 0 19 -40 60 -76 78 -28 15
-41 17 -62 8 -52 -20 -70 -18 -77 10 -4 15 -16 42 -27 60 -20 33 -20 33 -38
12 -15 -18 -19 -18 -30 -5 -9 11 -11 43 -7 123 3 59 9 118 13 132 7 25 7 25
-25 -5 -20 -19 -37 -49 -48 -85 -8 -30 -23 -62 -33 -71 -9 -9 -27 -43 -40 -75
-13 -33 -31 -77 -40 -99 -9 -22 -29 -71 -45 -110 -15 -38 -42 -106 -60 -150
-18 -44 -40 -100 -48 -125 -9 -25 -29 -82 -46 -128 -17 -46 -31 -92 -31 -103
0 -32 -17 -21 -24 16 -4 19 -6 68 -5 110 1 42 -1 78 -5 82 -3 3 -21 -10 -38
-30 -52 -56 -116 -129 -144 -165 -15 -18 -28 -31 -31 -28 -5 4 11 237 27 386
30 290 45 490 42 545 l-2 30 -19 -29 c-11 -17 -18 -33 -15 -37 2 -4 -1 -11 -7
-15 -8 -4 -9 -3 -5 4 4 7 5 12 2 12 -3 0 -10 -10 -17 -21 -7 -15 -8 -19 0 -15
7 5 9 1 5 -8 -3 -9 -9 -14 -14 -11 -11 7 -30 -41 -31 -78 0 -25 -2 -28 -8 -13
-7 18 -8 18 -14 3 -3 -9 -4 -25 0 -34 3 -10 2 -15 -2 -11 -9 8 -50 -51 -41
-59 2 -3 10 5 16 17 24 44 19 11 -6 -44 -14 -32 -28 -55 -31 -52 -2 2 1 14 7
26 6 12 10 24 7 26 -2 2 -21 -37 -43 -88 -21 -51 -62 -128 -91 -170 -29 -43
-64 -108 -78 -145 -99 -256 -154 -341 -171 -265 -3 15 -12 49 -20 76 -8 27
-14 68 -14 91 0 28 -6 47 -18 58 -26 23 -29 22 -51 -20 -27 -53 -133 -156
-143 -140 -13 20 12 639 28 690 11 36 -14 15 -41 -35 -16 -29 -48 -83 -71
-119 -23 -36 -81 -146 -129 -245 -47 -98 -90 -187 -96 -197 -10 -18 -82 -163
-107 -217 l-12 -25 6 25 c3 14 12 42 21 63 24 56 6 69 -48 32 -38 -27 -42 -28
-54 -12 -20 28 -36 178 -40 396 -3 113 -7 206 -9 208 -14 14 -245 -379 -294
-502 -32 -78 -80 -151 -108 -164 -18 -8 -21 -7 -17 9 3 11 -4 24 -17 33 -19
13 -22 22 -16 63 3 30 1 53 -6 62 -14 16 -16 178 -4 292 7 69 6 73 -8 55 -14
-18 -15 -236 -16 -2012 l0 -1993 9600 0 9600 0 0 5575 0 5575 -9600 0 -9600 0
0 -2879z m3304 -3566 c-4 -8 -2 -15 4 -15 5 0 12 7 16 15 4 12 16 14 53 9 26
-3 50 -9 53 -14 3 -4 23 -7 45 -6 48 4 91 -10 99 -30 3 -9 11 -12 17 -8 6 3 4
-5 -5 -18 -15 -23 -15 -26 1 -39 15 -12 16 -12 9 1 -4 8 0 6 8 -4 9 -11 16
-16 16 -12 0 5 6 3 14 -3 11 -10 16 -8 21 9 4 12 9 20 11 17 2 -2 -7 -47 -20
-99 -14 -52 -30 -125 -36 -162 -16 -102 -47 -176 -73 -177 -68 -2 -147 2 -183
9 -30 6 -46 5 -59 -5 -26 -18 -48 -16 -78 7 -22 17 -26 28 -26 73 0 28 8 86
18 127 10 41 19 98 20 125 2 65 6 92 20 140 15 55 19 60 58 74 1 1 0 -6 -3
-14z m3504 -707 c-3 -8 -54 -19 -139 -30 -74 -10 -222 -31 -329 -48 -223 -34
-233 -35 -208 -16 10 7 15 15 12 18 -2 3 4 8 16 11 11 3 20 1 20 -5 0 -6 10
-3 23 5 15 9 41 14 70 12 26 -1 45 0 43 4 -2 3 13 5 34 3 36 -4 399 44 409 54
10 10 52 3 49 -8z m-4230 -170 c-40 -51 -86 -112 -102 -135 -16 -24 -30 -43
-32 -43 -2 0 -3 42 -2 94 2 89 3 95 26 105 20 10 25 9 29 -8 4 -15 11 -18 36
-14 18 3 35 10 39 16 21 35 73 94 76 86 2 -4 -30 -50 -70 -101z m3542 85 c0
-5 -4 -13 -8 -19 -6 -8 -656 -114 -957 -155 -44 -6 -111 -15 -150 -20 -38 -5
-122 -14 -185 -19 -63 -5 -173 -16 -245 -24 -155 -19 -148 -18 -140 -6 3 6 22
10 41 10 20 0 43 4 52 9 9 5 73 14 142 20 164 16 187 19 239 31 31 8 47 8 55
0 14 -14 37 -13 50 4 6 9 35 17 66 19 30 3 105 14 165 25 61 11 153 25 205 32
52 6 99 15 105 19 9 8 98 19 205 25 19 2 43 6 53 10 9 5 28 5 42 2 15 -4 25
-2 25 4 0 6 6 10 13 9 6 -1 19 0 27 4 33 12 80 16 86 6 4 -7 10 -6 19 1 8 7
24 9 37 5 18 -5 20 -4 8 4 -12 8 -8 11 18 11 17 0 32 -3 32 -7z"/>
</g>
</svg>
