<?xml version="1.0" standalone="no"?>
<!DOCTYPE svg PUBLIC "-//W3C//DTD SVG 20010904//EN"
 "http://www.w3.org/TR/2001/REC-SVG-20010904/DTD/svg10.dtd">
<svg version="1.0" xmlns="http://www.w3.org/2000/svg"
 width="1170.000000pt" height="98.000000pt" viewBox="0 0 1170.000000 98.000000"
 preserveAspectRatio="xMidYMid meet">

<g transform="translate(0.000000,98.000000) scale(0.100000,-0.100000)"
fill="#000000" stroke="none">
<path d="M2990 695 l0 -118 20 18 c20 18 21 18 27 -4 4 -17 11 -21 27 -16 11
3 36 8 54 12 l32 6 0 -164 c0 -153 -1 -164 -22 -186 l-21 -23 36 0 c31 0 37
-4 37 -20 0 -20 5 -21 93 -18 86 3 92 4 88 23 -3 11 -6 97 -8 192 -4 168 -3
172 18 183 20 11 51 10 112 -5 l27 -7 0 86 c0 70 -3 86 -15 86 -10 0 -15 10
-15 30 0 35 -10 38 -35 10 -17 -19 -31 -20 -209 -20 l-190 0 -28 27 -28 27 0
-119z m254 47 l206 3 0 -55 0 -55 -80 3 -80 4 0 -189 c0 -134 4 -193 12 -201
9 -9 -5 -12 -62 -12 l-75 0 3 201 3 201 -81 -4 -80 -3 0 64 c0 54 2 62 14 52
10 -9 73 -11 220 -9z"/>
<path d="M8001 786 l-24 -26 -180 0 -180 0 21 -23 c21 -22 22 -31 22 -247 0
-218 -1 -224 -22 -248 l-23 -25 33 17 33 17 -3 244 -3 245 156 0 c107 0 159 4
167 12 9 9 12 -2 12 -52 l0 -65 -105 3 -105 3 0 -56 0 -57 95 4 95 3 0 -65 c0
-50 -3 -61 -12 -52 -7 7 -44 12 -95 12 l-83 0 0 -89 c0 -65 4 -90 13 -94 26
-10 41 12 47 65 l5 53 54 3 c29 2 67 -2 84 -7 17 -6 32 -9 34 -7 4 3 7 103 4
150 -1 21 -5 27 -16 22 -11 -4 -15 2 -15 25 0 26 2 29 19 19 11 -5 22 -10 25
-10 3 0 6 41 6 90 0 72 -3 90 -14 90 -10 0 -16 13 -18 36 l-3 36 -24 -26z
m-26 -216 c-13 -15 -31 -20 -67 -20 -26 0 -48 4 -48 10 0 17 35 29 84 30 48 0
49 0 31 -20z"/>
<path d="M8070 695 c0 -116 0 -118 19 -101 18 17 20 16 26 -4 5 -17 12 -20 28
-16 12 4 37 9 55 13 l32 6 0 -165 c0 -134 -3 -168 -15 -178 -22 -18 -9 -30 36
-30 21 0 39 -4 39 -10 0 -5 -8 -10 -17 -10 -17 -1 -17 -1 -1 -11 10 -5 53 -9
95 -7 72 3 78 5 74 23 -3 11 -6 97 -8 192 -4 168 -3 172 18 183 20 11 51 10
112 -5 l27 -7 0 86 c0 70 -3 86 -15 86 -10 0 -15 10 -15 30 0 35 -10 38 -35
10 -17 -19 -31 -20 -209 -20 l-190 0 -28 27 -28 27 0 -119z m254 47 l206 3 0
-55 0 -55 -80 3 -80 4 0 -189 c0 -134 4 -193 12 -201 9 -9 -5 -12 -62 -12
l-75 0 3 201 3 201 -81 -4 -80 -3 0 64 c0 53 2 62 14 52 10 -8 74 -11 220 -9z"/>
<path d="M11061 786 l-24 -26 -185 0 -185 0 21 -23 c21 -22 22 -31 22 -247 0
-216 -1 -225 -22 -247 l-21 -23 35 0 c27 0 37 -5 41 -19 4 -18 17 -20 183 -23
99 -2 186 -6 194 -8 12 -4 16 9 18 75 3 71 1 81 -18 95 -18 13 -22 30 -27 108
-4 68 -10 92 -19 92 -8 0 -14 9 -14 20 0 23 3 24 30 8 30 -19 40 3 40 82 0 67
-10 97 -28 86 -7 -4 -12 9 -14 35 l-3 41 -24 -26z m9 -88 l0 -63 -110 3 -110
3 0 -51 0 -51 90 3 90 3 0 -50 0 -50 -90 3 -90 3 0 -56 0 -56 115 3 115 3 0
-55 0 -55 -182 3 c-137 2 -178 6 -170 14 17 17 17 459 0 476 -9 9 25 12 154
12 101 0 169 4 173 10 12 20 15 9 15 -52z m-52 -120 c-5 -14 -61 -23 -86 -13
-14 5 -14 7 -2 15 23 15 92 12 88 -2z m26 -194 c36 -14 12 -24 -54 -24 -64 0
-81 6 -63 23 8 9 96 9 117 1z"/>
<path d="M4925 780 c-17 -19 -32 -20 -203 -20 l-185 0 21 -23 c21 -22 22 -31
22 -247 0 -216 -1 -225 -22 -247 l-21 -23 37 0 c30 0 36 -3 34 -17 -3 -16 13
-18 177 -23 99 -3 188 -9 198 -14 14 -7 18 -2 23 23 8 37 42 43 62 11 11 -19
21 -21 90 -18 l77 3 6 49 c6 58 26 76 85 76 54 0 68 -28 33 -66 l-22 -24 35 0
c27 0 37 -5 41 -20 5 -18 14 -20 86 -20 70 0 83 3 93 20 18 28 74 28 81 0 5
-19 12 -21 94 -18 88 3 88 3 85 28 -8 57 -6 133 3 137 6 1 23 -17 39 -42 27
-44 28 -47 11 -65 -18 -19 -17 -20 12 -20 22 0 32 -6 36 -20 5 -18 14 -20 96
-20 73 0 93 3 98 15 3 10 -17 50 -51 100 -31 47 -56 89 -56 95 0 6 13 28 29
50 16 23 32 58 36 79 12 72 -39 165 -115 209 -41 24 -110 39 -110 24 0 -5 18
-12 40 -16 51 -8 106 -56 121 -106 16 -54 4 -105 -37 -149 -19 -21 -34 -42
-34 -46 0 -4 29 -49 65 -101 l66 -94 -81 0 c-49 0 -79 4 -75 10 3 5 -18 45
-47 89 -48 73 -56 81 -85 81 l-33 0 0 -78 c0 -47 5 -83 12 -90 9 -9 -5 -12
-66 -12 -61 0 -76 3 -69 13 6 6 9 53 9 102 -1 50 -3 155 -4 235 -2 98 -5 140
-12 130 -6 -9 -10 -111 -10 -236 0 -208 -1 -222 -20 -239 -11 -10 -22 -16 -25
-13 -3 2 -37 96 -75 209 -48 137 -70 215 -68 239 3 30 0 35 -20 38 -17 3 -21
7 -13 16 9 10 -9 14 -87 19 -53 4 -115 7 -136 7 l-39 0 20 -22 21 -23 -88
-228 c-49 -126 -91 -231 -94 -234 -3 -4 -6 8 -6 25 0 39 -9 62 -25 62 -13 0
-25 71 -25 153 0 40 -3 47 -20 47 -11 0 -20 6 -20 14 0 22 21 31 32 13 5 -9
15 -14 23 -11 22 9 22 184 0 184 -9 0 -15 9 -15 24 0 34 -14 40 -35 16z m5
-87 l0 -58 -105 3 -105 3 0 -51 0 -51 90 3 90 3 0 -50 0 -50 -90 3 -90 3 0
-56 0 -56 115 3 115 3 0 -55 0 -55 -177 3 -178 3 0 247 0 247 165 5 c91 3 166
7 168 8 1 1 2 -24 2 -55z m454 34 c-2 -7 31 -119 76 -247 44 -129 80 -235 80
-237 0 -2 -35 -3 -77 -3 -55 0 -74 3 -66 11 8 8 6 25 -5 60 -15 46 -18 49 -51
51 -33 1 -101 1 -127 -1 -13 -1 -48 -97 -39 -111 4 -6 -18 -10 -64 -10 -39 0
-71 2 -71 4 0 2 32 87 71 188 95 248 110 289 103 299 -3 5 35 9 85 9 71 0 89
-3 85 -13z m-504 -152 c-13 -16 -90 -21 -90 -6 0 13 19 19 64 20 33 1 37 -1
26 -14z m34 -191 c33 -13 2 -24 -65 -24 -64 0 -80 6 -62 23 8 9 106 9 127 1z"/>
<path d="M5283 583 c-3 -10 -14 -40 -25 -66 -10 -26 -18 -50 -18 -52 0 -3 23
-5 50 -5 28 0 50 2 50 4 0 12 -42 136 -46 136 -2 0 -7 -8 -11 -17z"/>
<path d="M9284 780 c-20 -20 -25 -21 -85 -10 -209 38 -373 -87 -372 -286 0
-90 24 -144 98 -213 80 -76 130 -96 240 -96 91 0 153 14 180 42 11 10 15 37
15 99 0 47 5 94 10 104 8 15 6 21 -11 31 -15 8 -18 14 -10 22 23 23 7 27 -109
27 -66 0 -120 -4 -120 -8 0 -5 9 -17 20 -27 15 -13 20 -31 20 -67 l0 -48 -45
0 c-65 0 -85 23 -85 98 0 70 23 112 75 136 43 21 120 17 182 -9 19 -8 39 -12
44 -9 5 3 9 41 9 85 0 62 -3 79 -14 79 -10 0 -16 13 -18 35 l-3 36 -21 -21z
m-69 -36 c28 -4 56 -6 63 -5 8 1 12 -16 12 -60 0 -54 -2 -60 -17 -54 -176 73
-303 16 -303 -135 0 -106 52 -160 154 -160 l58 0 -4 75 -3 75 65 0 65 0 -5
-107 -5 -108 -50 -18 c-69 -24 -204 -19 -260 10 -91 48 -138 127 -137 234 0
106 47 185 137 231 40 21 123 37 160 32 11 -2 43 -6 70 -10z"/>
<path d="M3757 770 c-88 -22 -159 -77 -200 -154 -32 -59 -31 -193 1 -253 30
-58 106 -128 172 -161 72 -36 190 -38 261 -6 227 104 212 428 -24 544 -69 33
-150 45 -210 30z m188 -39 c156 -68 201 -278 88 -410 -98 -115 -291 -124 -401
-18 -124 118 -102 328 42 412 80 47 185 53 271 16z"/>
<path d="M3760 638 c-83 -42 -112 -148 -65 -238 35 -67 141 -93 210 -50 66 41
91 158 49 231 -20 35 -91 79 -129 79 -11 0 -41 -10 -65 -22z m144 -48 c34 -12
48 -43 48 -100 -1 -60 -23 -105 -62 -125 -41 -21 -103 -19 -131 4 -20 16 -24
28 -24 79 0 70 21 106 76 134 39 20 57 22 93 8z"/>
<path d="M1068 737 c21 -22 22 -31 22 -247 0 -216 -1 -225 -22 -247 l-21 -23
36 0 c30 0 37 -4 37 -19 0 -19 10 -20 178 -23 97 -2 184 -6 192 -8 10 -4 16 3
18 23 3 21 9 27 26 27 15 0 26 -7 29 -20 5 -19 12 -21 89 -18 91 3 83 -3 87
71 2 32 38 57 85 57 37 0 45 -4 49 -22 4 -15 -1 -30 -15 -45 l-21 -23 35 0
c27 0 37 -5 41 -20 5 -18 14 -20 86 -20 65 0 83 3 88 16 3 8 1 20 -5 26 -6 6
-8 16 -6 22 2 6 -27 104 -65 217 -45 135 -67 214 -64 232 5 23 2 27 -17 27
-22 0 -23 1 -5 20 18 20 17 20 -125 20 -138 0 -143 -1 -127 -18 10 -10 17 -24
17 -30 0 -10 -137 -372 -162 -427 l-13 -29 -5 39 c-3 24 -10 39 -18 37 -8 -1
-12 11 -12 33 0 40 -9 44 -35 15 -15 -16 -31 -20 -87 -20 l-69 0 4 158 c2 86
7 167 11 180 7 18 5 22 -13 22 -19 0 -20 3 -11 20 10 19 8 20 -111 20 l-122 0
21 -23z m164 -198 l-3 -200 111 3 110 3 0 -55 0 -55 -175 3 c-116 2 -173 6
-169 13 8 13 7 466 -1 479 -4 6 19 10 62 10 l68 0 -3 -201z m652 188 c-3 -8
31 -120 75 -250 l80 -237 -76 0 c-56 0 -74 3 -66 11 8 8 6 25 -6 63 l-18 51
-86 3 -86 3 -16 -55 c-9 -31 -14 -60 -10 -66 4 -6 -19 -10 -64 -10 -39 0 -71
2 -71 4 0 2 41 110 90 241 50 130 88 240 85 246 -4 5 30 9 84 9 72 0 89 -3 85
-13z"/>
<path d="M1786 592 c-6 -11 -46 -121 -46 -129 0 -1 23 -3 50 -3 50 0 50 0 44
28 -14 55 -41 115 -48 104z"/>
<path d="M2067 718 c15 -24 62 -99 106 -168 l78 -125 -3 -86 c-2 -66 0 -85 10
-82 8 4 12 32 12 93 l0 89 -88 138 c-48 76 -91 144 -96 151 -5 9 12 12 74 12
52 0 79 -4 75 -10 -6 -10 84 -169 95 -169 11 0 101 159 95 169 -4 6 21 10 70
10 71 0 75 -1 66 -19 -6 -10 -47 -76 -91 -147 l-80 -128 0 -93 0 -93 24 11
c20 10 24 20 28 69 4 52 13 71 96 204 93 147 105 176 76 176 -11 0 -15 6 -11
20 5 19 0 20 -115 20 l-121 0 18 -21 c18 -19 18 -21 2 -52 -10 -18 -26 -43
-36 -56 l-19 -24 -16 31 c-9 17 -16 42 -16 57 0 19 -5 25 -22 25 -20 0 -21 1
-3 20 18 20 17 20 -109 20 l-126 0 27 -42z"/>
<path d="M6178 737 c21 -22 22 -31 22 -247 0 -216 -1 -225 -22 -247 l-21 -23
37 0 c30 0 36 -3 34 -17 -3 -16 7 -18 87 -18 l90 0 -4 25 c-2 14 -4 63 -5 109
-1 61 3 85 12 89 7 2 57 -38 110 -90 130 -126 146 -138 196 -138 l41 0 0 252
c0 139 2 260 5 268 3 9 -3 16 -18 18 -23 3 -23 4 -6 23 17 19 15 19 -106 19
l-123 0 21 -23 c20 -21 22 -34 22 -122 l0 -100 -123 123 -122 122 -74 0 -74 0
21 -23z m252 -134 l135 -138 5 85 c3 47 3 109 -1 138 l-5 52 65 0 66 0 0 -250
0 -250 -35 0 c-32 0 -48 13 -175 140 -77 77 -143 140 -147 140 -14 0 -9 -255
4 -268 9 -9 -3 -12 -57 -12 l-70 0 0 250 0 250 40 0 c38 0 46 -7 175 -137z"/>
<path d="M7008 737 c21 -22 22 -31 22 -247 0 -216 -1 -225 -22 -247 l-21 -23
37 0 c30 0 36 -3 34 -17 -3 -16 7 -18 87 -18 85 0 90 1 86 20 -1 11 -5 59 -8
107 -7 126 3 126 126 4 l96 -96 65 0 65 0 0 218 c0 119 4 232 9 250 8 29 7 32
-14 32 -22 0 -23 1 -5 20 18 20 17 20 -105 20 l-123 0 21 -23 c20 -21 22 -34
22 -122 l0 -100 -123 123 -122 122 -74 0 -74 0 21 -23z m250 -131 c72 -74 135
-136 139 -139 9 -6 8 247 -2 262 -4 7 16 11 62 11 l68 0 0 -250 0 -250 -35 0
c-32 0 -48 13 -175 140 -77 77 -143 140 -147 140 -14 0 -9 -255 4 -268 9 -9
-3 -12 -57 -12 l-70 0 0 250 0 250 41 0 c40 0 46 -5 172 -134z"/>
<path d="M9553 742 c10 -10 17 -24 17 -30 0 -6 -38 -109 -84 -229 -108 -283
-103 -263 -73 -263 16 0 26 -7 30 -20 5 -19 12 -21 89 -18 91 3 83 -3 87 70 2
33 38 58 85 58 37 0 45 -4 49 -22 4 -15 -1 -30 -15 -45 l-21 -23 35 0 c27 0
37 -5 41 -20 5 -18 14 -20 87 -20 73 0 82 2 87 20 8 29 78 29 86 0 5 -19 12
-21 94 -18 82 3 88 4 84 23 -9 49 -12 178 -3 187 5 5 28 -7 58 -32 27 -22 55
-40 63 -40 8 0 30 14 48 32 l33 32 0 -59 c0 -47 -5 -64 -22 -82 l-21 -23 35 0
c27 0 37 -5 41 -20 5 -19 12 -21 94 -18 82 3 88 4 84 23 -9 38 -6 470 3 488 7
14 4 19 -13 24 -24 6 -26 14 -9 31 9 9 -5 12 -63 12 l-75 0 -42 -47 c-23 -27
-62 -70 -86 -98 l-45 -50 -77 83 c-41 45 -80 79 -85 76 -10 -6 11 -32 107
-136 l52 -57 94 104 c88 100 95 105 133 105 l40 0 -3 -236 c-2 -168 1 -240 9
-250 10 -12 0 -14 -62 -14 l-74 0 3 137 3 138 -73 -72 -73 -73 -73 72 -72 73
0 -126 c0 -84 4 -129 12 -137 9 -9 -5 -12 -66 -12 -49 0 -75 4 -71 10 4 6 6
115 5 243 0 188 -3 235 -15 246 -8 8 -18 12 -22 8 -3 -4 -1 -13 5 -19 9 -9 12
-77 12 -238 0 -215 -1 -228 -20 -245 -12 -11 -24 -15 -29 -9 -4 5 -40 103 -79
219 -47 141 -68 219 -65 238 5 23 2 27 -17 27 -18 0 -20 3 -11 13 6 8 8 17 4
20 -3 4 -65 7 -136 7 -125 0 -130 -1 -114 -18z m211 -17 c-3 -8 30 -120 75
-250 l81 -235 -73 0 -72 0 -2 38 c0 20 -6 49 -12 65 -10 25 -14 27 -73 27 -92
0 -105 -6 -124 -56 -9 -24 -14 -50 -11 -59 5 -13 -5 -15 -64 -15 -63 0 -71 2
-66 18 3 9 38 100 77 202 90 234 100 262 94 272 -3 4 35 8 85 8 75 0 89 -2 85
-15z"/>
<path d="M9660 575 c-16 -39 -40 -106 -40 -111 0 -2 23 -4 51 -4 57 0 55 -9
19 95 l-18 50 -12 -30z"/>
<path d="M862 740 c42 -12 97 -49 110 -73 36 -68 27 -144 -23 -202 -35 -40
-80 -55 -161 -55 l-58 0 0 -73 c0 -43 5 -78 12 -85 9 -9 -5 -12 -62 -12 l-75
0 3 240 c2 161 -1 240 -8 240 -6 0 -10 -77 -10 -227 0 -219 -1 -227 -22 -250
l-21 -23 37 0 c30 0 36 -3 34 -18 -3 -15 7 -17 92 -17 90 0 95 1 91 20 -11 66
-12 117 -1 130 7 8 29 15 50 15 117 0 200 79 200 190 0 58 -8 77 -57 138 -41
50 -80 72 -125 71 l-33 -1 27 -8z"/>
<path d="M730 575 l0 -65 50 0 c59 0 90 24 90 69 0 45 -23 61 -86 61 l-54 0 0
-65z m116 0 c8 -20 -13 -45 -37 -45 -24 0 -25 35 -1 49 24 14 32 13 38 -4z"/>
<path d="M5782 583 l3 -58 43 -3 c60 -4 92 18 92 63 0 43 -20 55 -90 55 l-51
0 3 -57z m115 -10 c3 -7 -6 -17 -17 -23 -30 -16 -47 1 -24 24 17 18 35 17 41
-1z"/>
<path d="M2916 521 c-17 -19 -30 -21 -121 -21 -79 0 -105 3 -115 15 -24 30
-30 14 -30 -87 0 -79 3 -99 12 -90 16 16 28 15 28 -2 0 -21 19 -30 35 -16 15
13 183 9 223 -4 22 -8 22 -7 22 73 0 64 -3 81 -14 81 -10 0 -16 13 -18 36 l-3
36 -19 -21z m-6 -91 l0 -45 -120 0 -120 0 0 45 0 45 120 0 120 0 0 -45z"/>
<path d="M4466 521 c-17 -19 -30 -21 -121 -21 -79 0 -105 3 -115 15 -24 29
-30 14 -30 -85 0 -96 1 -100 19 -91 15 9 20 7 24 -11 5 -16 10 -19 24 -12 22
11 200 11 231 0 22 -8 22 -7 22 73 0 64 -3 81 -14 81 -10 0 -16 13 -18 36 l-3
36 -19 -21z m-128 -51 c51 0 102 5 113 10 18 10 19 7 19 -51 0 -52 -2 -60 -14
-50 -10 8 -50 11 -125 9 l-111 -3 0 55 c0 42 3 51 12 42 8 -8 46 -12 106 -12z"/>
<path d="M2277 204 c-15 -16 9 -24 69 -24 63 0 85 12 42 24 -30 8 -103 8 -111
0z"/>
</g>
</svg>
