<svg width="372" height="336" viewBox="0 0 372 336" fill="none" xmlns="http://www.w3.org/2000/svg">
<rect x="371.322" y="0.677606" width="334.645" height="370.645" rx="6.77027" transform="rotate(90 371.322 0.677606)" fill="url(#paint0_linear_839_70)" stroke="#813208" stroke-width="0.644788"/>
<mask id="mask0_839_70" style="mask-type:alpha" maskUnits="userSpaceOnUse" x="1" y="1" width="370" height="334">
<rect x="371" y="1" width="334" height="370" rx="6.44788" transform="rotate(90 371 1)" fill="url(#paint1_linear_839_70)"/>
</mask>
<g mask="url(#mask0_839_70)">
<g opacity="0.3">
<rect x="299.276" y="42.6274" width="463.408" height="2.19105" transform="rotate(90 299.276 42.6274)" fill="#813208"/>
<rect x="283.939" y="10.8589" width="259.64" height="2.19104" transform="rotate(-180 283.939 10.8589)" fill="#813208"/>
<rect x="11.1519" y="42.6274" width="463.408" height="2.19105" transform="rotate(90 11.1519 42.6274)" fill="#813208"/>
</g>
<g filter="url(#filter0_d_839_70)">
<path d="M399.692 -28.4798L376.502 58.0664L313.145 -5.28985L399.692 -28.4798Z" fill="url(#paint2_linear_839_70)"/>
<path d="M400.003 -28.3964L400.147 -28.9358L399.608 -28.7912L313.062 -5.60126L312.522 -5.45673L312.917 -5.06188L376.274 58.2944L376.668 58.6892L376.813 58.1498L400.003 -28.3964Z" stroke="#813208" stroke-width="0.644788"/>
</g>
<g filter="url(#filter1_d_839_70)">
<path d="M-30.2865 -28.4798L-7.09654 58.0664L56.2597 -5.28984L-30.2865 -28.4798Z" fill="url(#paint3_linear_839_70)"/>
<path d="M-30.5979 -28.3964L-30.7425 -28.9358L-30.2031 -28.7912L56.3432 -5.60125L56.8825 -5.45672L56.4877 -5.06187L-6.86858 58.2944L-7.26343 58.6892L-7.40795 58.1498L-30.5979 -28.3964Z" stroke="#813208" stroke-width="0.644788"/>
</g>
<g filter="url(#filter2_d_839_70)">
<path d="M402.546 363.546L379.356 277L316 340.356L402.546 363.546Z" fill="url(#paint4_linear_839_70)"/>
<path d="M402.858 363.463L403.002 364.002L402.463 363.858L315.917 340.668L315.377 340.523L315.772 340.128L379.128 276.772L379.523 276.377L379.668 276.917L402.858 363.463Z" stroke="#813208" stroke-width="0.644788"/>
</g>
<g filter="url(#filter3_d_839_70)">
<path d="M-28.2868 363.547L-5.09677 277L58.2595 340.357L-28.2868 363.547Z" fill="url(#paint5_linear_839_70)"/>
<path d="M-28.5982 363.463L-28.7427 364.003L-28.2033 363.858L58.3429 340.668L58.8823 340.524L58.4874 340.129L-4.8688 276.773L-5.26365 276.378L-5.40817 276.917L-28.5982 363.463Z" stroke="#813208" stroke-width="0.644788"/>
</g>
</g>
<mask id="path-14-outside-1_839_70" maskUnits="userSpaceOnUse" x="7.8535" y="7.99999" width="357" height="320" fill="black">
<rect fill="white" x="7.8535" y="7.99999" width="357" height="320"/>
<path fill-rule="evenodd" clip-rule="evenodd" d="M363.854 320.891L363.854 326.891L357.854 326.891L357.854 320.891L363.854 320.891ZM349.178 12.1424C349.178 11.2199 348.446 9.52393 345.756 9L26.2804 8.99999C23.5902 9.52391 22.8586 11.2199 22.8586 12.1424L22.8586 20.2676C22.8586 21.2832 21.9456 21.3679 21.4892 21.2832L11.9033 21.2832C10.4291 21.2832 9.52719 21.8727 9.00003 22.594L8.99999 291.047L10.3429 291.047L10.3429 311.614C10.3429 312.714 11.0549 314.915 13.9033 314.915L23.4892 314.915C23.9456 314.83 24.8586 314.915 24.8586 315.931L24.8586 324.056C24.8586 324.883 25.4466 326.331 27.5065 327L346.531 327C348.59 326.331 349.178 324.883 349.178 324.056L349.178 315.931C349.178 314.915 350.091 314.831 350.547 314.915L360.133 314.915C361.574 314.915 362.468 314.352 363 313.653L363 22.5452C362.468 21.8463 361.574 21.2832 360.133 21.2832L350.547 21.2832C350.091 21.3679 349.178 21.2832 349.178 20.2676L349.178 12.1424ZM360.999 16.3684L360.999 10.3684L354.999 10.3684L354.999 16.3684L360.999 16.3684ZM19.4732 320.891L19.4732 326.891L13.4732 326.891L13.4732 320.891L19.4732 320.891ZM17.4731 16.3684L17.4731 10.3684L11.4731 10.3684L11.4731 16.3684L17.4731 16.3684Z"/>
</mask>
<path fill-rule="evenodd" clip-rule="evenodd" d="M363.854 320.891L363.854 326.891L357.854 326.891L357.854 320.891L363.854 320.891ZM349.178 12.1424C349.178 11.2199 348.446 9.52393 345.756 9L26.2804 8.99999C23.5902 9.52391 22.8586 11.2199 22.8586 12.1424L22.8586 20.2676C22.8586 21.2832 21.9456 21.3679 21.4892 21.2832L11.9033 21.2832C10.4291 21.2832 9.52719 21.8727 9.00003 22.594L8.99999 291.047L10.3429 291.047L10.3429 311.614C10.3429 312.714 11.0549 314.915 13.9033 314.915L23.4892 314.915C23.9456 314.83 24.8586 314.915 24.8586 315.931L24.8586 324.056C24.8586 324.883 25.4466 326.331 27.5065 327L346.531 327C348.59 326.331 349.178 324.883 349.178 324.056L349.178 315.931C349.178 314.915 350.091 314.831 350.547 314.915L360.133 314.915C361.574 314.915 362.468 314.352 363 313.653L363 22.5452C362.468 21.8463 361.574 21.2832 360.133 21.2832L350.547 21.2832C350.091 21.3679 349.178 21.2832 349.178 20.2676L349.178 12.1424ZM360.999 16.3684L360.999 10.3684L354.999 10.3684L354.999 16.3684L360.999 16.3684ZM19.4732 320.891L19.4732 326.891L13.4732 326.891L13.4732 320.891L19.4732 320.891ZM17.4731 16.3684L17.4731 10.3684L11.4731 10.3684L11.4731 16.3684L17.4731 16.3684Z" fill="url(#paint6_radial_839_70)"/>
<path d="M363.854 326.891L363.854 327.536L364.498 327.536L364.498 326.891L363.854 326.891ZM363.854 320.891L364.498 320.891L364.498 320.246L363.854 320.246L363.854 320.891ZM357.854 326.891L357.209 326.891L357.209 327.536L357.854 327.536L357.854 326.891ZM357.854 320.891L357.854 320.246L357.209 320.246L357.209 320.891L357.854 320.891ZM345.756 9L345.879 8.3671L345.818 8.35521L345.756 8.35521L345.756 9ZM26.2804 8.99999L26.2804 8.3552L26.2182 8.3552L26.1571 8.36709L26.2804 8.99999ZM21.4892 21.2832L21.6067 20.6493L21.5485 20.6385L21.4892 20.6385L21.4892 21.2832ZM9.00003 22.594L8.47946 22.2135L8.35525 22.3835L8.35525 22.594L9.00003 22.594ZM8.99999 291.047L8.35521 291.047L8.35521 291.692L8.99999 291.692L8.99999 291.047ZM10.3429 291.047L10.9876 291.047L10.9876 290.403L10.3429 290.403L10.3429 291.047ZM13.9033 314.915L13.9033 314.27L13.9033 314.915ZM23.4892 314.915L23.4892 315.56L23.5485 315.56L23.6068 315.549L23.4892 314.915ZM24.8586 315.931L24.2138 315.931L24.8586 315.931ZM24.8586 324.056L25.5033 324.056L24.8586 324.056ZM27.5065 327L27.3074 327.613L27.4045 327.645L27.5065 327.645L27.5065 327ZM346.531 327L346.531 327.645L346.633 327.645L346.73 327.613L346.531 327ZM350.547 314.915L350.43 315.549L350.488 315.56L350.547 315.56L350.547 314.915ZM360.133 314.915L360.133 315.56L360.133 314.915ZM363 313.653L363.513 314.044L363.645 313.871L363.645 313.653L363 313.653ZM363 22.5452L363.645 22.5452L363.645 22.3278L363.513 22.1547L363 22.5452ZM350.547 21.2832L350.547 20.6385L350.488 20.6385L350.43 20.6493L350.547 21.2832ZM360.999 10.3684L361.644 10.3684L361.644 9.72362L360.999 9.72362L360.999 10.3684ZM360.999 16.3684L360.999 17.0132L361.644 17.0132L361.644 16.3684L360.999 16.3684ZM354.999 10.3684L354.999 9.72362L354.354 9.72362L354.354 10.3684L354.999 10.3684ZM354.999 16.3684L354.354 16.3684L354.354 17.0132L354.999 17.0132L354.999 16.3684ZM19.4732 326.891L19.4732 327.536L20.1179 327.536L20.1179 326.891L19.4732 326.891ZM19.4732 320.891L20.1179 320.891L20.1179 320.246L19.4732 320.246L19.4732 320.891ZM13.4732 326.891L12.8284 326.891L12.8284 327.536L13.4732 327.536L13.4732 326.891ZM13.4732 320.891L13.4732 320.246L12.8284 320.246L12.8284 320.891L13.4732 320.891ZM17.4731 10.3684L18.1179 10.3684L18.1179 9.72362L17.4731 9.72362L17.4731 10.3684ZM17.4731 16.3684L17.4731 17.0132L18.1179 17.0132L18.1179 16.3684L17.4731 16.3684ZM11.4731 10.3684L11.4731 9.72362L10.8284 9.72362L10.8284 10.3684L11.4731 10.3684ZM11.4731 16.3684L10.8284 16.3684L10.8284 17.0132L11.4731 17.0132L11.4731 16.3684ZM364.498 326.891L364.498 320.891L363.209 320.891L363.209 326.891L364.498 326.891ZM357.854 327.536L363.854 327.536L363.854 326.246L357.854 326.246L357.854 327.536ZM357.209 320.891L357.209 326.891L358.498 326.891L358.498 320.891L357.209 320.891ZM363.854 320.246L357.854 320.246L357.854 321.536L363.854 321.536L363.854 320.246ZM345.633 9.63289C348.042 10.1022 348.533 11.5507 348.533 12.1424L349.823 12.1424C349.823 10.8892 348.85 8.94569 345.879 8.3671L345.633 9.63289ZM26.2804 9.64478L345.756 9.64479L345.756 8.35521L26.2804 8.3552L26.2804 9.64478ZM23.5034 12.1424C23.5034 11.5507 23.9941 10.1022 26.4037 9.63289L26.1571 8.36709C23.1864 8.94566 22.2138 10.8892 22.2138 12.1424L23.5034 12.1424ZM23.5034 20.2676L23.5034 12.1424L22.2138 12.1424L22.2138 20.2676L23.5034 20.2676ZM21.3716 21.9172C21.6831 21.975 22.1762 21.9853 22.6251 21.7688C22.8609 21.6552 23.09 21.4753 23.2567 21.2066C23.4232 20.9383 23.5034 20.6202 23.5034 20.2676L22.2138 20.2676C22.2138 20.4228 22.1799 20.4962 22.1609 20.5267C22.1422 20.5569 22.1145 20.5834 22.0651 20.6072C21.9434 20.6659 21.7518 20.6762 21.6067 20.6493L21.3716 21.9172ZM11.9033 21.928L21.4892 21.928L21.4892 20.6385L11.9033 20.6385L11.9033 21.928ZM9.5206 22.9744C9.92258 22.4244 10.6284 21.928 11.9033 21.928L11.9033 20.6385C10.2299 20.6385 9.1318 21.3209 8.47946 22.2135L9.5206 22.9744ZM9.64476 291.047L9.64481 22.594L8.35525 22.594L8.35521 291.047L9.64476 291.047ZM10.3429 290.403L8.99999 290.403L8.99999 291.692L10.3429 291.692L10.3429 290.403ZM10.9876 311.614L10.9876 291.047L9.69808 291.047L9.69808 311.614L10.9876 311.614ZM13.9033 314.27C12.6694 314.27 11.9708 313.805 11.5642 313.282C11.1346 312.729 10.9876 312.051 10.9876 311.614L9.69808 311.614C9.69808 312.278 9.90718 313.251 10.5457 314.073C11.2072 314.924 12.2888 315.56 13.9033 315.56L13.9033 314.27ZM23.4892 314.27L13.9033 314.27L13.9033 315.56L23.4892 315.56L23.4892 314.27ZM25.5033 315.931C25.5033 315.578 25.4232 315.26 25.2567 314.992C25.09 314.723 24.8609 314.543 24.625 314.429C24.1762 314.213 23.6831 314.223 23.3716 314.281L23.6068 315.549C23.7518 315.522 23.9433 315.532 24.065 315.591C24.1145 315.615 24.1421 315.641 24.1609 315.671C24.1799 315.702 24.2138 315.775 24.2138 315.931L25.5033 315.931ZM25.5033 324.056L25.5033 315.931L24.2138 315.931L24.2138 324.056L25.5033 324.056ZM27.7055 326.387C25.9049 325.802 25.5033 324.597 25.5033 324.056L24.2138 324.056C24.2138 325.169 24.9883 326.861 27.3074 327.613L27.7055 326.387ZM346.531 326.355L27.5065 326.355L27.5065 327.645L346.531 327.645L346.531 326.355ZM348.533 324.056C348.533 324.597 348.132 325.802 346.331 326.387L346.73 327.613C349.048 326.86 349.823 325.169 349.823 324.056L348.533 324.056ZM348.533 315.931L348.533 324.056L349.823 324.056L349.823 315.931L348.533 315.931ZM350.665 314.281C350.353 314.224 349.86 314.213 349.411 314.43C349.175 314.543 348.946 314.723 348.78 314.992C348.613 315.26 348.533 315.578 348.533 315.931L349.823 315.931C349.823 315.776 349.856 315.702 349.875 315.672C349.894 315.642 349.922 315.615 349.971 315.591C350.093 315.533 350.285 315.522 350.43 315.549L350.665 314.281ZM360.133 314.27L350.547 314.27L350.547 315.56L360.133 315.56L360.133 314.27ZM362.487 313.263C362.082 313.795 361.381 314.27 360.133 314.27L360.133 315.56C361.767 315.56 362.854 314.909 363.513 314.044L362.487 313.263ZM362.355 22.5452L362.355 313.653L363.645 313.653L363.645 22.5452L362.355 22.5452ZM360.133 21.928C361.381 21.928 362.082 22.4034 362.487 22.9357L363.513 22.1547C362.854 21.2893 361.767 20.6385 360.133 20.6385L360.133 21.928ZM350.547 21.928L360.133 21.928L360.133 20.6385L350.547 20.6385L350.547 21.928ZM348.533 20.2676C348.533 20.6202 348.613 20.9383 348.78 21.2066C348.946 21.4753 349.175 21.6552 349.411 21.7688C349.86 21.9852 350.353 21.975 350.665 21.9172L350.43 20.6493C350.285 20.6762 350.093 20.6659 349.971 20.6072C349.922 20.5834 349.894 20.5569 349.875 20.5267C349.856 20.4962 349.823 20.4228 349.823 20.2676L348.533 20.2676ZM348.533 12.1424L348.533 20.2676L349.823 20.2676L349.823 12.1424L348.533 12.1424ZM360.354 10.3684L360.354 16.3684L361.644 16.3684L361.644 10.3684L360.354 10.3684ZM354.999 11.0132L360.999 11.0132L360.999 9.72362L354.999 9.72362L354.999 11.0132ZM355.644 16.3684L355.644 10.3684L354.354 10.3684L354.354 16.3684L355.644 16.3684ZM360.999 15.7236L354.999 15.7236L354.999 17.0132L360.999 17.0132L360.999 15.7236ZM20.1179 326.891L20.1179 320.891L18.8284 320.891L18.8284 326.891L20.1179 326.891ZM13.4732 327.536L19.4732 327.536L19.4732 326.246L13.4732 326.246L13.4732 327.536ZM12.8284 320.891L12.8284 326.891L14.1179 326.891L14.1179 320.891L12.8284 320.891ZM19.4732 320.246L13.4732 320.246L13.4732 321.536L19.4732 321.536L19.4732 320.246ZM16.8284 10.3684L16.8284 16.3684L18.1179 16.3684L18.1179 10.3684L16.8284 10.3684ZM11.4731 11.0132L17.4731 11.0132L17.4731 9.72362L11.4731 9.72362L11.4731 11.0132ZM12.1179 16.3684L12.1179 10.3684L10.8284 10.3684L10.8284 16.3684L12.1179 16.3684ZM17.4731 15.7236L11.4731 15.7236L11.4731 17.0132L17.4731 17.0132L17.4731 15.7236Z" fill="#813208" mask="url(#path-14-outside-1_839_70)"/>
<defs>
<filter id="filter0_d_839_70" x="311.9" y="-29.3916" width="88.7039" height="89.3484" filterUnits="userSpaceOnUse" color-interpolation-filters="sRGB">
<feFlood flood-opacity="0" result="BackgroundImageFix"/>
<feColorMatrix in="SourceAlpha" type="matrix" values="0 0 0 0 0 0 0 0 0 0 0 0 0 0 0 0 0 0 127 0" result="hardAlpha"/>
<feOffset dy="0.644788"/>
<feComposite in2="hardAlpha" operator="out"/>
<feColorMatrix type="matrix" values="0 0 0 0 0 0 0 0 0 0 0 0 0 0 0 0 0 0 0.25 0"/>
<feBlend mode="normal" in2="BackgroundImageFix" result="effect1_dropShadow_839_70"/>
<feBlend mode="normal" in="SourceGraphic" in2="effect1_dropShadow_839_70" result="shape"/>
</filter>
<filter id="filter1_d_839_70" x="-31.1985" y="-30.0364" width="88.7039" height="89.3484" filterUnits="userSpaceOnUse" color-interpolation-filters="sRGB">
<feFlood flood-opacity="0" result="BackgroundImageFix"/>
<feColorMatrix in="SourceAlpha" type="matrix" values="0 0 0 0 0 0 0 0 0 0 0 0 0 0 0 0 0 0 127 0" result="hardAlpha"/>
<feOffset dy="-0.644788"/>
<feComposite in2="hardAlpha" operator="out"/>
<feColorMatrix type="matrix" values="0 0 0 0 0 0 0 0 0 0 0 0 0 0 0 0 0 0 0.25 0"/>
<feBlend mode="normal" in2="BackgroundImageFix" result="effect1_dropShadow_839_70"/>
<feBlend mode="normal" in="SourceGraphic" in2="effect1_dropShadow_839_70" result="shape"/>
</filter>
<filter id="filter2_d_839_70" x="314.754" y="275.754" width="88.7039" height="89.3484" filterUnits="userSpaceOnUse" color-interpolation-filters="sRGB">
<feFlood flood-opacity="0" result="BackgroundImageFix"/>
<feColorMatrix in="SourceAlpha" type="matrix" values="0 0 0 0 0 0 0 0 0 0 0 0 0 0 0 0 0 0 127 0" result="hardAlpha"/>
<feOffset dy="0.644788"/>
<feComposite in2="hardAlpha" operator="out"/>
<feColorMatrix type="matrix" values="0 0 0 0 0 0 0 0 0 0 0 0 0 0 0 0 0 0 0.25 0"/>
<feBlend mode="normal" in2="BackgroundImageFix" result="effect1_dropShadow_839_70"/>
<feBlend mode="normal" in="SourceGraphic" in2="effect1_dropShadow_839_70" result="shape"/>
</filter>
<filter id="filter3_d_839_70" x="-29.1987" y="275.11" width="88.7039" height="89.3484" filterUnits="userSpaceOnUse" color-interpolation-filters="sRGB">
<feFlood flood-opacity="0" result="BackgroundImageFix"/>
<feColorMatrix in="SourceAlpha" type="matrix" values="0 0 0 0 0 0 0 0 0 0 0 0 0 0 0 0 0 0 127 0" result="hardAlpha"/>
<feOffset dy="-0.644788"/>
<feComposite in2="hardAlpha" operator="out"/>
<feColorMatrix type="matrix" values="0 0 0 0 0 0 0 0 0 0 0 0 0 0 0 0 0 0 0.25 0"/>
<feBlend mode="normal" in2="BackgroundImageFix" result="effect1_dropShadow_839_70"/>
<feBlend mode="normal" in="SourceGraphic" in2="effect1_dropShadow_839_70" result="shape"/>
</filter>
<linearGradient id="paint0_linear_839_70" x1="705" y1="186" x2="371" y2="186" gradientUnits="userSpaceOnUse">
<stop stop-color="#EDA722"/>
<stop offset="0.239648" stop-color="#FEFFAB"/>
<stop offset="0.483322" stop-color="#EDA722"/>
<stop offset="0.749403" stop-color="#FEFFAB"/>
<stop offset="1" stop-color="#EDA722"/>
</linearGradient>
<linearGradient id="paint1_linear_839_70" x1="538" y1="1" x2="538" y2="371" gradientUnits="userSpaceOnUse">
<stop stop-color="#EDA722"/>
<stop offset="1" stop-color="#FEFFAB"/>
</linearGradient>
<linearGradient id="paint2_linear_839_70" x1="399.692" y1="-28.4798" x2="344.823" y2="26.3883" gradientUnits="userSpaceOnUse">
<stop offset="0.685417" stop-color="#D67F12"/>
<stop offset="1" stop-color="#F4DA7F"/>
</linearGradient>
<linearGradient id="paint3_linear_839_70" x1="-30.2865" y1="-28.4798" x2="24.5816" y2="26.3883" gradientUnits="userSpaceOnUse">
<stop offset="0.685417" stop-color="#D67F12"/>
<stop offset="1" stop-color="#F4DA7F"/>
</linearGradient>
<linearGradient id="paint4_linear_839_70" x1="402.546" y1="363.546" x2="347.678" y2="308.678" gradientUnits="userSpaceOnUse">
<stop offset="0.685417" stop-color="#D67F12"/>
<stop offset="1" stop-color="#F4DA7F"/>
</linearGradient>
<linearGradient id="paint5_linear_839_70" x1="-28.2868" y1="363.547" x2="26.5814" y2="308.679" gradientUnits="userSpaceOnUse">
<stop offset="0.685417" stop-color="#D67F12"/>
<stop offset="1" stop-color="#F4DA7F"/>
</linearGradient>
<radialGradient id="paint6_radial_839_70" cx="0" cy="0" r="1" gradientUnits="userSpaceOnUse" gradientTransform="translate(186.427 168) rotate(-180) scale(222.298 199.211)">
<stop stop-color="#546FDA"/>
<stop offset="0.528408" stop-color="#2C4297"/>
<stop offset="0.932415" stop-color="#121F54"/>
</radialGradient>
</defs>
</svg>
